<?xml version="1.0" encoding="utf-8" standalone="no"?>
<!DOCTYPE svg PUBLIC "-//W3C//DTD SVG 1.1//EN"
  "http://www.w3.org/Graphics/SVG/1.1/DTD/svg11.dtd">
<svg xmlns:xlink="http://www.w3.org/1999/xlink" width="285.658406pt" height="300.31625pt" viewBox="0 0 285.658406 300.31625" xmlns="http://www.w3.org/2000/svg" version="1.1">
 <metadata>
  <rdf:RDF xmlns:dc="http://purl.org/dc/elements/1.1/" xmlns:cc="http://creativecommons.org/ns#" xmlns:rdf="http://www.w3.org/1999/02/22-rdf-syntax-ns#">
   <cc:Work>
    <dc:type rdf:resource="http://purl.org/dc/dcmitype/StillImage"/>
    <dc:date>2026-06-30T07:20:25.260311</dc:date>
    <dc:format>image/svg+xml</dc:format>
    <dc:creator>
     <cc:Agent>
      <dc:title>Matplotlib v3.9.2, https://matplotlib.org/</dc:title>
     </cc:Agent>
    </dc:creator>
   </cc:Work>
  </rdf:RDF>
 </metadata>
 <defs>
  <style type="text/css">*{stroke-linejoin: round; stroke-linecap: butt}</style>
 </defs>
 <g id="figure_1">
  <g id="patch_1">
   <path d="M 0 300.31625 
L 285.658406 300.31625 
L 285.658406 0 
L 0 0 
z
" style="fill: #ffffff"/>
  </g>
  <g id="axes_1">
   <g id="patch_2">
    <path d="M 231.306406 176.04 
C 231.306406 164.62577 229.058052 153.322529 224.690015 142.777156 
C 220.321979 132.231783 213.919207 122.649358 205.848128 114.578279 
C 197.777048 106.507199 188.194623 100.104428 177.64925 95.736391 
C 167.103877 91.368354 155.800636 89.12 144.386406 89.12 
C 132.972176 89.12 121.668936 91.368354 111.123562 95.736391 
C 100.578189 100.104428 90.995764 106.507199 82.924685 114.578279 
C 74.853606 122.649358 68.450834 132.231783 64.082797 142.777156 
C 59.714761 153.322529 57.466406 164.62577 57.466406 176.04 
C 57.466406 187.45423 59.714761 198.757471 64.082797 209.302844 
C 68.450834 219.848217 74.853606 229.430642 82.924685 237.501721 
C 90.995764 245.572801 100.578189 251.975572 111.123562 256.343609 
C 121.668936 260.711646 132.972176 262.96 144.386406 262.96 
C 155.800636 262.96 167.103877 260.711646 177.64925 256.343609 
C 188.194623 251.975572 197.777048 245.572801 205.848128 237.501721 
C 213.919207 229.430642 220.321979 219.848217 224.690015 209.302844 
C 229.058052 198.757471 231.306406 187.45423 231.306406 176.04 
M 144.386406 176.04 
C 144.386406 176.04 144.386406 176.04 144.386406 176.04 
C 144.386406 176.04 144.386406 176.04 144.386406 176.04 
C 144.386406 176.04 144.386406 176.04 144.386406 176.04 
C 144.386406 176.04 144.386406 176.04 144.386406 176.04 
C 144.386406 176.04 144.386406 176.04 144.386406 176.04 
C 144.386406 176.04 144.386406 176.04 144.386406 176.04 
C 144.386406 176.04 144.386406 176.04 144.386406 176.04 
C 144.386406 176.04 144.386406 176.04 144.386406 176.04 
C 144.386406 176.04 144.386406 176.04 144.386406 176.04 
C 144.386406 176.04 144.386406 176.04 144.386406 176.04 
C 144.386406 176.04 144.386406 176.04 144.386406 176.04 
C 144.386406 176.04 144.386406 176.04 144.386406 176.04 
C 144.386406 176.04 144.386406 176.04 144.386406 176.04 
C 144.386406 176.04 144.386406 176.04 144.386406 176.04 
C 144.386406 176.04 144.386406 176.04 144.386406 176.04 
C 144.386406 176.04 144.386406 176.04 144.386406 176.04 
z
" style="fill: #ffffff"/>
   </g>
   <g id="PolyCollection_1">
    <defs>
     <path id="mfc0601bfac" d="M 170.759797 -124.27625 
L 168.700281 -124.27625 
L 179.17923 -184.539189 
L 110.036385 -183.772231 
L 91.462323 -124.27625 
L 126.483021 -93.266678 
L 155.789769 -104.525046 
L 168.700281 -124.27625 
L 170.759797 -124.27625 
L 170.759797 -124.27625 
L 156.153121 -103.895702 
L 126.171702 -92.727457 
L 90.850821 -124.27625 
L 109.613718 -184.504313 
L 179.784425 -185.587418 
L 170.759797 -124.27625 
z
" style="stroke: #f1605d; stroke-opacity: 0.15"/>
    </defs>
    <g clip-path="url(#p8b891a02a4)">
     <use xlink:href="#mfc0601bfac" x="0" y="300.31625" style="fill: #f1605d; fill-opacity: 0.15; stroke: #f1605d; stroke-opacity: 0.15"/>
    </g>
   </g>
   <g id="PolyCollection_2">
    <defs>
     <path id="mda33443e31" d="M 160.41204 -124.27625 
L 157.753841 -124.27625 
L 178.46194 -183.296805 
L 108.340711 -186.709225 
L 90.599867 -124.27625 
L 124.852841 -90.443123 
L 152.31117 -110.550156 
L 157.753841 -124.27625 
L 160.41204 -124.27625 
L 160.41204 -124.27625 
L 152.694637 -109.885973 
L 124.645953 -90.084782 
L 89.540805 -124.27625 
L 107.870284 -187.52403 
L 179.129457 -184.45298 
L 160.41204 -124.27625 
z
" style="stroke: #440f76; stroke-opacity: 0.15"/>
    </defs>
    <g clip-path="url(#p8b891a02a4)">
     <use xlink:href="#mda33443e31" x="0" y="300.31625" style="fill: #440f76; fill-opacity: 0.15; stroke: #440f76; stroke-opacity: 0.15"/>
    </g>
   </g>
   <g id="PolyCollection_3">
    <defs>
     <path id="m97cb2f1032" d="M 150.097744 -124.27625 
L 148.337315 -124.27625 
L 176.636741 -180.135468 
L 103.274185 -195.484706 
L 85.027824 -124.27625 
L 124.893072 -90.512805 
L 157.319101 -101.876166 
L 148.337315 -124.27625 
L 150.097744 -124.27625 
L 150.097744 -124.27625 
L 157.597004 -101.394823 
L 124.652517 -90.096151 
L 84.536976 -124.27625 
L 102.901861 -196.12959 
L 177.087801 -180.916728 
L 150.097744 -124.27625 
z
" style="stroke: #feca8d; stroke-opacity: 0.15"/>
    </defs>
    <g clip-path="url(#p8b891a02a4)">
     <use xlink:href="#m97cb2f1032" x="0" y="300.31625" style="fill: #feca8d; fill-opacity: 0.15; stroke: #feca8d; stroke-opacity: 0.15"/>
    </g>
   </g>
   <g id="matplotlib.axis_1">
    <g id="xtick_1">
     <g id="line2d_1">
      <path d="M 144.386406 176.04 
L 231.306406 176.04 
" clip-path="url(#p8b891a02a4)" style="fill: none; stroke: #b0b0b0; stroke-width: 0.8; stroke-linecap: square"/>
     </g>
     <g id="text_1">
      <!-- eye_opening -->
      <g transform="translate(213.482969 178.660313) scale(0.1 -0.1)">
       <defs>
        <path id="DejaVuSans-65" d="M 3597 1894 
L 3597 1613 
L 953 1613 
Q 991 1019 1311 708 
Q 1631 397 2203 397 
Q 2534 397 2845 478 
Q 3156 559 3463 722 
L 3463 178 
Q 3153 47 2828 -22 
Q 2503 -91 2169 -91 
Q 1331 -91 842 396 
Q 353 884 353 1716 
Q 353 2575 817 3079 
Q 1281 3584 2069 3584 
Q 2775 3584 3186 3129 
Q 3597 2675 3597 1894 
z
M 3022 2063 
Q 3016 2534 2758 2815 
Q 2500 3097 2075 3097 
Q 1594 3097 1305 2825 
Q 1016 2553 972 2059 
L 3022 2063 
z
" transform="scale(0.015625)"/>
        <path id="DejaVuSans-79" d="M 2059 -325 
Q 1816 -950 1584 -1140 
Q 1353 -1331 966 -1331 
L 506 -1331 
L 506 -850 
L 844 -850 
Q 1081 -850 1212 -737 
Q 1344 -625 1503 -206 
L 1606 56 
L 191 3500 
L 800 3500 
L 1894 763 
L 2988 3500 
L 3597 3500 
L 2059 -325 
z
" transform="scale(0.015625)"/>
        <path id="DejaVuSans-5f" d="M 3263 -1063 
L 3263 -1509 
L -63 -1509 
L -63 -1063 
L 3263 -1063 
z
" transform="scale(0.015625)"/>
        <path id="DejaVuSans-6f" d="M 1959 3097 
Q 1497 3097 1228 2736 
Q 959 2375 959 1747 
Q 959 1119 1226 758 
Q 1494 397 1959 397 
Q 2419 397 2687 759 
Q 2956 1122 2956 1747 
Q 2956 2369 2687 2733 
Q 2419 3097 1959 3097 
z
M 1959 3584 
Q 2709 3584 3137 3096 
Q 3566 2609 3566 1747 
Q 3566 888 3137 398 
Q 2709 -91 1959 -91 
Q 1206 -91 779 398 
Q 353 888 353 1747 
Q 353 2609 779 3096 
Q 1206 3584 1959 3584 
z
" transform="scale(0.015625)"/>
        <path id="DejaVuSans-70" d="M 1159 525 
L 1159 -1331 
L 581 -1331 
L 581 3500 
L 1159 3500 
L 1159 2969 
Q 1341 3281 1617 3432 
Q 1894 3584 2278 3584 
Q 2916 3584 3314 3078 
Q 3713 2572 3713 1747 
Q 3713 922 3314 415 
Q 2916 -91 2278 -91 
Q 1894 -91 1617 61 
Q 1341 213 1159 525 
z
M 3116 1747 
Q 3116 2381 2855 2742 
Q 2594 3103 2138 3103 
Q 1681 3103 1420 2742 
Q 1159 2381 1159 1747 
Q 1159 1113 1420 752 
Q 1681 391 2138 391 
Q 2594 391 2855 752 
Q 3116 1113 3116 1747 
z
" transform="scale(0.015625)"/>
        <path id="DejaVuSans-6e" d="M 3513 2113 
L 3513 0 
L 2938 0 
L 2938 2094 
Q 2938 2591 2744 2837 
Q 2550 3084 2163 3084 
Q 1697 3084 1428 2787 
Q 1159 2491 1159 1978 
L 1159 0 
L 581 0 
L 581 3500 
L 1159 3500 
L 1159 2956 
Q 1366 3272 1645 3428 
Q 1925 3584 2291 3584 
Q 2894 3584 3203 3211 
Q 3513 2838 3513 2113 
z
" transform="scale(0.015625)"/>
        <path id="DejaVuSans-69" d="M 603 3500 
L 1178 3500 
L 1178 0 
L 603 0 
L 603 3500 
z
M 603 4863 
L 1178 4863 
L 1178 4134 
L 603 4134 
L 603 4863 
z
" transform="scale(0.015625)"/>
        <path id="DejaVuSans-67" d="M 2906 1791 
Q 2906 2416 2648 2759 
Q 2391 3103 1925 3103 
Q 1463 3103 1205 2759 
Q 947 2416 947 1791 
Q 947 1169 1205 825 
Q 1463 481 1925 481 
Q 2391 481 2648 825 
Q 2906 1169 2906 1791 
z
M 3481 434 
Q 3481 -459 3084 -895 
Q 2688 -1331 1869 -1331 
Q 1566 -1331 1297 -1286 
Q 1028 -1241 775 -1147 
L 775 -588 
Q 1028 -725 1275 -790 
Q 1522 -856 1778 -856 
Q 2344 -856 2625 -561 
Q 2906 -266 2906 331 
L 2906 616 
Q 2728 306 2450 153 
Q 2172 0 1784 0 
Q 1141 0 747 490 
Q 353 981 353 1791 
Q 353 2603 747 3093 
Q 1141 3584 1784 3584 
Q 2172 3584 2450 3431 
Q 2728 3278 2906 2969 
L 2906 3500 
L 3481 3500 
L 3481 434 
z
" transform="scale(0.015625)"/>
       </defs>
       <use xlink:href="#DejaVuSans-65"/>
       <use xlink:href="#DejaVuSans-79" x="61.523438"/>
       <use xlink:href="#DejaVuSans-65" x="120.703125"/>
       <use xlink:href="#DejaVuSans-5f" x="182.226562"/>
       <use xlink:href="#DejaVuSans-6f" x="232.226562"/>
       <use xlink:href="#DejaVuSans-70" x="293.408203"/>
       <use xlink:href="#DejaVuSans-65" x="356.884766"/>
       <use xlink:href="#DejaVuSans-6e" x="418.408203"/>
       <use xlink:href="#DejaVuSans-69" x="481.787109"/>
       <use xlink:href="#DejaVuSans-6e" x="509.570312"/>
       <use xlink:href="#DejaVuSans-67" x="572.949219"/>
      </g>
     </g>
    </g>
    <g id="xtick_2">
     <g id="line2d_2">
      <path d="M 144.386406 176.04 
L 187.846406 100.765072 
" clip-path="url(#p8b891a02a4)" style="fill: none; stroke: #b0b0b0; stroke-width: 0.8; stroke-linecap: square"/>
     </g>
     <g id="text_2">
      <!-- ear_opening -->
      <g transform="translate(163.939375 91.261029) scale(0.1 -0.1)">
       <defs>
        <path id="DejaVuSans-61" d="M 2194 1759 
Q 1497 1759 1228 1600 
Q 959 1441 959 1056 
Q 959 750 1161 570 
Q 1363 391 1709 391 
Q 2188 391 2477 730 
Q 2766 1069 2766 1631 
L 2766 1759 
L 2194 1759 
z
M 3341 1997 
L 3341 0 
L 2766 0 
L 2766 531 
Q 2569 213 2275 61 
Q 1981 -91 1556 -91 
Q 1019 -91 701 211 
Q 384 513 384 1019 
Q 384 1609 779 1909 
Q 1175 2209 1959 2209 
L 2766 2209 
L 2766 2266 
Q 2766 2663 2505 2880 
Q 2244 3097 1772 3097 
Q 1472 3097 1187 3025 
Q 903 2953 641 2809 
L 641 3341 
Q 956 3463 1253 3523 
Q 1550 3584 1831 3584 
Q 2591 3584 2966 3190 
Q 3341 2797 3341 1997 
z
" transform="scale(0.015625)"/>
        <path id="DejaVuSans-72" d="M 2631 2963 
Q 2534 3019 2420 3045 
Q 2306 3072 2169 3072 
Q 1681 3072 1420 2755 
Q 1159 2438 1159 1844 
L 1159 0 
L 581 0 
L 581 3500 
L 1159 3500 
L 1159 2956 
Q 1341 3275 1631 3429 
Q 1922 3584 2338 3584 
Q 2397 3584 2469 3576 
Q 2541 3569 2628 3553 
L 2631 2963 
z
" transform="scale(0.015625)"/>
       </defs>
       <use xlink:href="#DejaVuSans-65"/>
       <use xlink:href="#DejaVuSans-61" x="61.523438"/>
       <use xlink:href="#DejaVuSans-72" x="122.802734"/>
       <use xlink:href="#DejaVuSans-5f" x="163.916016"/>
       <use xlink:href="#DejaVuSans-6f" x="213.916016"/>
       <use xlink:href="#DejaVuSans-70" x="275.097656"/>
       <use xlink:href="#DejaVuSans-65" x="338.574219"/>
       <use xlink:href="#DejaVuSans-6e" x="400.097656"/>
       <use xlink:href="#DejaVuSans-69" x="463.476562"/>
       <use xlink:href="#DejaVuSans-6e" x="491.259766"/>
       <use xlink:href="#DejaVuSans-67" x="554.638672"/>
      </g>
     </g>
    </g>
    <g id="xtick_3">
     <g id="line2d_3">
      <path d="M 144.386406 176.04 
L 100.926406 100.765072 
" clip-path="url(#p8b891a02a4)" style="fill: none; stroke: #b0b0b0; stroke-width: 0.8; stroke-linecap: square"/>
     </g>
     <g id="text_3">
      <!-- ear_position -->
      <g transform="translate(63.425625 91.261029) scale(0.1 -0.1)">
       <defs>
        <path id="DejaVuSans-73" d="M 2834 3397 
L 2834 2853 
Q 2591 2978 2328 3040 
Q 2066 3103 1784 3103 
Q 1356 3103 1142 2972 
Q 928 2841 928 2578 
Q 928 2378 1081 2264 
Q 1234 2150 1697 2047 
L 1894 2003 
Q 2506 1872 2764 1633 
Q 3022 1394 3022 966 
Q 3022 478 2636 193 
Q 2250 -91 1575 -91 
Q 1294 -91 989 -36 
Q 684 19 347 128 
L 347 722 
Q 666 556 975 473 
Q 1284 391 1588 391 
Q 1994 391 2212 530 
Q 2431 669 2431 922 
Q 2431 1156 2273 1281 
Q 2116 1406 1581 1522 
L 1381 1569 
Q 847 1681 609 1914 
Q 372 2147 372 2553 
Q 372 3047 722 3315 
Q 1072 3584 1716 3584 
Q 2034 3584 2315 3537 
Q 2597 3491 2834 3397 
z
" transform="scale(0.015625)"/>
        <path id="DejaVuSans-74" d="M 1172 4494 
L 1172 3500 
L 2356 3500 
L 2356 3053 
L 1172 3053 
L 1172 1153 
Q 1172 725 1289 603 
Q 1406 481 1766 481 
L 2356 481 
L 2356 0 
L 1766 0 
Q 1100 0 847 248 
Q 594 497 594 1153 
L 594 3053 
L 172 3053 
L 172 3500 
L 594 3500 
L 594 4494 
L 1172 4494 
z
" transform="scale(0.015625)"/>
       </defs>
       <use xlink:href="#DejaVuSans-65"/>
       <use xlink:href="#DejaVuSans-61" x="61.523438"/>
       <use xlink:href="#DejaVuSans-72" x="122.802734"/>
       <use xlink:href="#DejaVuSans-5f" x="163.916016"/>
       <use xlink:href="#DejaVuSans-70" x="213.916016"/>
       <use xlink:href="#DejaVuSans-6f" x="277.392578"/>
       <use xlink:href="#DejaVuSans-73" x="338.574219"/>
       <use xlink:href="#DejaVuSans-69" x="390.673828"/>
       <use xlink:href="#DejaVuSans-74" x="418.457031"/>
       <use xlink:href="#DejaVuSans-69" x="457.666016"/>
       <use xlink:href="#DejaVuSans-6f" x="485.449219"/>
       <use xlink:href="#DejaVuSans-6e" x="546.630859"/>
      </g>
     </g>
    </g>
    <g id="xtick_4">
     <g id="line2d_4">
      <path d="M 144.386406 176.04 
L 57.466406 176.04 
" clip-path="url(#p8b891a02a4)" style="fill: none; stroke: #b0b0b0; stroke-width: 0.8; stroke-linecap: square"/>
     </g>
     <g id="text_4">
      <!-- snout_position -->
      <g transform="translate(7.2 178.660313) scale(0.1 -0.1)">
       <defs>
        <path id="DejaVuSans-75" d="M 544 1381 
L 544 3500 
L 1119 3500 
L 1119 1403 
Q 1119 906 1312 657 
Q 1506 409 1894 409 
Q 2359 409 2629 706 
Q 2900 1003 2900 1516 
L 2900 3500 
L 3475 3500 
L 3475 0 
L 2900 0 
L 2900 538 
Q 2691 219 2414 64 
Q 2138 -91 1772 -91 
Q 1169 -91 856 284 
Q 544 659 544 1381 
z
M 1991 3584 
L 1991 3584 
z
" transform="scale(0.015625)"/>
       </defs>
       <use xlink:href="#DejaVuSans-73"/>
       <use xlink:href="#DejaVuSans-6e" x="52.099609"/>
       <use xlink:href="#DejaVuSans-6f" x="115.478516"/>
       <use xlink:href="#DejaVuSans-75" x="176.660156"/>
       <use xlink:href="#DejaVuSans-74" x="240.039062"/>
       <use xlink:href="#DejaVuSans-5f" x="279.248047"/>
       <use xlink:href="#DejaVuSans-70" x="329.248047"/>
       <use xlink:href="#DejaVuSans-6f" x="392.724609"/>
       <use xlink:href="#DejaVuSans-73" x="453.90625"/>
       <use xlink:href="#DejaVuSans-69" x="506.005859"/>
       <use xlink:href="#DejaVuSans-74" x="533.789062"/>
       <use xlink:href="#DejaVuSans-69" x="572.998047"/>
       <use xlink:href="#DejaVuSans-6f" x="600.78125"/>
       <use xlink:href="#DejaVuSans-6e" x="661.962891"/>
      </g>
     </g>
    </g>
    <g id="xtick_5">
     <g id="line2d_5">
      <path d="M 144.386406 176.04 
L 100.926406 251.314928 
" clip-path="url(#p8b891a02a4)" style="fill: none; stroke: #b0b0b0; stroke-width: 0.8; stroke-linecap: square"/>
     </g>
     <g id="text_5">
      <!-- mouth_position -->
      <g transform="translate(55.394375 266.059596) scale(0.1 -0.1)">
       <defs>
        <path id="DejaVuSans-6d" d="M 3328 2828 
Q 3544 3216 3844 3400 
Q 4144 3584 4550 3584 
Q 5097 3584 5394 3201 
Q 5691 2819 5691 2113 
L 5691 0 
L 5113 0 
L 5113 2094 
Q 5113 2597 4934 2840 
Q 4756 3084 4391 3084 
Q 3944 3084 3684 2787 
Q 3425 2491 3425 1978 
L 3425 0 
L 2847 0 
L 2847 2094 
Q 2847 2600 2669 2842 
Q 2491 3084 2119 3084 
Q 1678 3084 1418 2786 
Q 1159 2488 1159 1978 
L 1159 0 
L 581 0 
L 581 3500 
L 1159 3500 
L 1159 2956 
Q 1356 3278 1631 3431 
Q 1906 3584 2284 3584 
Q 2666 3584 2933 3390 
Q 3200 3197 3328 2828 
z
" transform="scale(0.015625)"/>
        <path id="DejaVuSans-68" d="M 3513 2113 
L 3513 0 
L 2938 0 
L 2938 2094 
Q 2938 2591 2744 2837 
Q 2550 3084 2163 3084 
Q 1697 3084 1428 2787 
Q 1159 2491 1159 1978 
L 1159 0 
L 581 0 
L 581 4863 
L 1159 4863 
L 1159 2956 
Q 1366 3272 1645 3428 
Q 1925 3584 2291 3584 
Q 2894 3584 3203 3211 
Q 3513 2838 3513 2113 
z
" transform="scale(0.015625)"/>
       </defs>
       <use xlink:href="#DejaVuSans-6d"/>
       <use xlink:href="#DejaVuSans-6f" x="97.412109"/>
       <use xlink:href="#DejaVuSans-75" x="158.59375"/>
       <use xlink:href="#DejaVuSans-74" x="221.972656"/>
       <use xlink:href="#DejaVuSans-68" x="261.181641"/>
       <use xlink:href="#DejaVuSans-5f" x="324.560547"/>
       <use xlink:href="#DejaVuSans-70" x="374.560547"/>
       <use xlink:href="#DejaVuSans-6f" x="438.037109"/>
       <use xlink:href="#DejaVuSans-73" x="499.21875"/>
       <use xlink:href="#DejaVuSans-69" x="551.318359"/>
       <use xlink:href="#DejaVuSans-74" x="579.101562"/>
       <use xlink:href="#DejaVuSans-69" x="618.310547"/>
       <use xlink:href="#DejaVuSans-6f" x="646.09375"/>
       <use xlink:href="#DejaVuSans-6e" x="707.275391"/>
      </g>
     </g>
    </g>
    <g id="xtick_6">
     <g id="line2d_6">
      <path d="M 144.386406 176.04 
L 187.846406 251.314928 
" clip-path="url(#p8b891a02a4)" style="fill: none; stroke: #b0b0b0; stroke-width: 0.8; stroke-linecap: square"/>
     </g>
     <g id="text_6">
      <!-- face_inclination -->
      <g transform="translate(155.801094 266.059596) scale(0.1 -0.1)">
       <defs>
        <path id="DejaVuSans-66" d="M 2375 4863 
L 2375 4384 
L 1825 4384 
Q 1516 4384 1395 4259 
Q 1275 4134 1275 3809 
L 1275 3500 
L 2222 3500 
L 2222 3053 
L 1275 3053 
L 1275 0 
L 697 0 
L 697 3053 
L 147 3053 
L 147 3500 
L 697 3500 
L 697 3744 
Q 697 4328 969 4595 
Q 1241 4863 1831 4863 
L 2375 4863 
z
" transform="scale(0.015625)"/>
        <path id="DejaVuSans-63" d="M 3122 3366 
L 3122 2828 
Q 2878 2963 2633 3030 
Q 2388 3097 2138 3097 
Q 1578 3097 1268 2742 
Q 959 2388 959 1747 
Q 959 1106 1268 751 
Q 1578 397 2138 397 
Q 2388 397 2633 464 
Q 2878 531 3122 666 
L 3122 134 
Q 2881 22 2623 -34 
Q 2366 -91 2075 -91 
Q 1284 -91 818 406 
Q 353 903 353 1747 
Q 353 2603 823 3093 
Q 1294 3584 2113 3584 
Q 2378 3584 2631 3529 
Q 2884 3475 3122 3366 
z
" transform="scale(0.015625)"/>
        <path id="DejaVuSans-6c" d="M 603 4863 
L 1178 4863 
L 1178 0 
L 603 0 
L 603 4863 
z
" transform="scale(0.015625)"/>
       </defs>
       <use xlink:href="#DejaVuSans-66"/>
       <use xlink:href="#DejaVuSans-61" x="35.205078"/>
       <use xlink:href="#DejaVuSans-63" x="96.484375"/>
       <use xlink:href="#DejaVuSans-65" x="151.464844"/>
       <use xlink:href="#DejaVuSans-5f" x="212.988281"/>
       <use xlink:href="#DejaVuSans-69" x="262.988281"/>
       <use xlink:href="#DejaVuSans-6e" x="290.771484"/>
       <use xlink:href="#DejaVuSans-63" x="354.150391"/>
       <use xlink:href="#DejaVuSans-6c" x="409.130859"/>
       <use xlink:href="#DejaVuSans-69" x="436.914062"/>
       <use xlink:href="#DejaVuSans-6e" x="464.697266"/>
       <use xlink:href="#DejaVuSans-61" x="528.076172"/>
       <use xlink:href="#DejaVuSans-74" x="589.355469"/>
       <use xlink:href="#DejaVuSans-69" x="628.564453"/>
       <use xlink:href="#DejaVuSans-6f" x="656.347656"/>
       <use xlink:href="#DejaVuSans-6e" x="717.529297"/>
      </g>
     </g>
    </g>
   </g>
   <g id="matplotlib.axis_2">
    <g id="ytick_1">
     <g id="line2d_7">
      <path d="M 152.383658 176.04 
C 152.383658 174.98981 152.176794 173.949833 151.774904 172.979584 
C 151.373014 172.009336 150.783913 171.127685 150.041317 170.385089 
C 149.298721 169.642493 148.417071 169.053393 147.446822 168.651503 
C 146.476574 168.249612 145.436596 168.042748 144.386406 168.042748 
C 143.336217 168.042748 142.296239 168.249612 141.32599 168.651503 
C 140.355742 169.053393 139.474091 169.642493 138.731495 170.385089 
C 137.988899 171.127685 137.399799 172.009336 136.997909 172.979584 
C 136.596019 173.949833 136.389154 174.98981 136.389154 176.04 
C 136.389154 177.09019 136.596019 178.130167 136.997909 179.100416 
C 137.399799 180.070664 137.988899 180.952315 138.731495 181.694911 
C 139.474091 182.437507 140.355742 183.026607 141.32599 183.428497 
C 142.296239 183.830388 143.336217 184.037252 144.386406 184.037252 
C 145.436596 184.037252 146.476574 183.830388 147.446822 183.428497 
C 148.417071 183.026607 149.298721 182.437507 150.041317 181.694911 
C 150.783913 180.952315 151.373014 180.070664 151.774904 179.100416 
C 152.176794 178.130167 152.383658 177.09019 152.383658 176.04 
" clip-path="url(#p8b891a02a4)" style="fill: none; stroke: #b0b0b0; stroke-width: 0.8; stroke-linecap: square"/>
     </g>
     <g id="text_7">
      <!-- −2.0 -->
      <g transform="translate(151.774904 170.899897) scale(0.1 -0.1)">
       <defs>
        <path id="DejaVuSans-2212" d="M 678 2272 
L 4684 2272 
L 4684 1741 
L 678 1741 
L 678 2272 
z
" transform="scale(0.015625)"/>
        <path id="DejaVuSans-32" d="M 1228 531 
L 3431 531 
L 3431 0 
L 469 0 
L 469 531 
Q 828 903 1448 1529 
Q 2069 2156 2228 2338 
Q 2531 2678 2651 2914 
Q 2772 3150 2772 3378 
Q 2772 3750 2511 3984 
Q 2250 4219 1831 4219 
Q 1534 4219 1204 4116 
Q 875 4013 500 3803 
L 500 4441 
Q 881 4594 1212 4672 
Q 1544 4750 1819 4750 
Q 2544 4750 2975 4387 
Q 3406 4025 3406 3419 
Q 3406 3131 3298 2873 
Q 3191 2616 2906 2266 
Q 2828 2175 2409 1742 
Q 1991 1309 1228 531 
z
" transform="scale(0.015625)"/>
        <path id="DejaVuSans-2e" d="M 684 794 
L 1344 794 
L 1344 0 
L 684 0 
L 684 794 
z
" transform="scale(0.015625)"/>
        <path id="DejaVuSans-30" d="M 2034 4250 
Q 1547 4250 1301 3770 
Q 1056 3291 1056 2328 
Q 1056 1369 1301 889 
Q 1547 409 2034 409 
Q 2525 409 2770 889 
Q 3016 1369 3016 2328 
Q 3016 3291 2770 3770 
Q 2525 4250 2034 4250 
z
M 2034 4750 
Q 2819 4750 3233 4129 
Q 3647 3509 3647 2328 
Q 3647 1150 3233 529 
Q 2819 -91 2034 -91 
Q 1250 -91 836 529 
Q 422 1150 422 2328 
Q 422 3509 836 4129 
Q 1250 4750 2034 4750 
z
" transform="scale(0.015625)"/>
       </defs>
       <use xlink:href="#DejaVuSans-2212"/>
       <use xlink:href="#DejaVuSans-32" x="83.789062"/>
       <use xlink:href="#DejaVuSans-2e" x="147.412109"/>
       <use xlink:href="#DejaVuSans-30" x="179.199219"/>
      </g>
     </g>
    </g>
    <g id="ytick_2">
     <g id="line2d_8">
      <path d="M 163.301871 176.04 
C 163.301871 173.556044 162.812586 171.096241 161.862017 168.801365 
C 160.911448 166.506489 159.518082 164.421169 157.761659 162.664747 
C 156.005237 160.908325 153.919917 159.514958 151.625041 158.56439 
C 149.330165 157.613821 146.870362 157.124536 144.386406 157.124536 
C 141.90245 157.124536 139.442648 157.613821 137.147771 158.56439 
C 134.852895 159.514958 132.767575 160.908325 131.011153 162.664747 
C 129.254731 164.421169 127.861365 166.506489 126.910796 168.801365 
C 125.960227 171.096241 125.470942 173.556044 125.470942 176.04 
C 125.470942 178.523956 125.960227 180.983759 126.910796 183.278635 
C 127.861365 185.573511 129.254731 187.658831 131.011153 189.415253 
C 132.767575 191.171675 134.852895 192.565042 137.147771 193.51561 
C 139.442648 194.466179 141.90245 194.955464 144.386406 194.955464 
C 146.870362 194.955464 149.330165 194.466179 151.625041 193.51561 
C 153.919917 192.565042 156.005237 191.171675 157.761659 189.415253 
C 159.518082 187.658831 160.911448 185.573511 161.862017 183.278635 
C 162.812586 180.983759 163.301871 178.523956 163.301871 176.04 
" clip-path="url(#p8b891a02a4)" style="fill: none; stroke: #b0b0b0; stroke-width: 0.8; stroke-linecap: square"/>
     </g>
     <g id="text_8">
      <!-- −1.5 -->
      <g transform="translate(161.862017 166.721678) scale(0.1 -0.1)">
       <defs>
        <path id="DejaVuSans-31" d="M 794 531 
L 1825 531 
L 1825 4091 
L 703 3866 
L 703 4441 
L 1819 4666 
L 2450 4666 
L 2450 531 
L 3481 531 
L 3481 0 
L 794 0 
L 794 531 
z
" transform="scale(0.015625)"/>
        <path id="DejaVuSans-35" d="M 691 4666 
L 3169 4666 
L 3169 4134 
L 1269 4134 
L 1269 2991 
Q 1406 3038 1543 3061 
Q 1681 3084 1819 3084 
Q 2600 3084 3056 2656 
Q 3513 2228 3513 1497 
Q 3513 744 3044 326 
Q 2575 -91 1722 -91 
Q 1428 -91 1123 -41 
Q 819 9 494 109 
L 494 744 
Q 775 591 1075 516 
Q 1375 441 1709 441 
Q 2250 441 2565 725 
Q 2881 1009 2881 1497 
Q 2881 1984 2565 2268 
Q 2250 2553 1709 2553 
Q 1456 2553 1204 2497 
Q 953 2441 691 2322 
L 691 4666 
z
" transform="scale(0.015625)"/>
       </defs>
       <use xlink:href="#DejaVuSans-2212"/>
       <use xlink:href="#DejaVuSans-31" x="83.789062"/>
       <use xlink:href="#DejaVuSans-2e" x="147.412109"/>
       <use xlink:href="#DejaVuSans-35" x="179.199219"/>
      </g>
     </g>
    </g>
    <g id="ytick_3">
     <g id="line2d_9">
      <path d="M 174.220083 176.04 
C 174.220083 172.122277 173.448377 168.24265 171.94913 164.623146 
C 170.449882 161.003642 168.25225 157.714653 165.482001 154.944405 
C 162.711753 152.174157 159.422764 149.976524 155.80326 148.477277 
C 152.183756 146.978029 148.304129 146.206323 144.386406 146.206323 
C 140.468684 146.206323 136.589056 146.978029 132.969552 148.477277 
C 129.350049 149.976524 126.061059 152.174157 123.290811 154.944405 
C 120.520563 157.714653 118.32293 161.003642 116.823683 164.623146 
C 115.324435 168.24265 114.552729 172.122277 114.552729 176.04 
C 114.552729 179.957723 115.324435 183.83735 116.823683 187.456854 
C 118.32293 191.076358 120.520563 194.365347 123.290811 197.135595 
C 126.061059 199.905843 129.350049 202.103476 132.969552 203.602723 
C 136.589056 205.101971 140.468684 205.873677 144.386406 205.873677 
C 148.304129 205.873677 152.183756 205.101971 155.80326 203.602723 
C 159.422764 202.103476 162.711753 199.905843 165.482001 197.135595 
C 168.25225 194.365347 170.449882 191.076358 171.94913 187.456854 
C 173.448377 183.83735 174.220083 179.957723 174.220083 176.04 
" clip-path="url(#p8b891a02a4)" style="fill: none; stroke: #b0b0b0; stroke-width: 0.8; stroke-linecap: square"/>
     </g>
     <g id="text_9">
      <!-- −1.0 -->
      <g transform="translate(171.94913 162.543459) scale(0.1 -0.1)">
       <use xlink:href="#DejaVuSans-2212"/>
       <use xlink:href="#DejaVuSans-31" x="83.789062"/>
       <use xlink:href="#DejaVuSans-2e" x="147.412109"/>
       <use xlink:href="#DejaVuSans-30" x="179.199219"/>
      </g>
     </g>
    </g>
    <g id="ytick_4">
     <g id="line2d_10">
      <path d="M 185.138296 176.04 
C 185.138296 170.688511 184.084169 165.389058 182.036243 160.444927 
C 179.988316 155.500796 176.986418 151.008137 173.202344 147.224063 
C 169.418269 143.439989 164.92561 140.43809 159.981479 138.390164 
C 155.037348 136.342237 149.737895 135.288111 144.386406 135.288111 
C 139.034917 135.288111 133.735465 136.342237 128.791333 138.390164 
C 123.847202 140.43809 119.354543 143.439989 115.570469 147.224063 
C 111.786395 151.008137 108.784496 155.500796 106.73657 160.444927 
C 104.688644 165.389058 103.634517 170.688511 103.634517 176.04 
C 103.634517 181.391489 104.688644 186.690942 106.73657 191.635073 
C 108.784496 196.579204 111.786395 201.071863 115.570469 204.855937 
C 119.354543 208.640011 123.847202 211.64191 128.791333 213.689836 
C 133.735465 215.737763 139.034917 216.791889 144.386406 216.791889 
C 149.737895 216.791889 155.037348 215.737763 159.981479 213.689836 
C 164.92561 211.64191 169.418269 208.640011 173.202344 204.855937 
C 176.986418 201.071863 179.988316 196.579204 182.036243 191.635073 
C 184.084169 186.690942 185.138296 181.391489 185.138296 176.04 
" clip-path="url(#p8b891a02a4)" style="fill: none; stroke: #b0b0b0; stroke-width: 0.8; stroke-linecap: square"/>
     </g>
     <g id="text_10">
      <!-- −0.5 -->
      <g transform="translate(182.036243 158.36524) scale(0.1 -0.1)">
       <use xlink:href="#DejaVuSans-2212"/>
       <use xlink:href="#DejaVuSans-30" x="83.789062"/>
       <use xlink:href="#DejaVuSans-2e" x="147.412109"/>
       <use xlink:href="#DejaVuSans-35" x="179.199219"/>
      </g>
     </g>
    </g>
    <g id="ytick_5">
     <g id="line2d_11">
      <path d="M 196.056508 176.04 
C 196.056508 169.254744 194.719961 162.535467 192.123356 156.266708 
C 189.526751 149.997949 185.720586 144.301621 180.922686 139.503721 
C 176.124785 134.70582 170.428457 130.899655 164.159698 128.303051 
C 157.890939 125.706446 151.171662 124.369898 144.386406 124.369898 
C 137.601151 124.369898 130.881873 125.706446 124.613114 128.303051 
C 118.344356 130.899655 112.648027 134.70582 107.850127 139.503721 
C 103.052227 144.301621 99.246062 149.997949 96.649457 156.266708 
C 94.052852 162.535467 92.716304 169.254744 92.716304 176.04 
C 92.716304 182.825256 94.052852 189.544533 96.649457 195.813292 
C 99.246062 202.082051 103.052227 207.778379 107.850127 212.576279 
C 112.648027 217.37418 118.344356 221.180345 124.613114 223.776949 
C 130.881873 226.373554 137.601151 227.710102 144.386406 227.710102 
C 151.171662 227.710102 157.890939 226.373554 164.159698 223.776949 
C 170.428457 221.180345 176.124785 217.37418 180.922686 212.576279 
C 185.720586 207.778379 189.526751 202.082051 192.123356 195.813292 
C 194.719961 189.544533 196.056508 182.825256 196.056508 176.04 
" clip-path="url(#p8b891a02a4)" style="fill: none; stroke: #b0b0b0; stroke-width: 0.8; stroke-linecap: square"/>
     </g>
     <g id="text_11">
      <!-- 0.0 -->
      <g transform="translate(192.123356 154.187021) scale(0.1 -0.1)">
       <use xlink:href="#DejaVuSans-30"/>
       <use xlink:href="#DejaVuSans-2e" x="63.623047"/>
       <use xlink:href="#DejaVuSans-30" x="95.410156"/>
      </g>
     </g>
    </g>
    <g id="ytick_6">
     <g id="line2d_12">
      <path d="M 206.97472 176.04 
C 206.97472 167.820978 205.355752 159.681875 202.210469 152.088489 
C 199.065185 144.495103 194.454754 137.595105 188.643028 131.783379 
C 182.831301 125.971652 175.931303 121.361221 168.337917 118.215938 
C 160.744531 115.070654 152.605428 113.451686 144.386406 113.451686 
C 136.167384 113.451686 128.028282 115.070654 120.434895 118.215938 
C 112.841509 121.361221 105.941511 125.971652 100.129785 131.783379 
C 94.318059 137.595105 89.707627 144.495103 86.562344 152.088489 
C 83.41706 159.681875 81.798092 167.820978 81.798092 176.04 
C 81.798092 184.259022 83.41706 192.398125 86.562344 199.991511 
C 89.707627 207.584897 94.318059 214.484895 100.129785 220.296621 
C 105.941511 226.108348 112.841509 230.718779 120.434895 233.864062 
C 128.028282 237.009346 136.167384 238.628314 144.386406 238.628314 
C 152.605428 238.628314 160.744531 237.009346 168.337917 233.864062 
C 175.931303 230.718779 182.831301 226.108348 188.643028 220.296621 
C 194.454754 214.484895 199.065185 207.584897 202.210469 199.991511 
C 205.355752 192.398125 206.97472 184.259022 206.97472 176.04 
" clip-path="url(#p8b891a02a4)" style="fill: none; stroke: #b0b0b0; stroke-width: 0.8; stroke-linecap: square"/>
     </g>
     <g id="text_12">
      <!-- 0.5 -->
      <g transform="translate(202.210469 150.008802) scale(0.1 -0.1)">
       <use xlink:href="#DejaVuSans-30"/>
       <use xlink:href="#DejaVuSans-2e" x="63.623047"/>
       <use xlink:href="#DejaVuSans-35" x="95.410156"/>
      </g>
     </g>
    </g>
    <g id="ytick_7">
     <g id="line2d_13">
      <path d="M 217.892933 176.04 
C 217.892933 166.387211 215.991544 156.828284 212.297582 147.91027 
C 208.603619 138.992256 203.188922 130.888589 196.36337 124.063037 
C 189.537817 117.237484 181.43415 111.822787 172.516136 108.128825 
C 163.598122 104.434862 154.039195 102.533473 144.386406 102.533473 
C 134.733618 102.533473 125.17469 104.434862 116.256676 108.128825 
C 107.338662 111.822787 99.234995 117.237484 92.409443 124.063037 
C 85.583891 130.888589 80.169193 138.992256 76.475231 147.91027 
C 72.781268 156.828284 70.87988 166.387211 70.87988 176.04 
C 70.87988 185.692789 72.781268 195.251716 76.475231 204.16973 
C 80.169193 213.087744 85.583891 221.191411 92.409443 228.016963 
C 99.234995 234.842516 107.338662 240.257213 116.256676 243.951175 
C 125.17469 247.645138 134.733618 249.546527 144.386406 249.546527 
C 154.039195 249.546527 163.598122 247.645138 172.516136 243.951175 
C 181.43415 240.257213 189.537817 234.842516 196.36337 228.016963 
C 203.188922 221.191411 208.603619 213.087744 212.297582 204.16973 
C 215.991544 195.251716 217.892933 185.692789 217.892933 176.04 
" clip-path="url(#p8b891a02a4)" style="fill: none; stroke: #b0b0b0; stroke-width: 0.8; stroke-linecap: square"/>
     </g>
     <g id="text_13">
      <!-- 1.0 -->
      <g transform="translate(212.297582 145.830583) scale(0.1 -0.1)">
       <use xlink:href="#DejaVuSans-31"/>
       <use xlink:href="#DejaVuSans-2e" x="63.623047"/>
       <use xlink:href="#DejaVuSans-30" x="95.410156"/>
      </g>
     </g>
    </g>
    <g id="ytick_8">
     <g id="line2d_14">
      <path d="M 228.811145 176.04 
C 228.811145 164.953445 226.627336 153.974692 222.384695 143.732051 
C 218.142054 133.48941 211.92309 124.182073 204.083712 116.342694 
C 196.244333 108.503316 186.936997 102.284353 176.694355 98.041712 
C 166.451714 93.799071 155.472961 91.615261 144.386406 91.615261 
C 133.299851 91.615261 122.321099 93.799071 112.078457 98.041712 
C 101.835816 102.284353 92.528479 108.503316 84.689101 116.342694 
C 76.849722 124.182073 70.630759 133.48941 66.388118 143.732051 
C 62.145477 153.974692 59.961667 164.953445 59.961667 176.04 
C 59.961667 187.126555 62.145477 198.105308 66.388118 208.347949 
C 70.630759 218.59059 76.849722 227.897927 84.689101 235.737306 
C 92.528479 243.576684 101.835816 249.795647 112.078457 254.038288 
C 122.321099 258.280929 133.299851 260.464739 144.386406 260.464739 
C 155.472961 260.464739 166.451714 258.280929 176.694355 254.038288 
C 186.936997 249.795647 196.244333 243.576684 204.083712 235.737306 
C 211.92309 227.897927 218.142054 218.59059 222.384695 208.347949 
C 226.627336 198.105308 228.811145 187.126555 228.811145 176.04 
" clip-path="url(#p8b891a02a4)" style="fill: none; stroke: #b0b0b0; stroke-width: 0.8; stroke-linecap: square"/>
     </g>
     <g id="text_14">
      <!-- 1.5 -->
      <g transform="translate(222.384695 141.652364) scale(0.1 -0.1)">
       <use xlink:href="#DejaVuSans-31"/>
       <use xlink:href="#DejaVuSans-2e" x="63.623047"/>
       <use xlink:href="#DejaVuSans-35" x="95.410156"/>
      </g>
     </g>
    </g>
   </g>
   <g id="line2d_15">
    <path d="M 169.730039 176.04 
L 179.481828 115.252947 
L 109.825052 116.177978 
L 91.156572 176.04 
L 126.327362 207.319183 
L 155.971445 196.105876 
L 169.730039 176.04 
" clip-path="url(#p8b891a02a4)" style="fill: none; stroke: #f1605d; stroke-width: 2; stroke-linecap: square"/>
   </g>
   <g id="line2d_16">
    <path d="M 159.082941 176.04 
L 178.795698 116.441358 
L 108.105497 113.199623 
L 90.070336 176.04 
L 124.749397 210.052297 
L 152.502903 190.098185 
L 159.082941 176.04 
" clip-path="url(#p8b891a02a4)" style="fill: none; stroke: #440f76; stroke-width: 2; stroke-linecap: square"/>
   </g>
   <g id="line2d_17">
    <path d="M 149.21753 176.04 
L 176.862271 119.790152 
L 103.088023 104.509102 
L 84.7824 176.04 
L 124.772795 210.011772 
L 157.458053 198.680756 
L 149.21753 176.04 
" clip-path="url(#p8b891a02a4)" style="fill: none; stroke: #feca8d; stroke-width: 2; stroke-linecap: square"/>
   </g>
   <g id="patch_3">
    <path d="M 231.306406 176.04 
C 231.306406 164.62577 229.058052 153.322529 224.690015 142.777156 
C 220.321979 132.231783 213.919207 122.649358 205.848128 114.578279 
C 197.777048 106.507199 188.194623 100.104428 177.64925 95.736391 
C 167.103877 91.368354 155.800636 89.12 144.386406 89.12 
C 132.972176 89.12 121.668936 91.368354 111.123562 95.736391 
C 100.578189 100.104428 90.995764 106.507199 82.924685 114.578279 
C 74.853606 122.649358 68.450834 132.231783 64.082797 142.777156 
C 59.714761 153.322529 57.466406 164.62577 57.466406 176.04 
C 57.466406 187.45423 59.714761 198.757471 64.082797 209.302844 
C 68.450834 219.848217 74.853606 229.430642 82.924685 237.501721 
C 90.995764 245.572801 100.578189 251.975572 111.123562 256.343609 
C 121.668936 260.711646 132.972176 262.96 144.386406 262.96 
C 155.800636 262.96 167.103877 260.711646 177.64925 256.343609 
C 188.194623 251.975572 197.777048 245.572801 205.848128 237.501721 
C 213.919207 229.430642 220.321979 219.848217 224.690015 209.302844 
C 229.058052 198.757471 231.306406 187.45423 231.306406 176.04 
" style="fill: none; stroke: #000000; stroke-width: 0.8; stroke-linejoin: miter; stroke-linecap: square"/>
   </g>
   <g id="text_15">
    <!-- airpuf -->
    <g transform="translate(126.852344 77.662591) scale(0.12 -0.12)">
     <use xlink:href="#DejaVuSans-61"/>
     <use xlink:href="#DejaVuSans-69" x="61.279297"/>
     <use xlink:href="#DejaVuSans-72" x="89.0625"/>
     <use xlink:href="#DejaVuSans-70" x="130.175781"/>
     <use xlink:href="#DejaVuSans-75" x="193.652344"/>
     <use xlink:href="#DejaVuSans-66" x="257.03125"/>
    </g>
   </g>
   <g id="legend_1">
    <g id="patch_4">
     <path d="M 182.109969 54.234375 
L 276.458406 54.234375 
Q 278.458406 54.234375 278.458406 52.234375 
L 278.458406 9.2 
Q 278.458406 7.2 276.458406 7.2 
L 182.109969 7.2 
Q 180.109969 7.2 180.109969 9.2 
L 180.109969 52.234375 
Q 180.109969 54.234375 182.109969 54.234375 
z
" style="fill: #ffffff; opacity: 0.8; stroke: #cccccc; stroke-linejoin: miter"/>
    </g>
    <g id="line2d_18">
     <path d="M 184.109969 15.298438 
L 194.109969 15.298438 
L 204.109969 15.298438 
" style="fill: none; stroke: #f1605d; stroke-width: 2; stroke-linecap: square"/>
    </g>
    <g id="text_16">
     <!-- 1st week -->
     <g transform="translate(212.109969 18.798438) scale(0.1 -0.1)">
      <defs>
       <path id="DejaVuSans-20" transform="scale(0.015625)"/>
       <path id="DejaVuSans-77" d="M 269 3500 
L 844 3500 
L 1563 769 
L 2278 3500 
L 2956 3500 
L 3675 769 
L 4391 3500 
L 4966 3500 
L 4050 0 
L 3372 0 
L 2619 2869 
L 1863 0 
L 1184 0 
L 269 3500 
z
" transform="scale(0.015625)"/>
       <path id="DejaVuSans-6b" d="M 581 4863 
L 1159 4863 
L 1159 1991 
L 2875 3500 
L 3609 3500 
L 1753 1863 
L 3688 0 
L 2938 0 
L 1159 1709 
L 1159 0 
L 581 0 
L 581 4863 
z
" transform="scale(0.015625)"/>
      </defs>
      <use xlink:href="#DejaVuSans-31"/>
      <use xlink:href="#DejaVuSans-73" x="63.623047"/>
      <use xlink:href="#DejaVuSans-74" x="115.722656"/>
      <use xlink:href="#DejaVuSans-20" x="154.931641"/>
      <use xlink:href="#DejaVuSans-77" x="186.71875"/>
      <use xlink:href="#DejaVuSans-65" x="268.505859"/>
      <use xlink:href="#DejaVuSans-65" x="330.029297"/>
      <use xlink:href="#DejaVuSans-6b" x="391.552734"/>
     </g>
    </g>
    <g id="line2d_19">
     <path d="M 184.109969 29.976563 
L 194.109969 29.976563 
L 204.109969 29.976563 
" style="fill: none; stroke: #440f76; stroke-width: 2; stroke-linecap: square"/>
    </g>
    <g id="text_17">
     <!-- 2nd week -->
     <g transform="translate(212.109969 33.476563) scale(0.1 -0.1)">
      <defs>
       <path id="DejaVuSans-64" d="M 2906 2969 
L 2906 4863 
L 3481 4863 
L 3481 0 
L 2906 0 
L 2906 525 
Q 2725 213 2448 61 
Q 2172 -91 1784 -91 
Q 1150 -91 751 415 
Q 353 922 353 1747 
Q 353 2572 751 3078 
Q 1150 3584 1784 3584 
Q 2172 3584 2448 3432 
Q 2725 3281 2906 2969 
z
M 947 1747 
Q 947 1113 1208 752 
Q 1469 391 1925 391 
Q 2381 391 2643 752 
Q 2906 1113 2906 1747 
Q 2906 2381 2643 2742 
Q 2381 3103 1925 3103 
Q 1469 3103 1208 2742 
Q 947 2381 947 1747 
z
" transform="scale(0.015625)"/>
      </defs>
      <use xlink:href="#DejaVuSans-32"/>
      <use xlink:href="#DejaVuSans-6e" x="63.623047"/>
      <use xlink:href="#DejaVuSans-64" x="127.001953"/>
      <use xlink:href="#DejaVuSans-20" x="190.478516"/>
      <use xlink:href="#DejaVuSans-77" x="222.265625"/>
      <use xlink:href="#DejaVuSans-65" x="304.052734"/>
      <use xlink:href="#DejaVuSans-65" x="365.576172"/>
      <use xlink:href="#DejaVuSans-6b" x="427.099609"/>
     </g>
    </g>
    <g id="line2d_20">
     <path d="M 184.109969 44.654688 
L 194.109969 44.654688 
L 204.109969 44.654688 
" style="fill: none; stroke: #feca8d; stroke-width: 2; stroke-linecap: square"/>
    </g>
    <g id="text_18">
     <!-- Preinduction -->
     <g transform="translate(212.109969 48.154688) scale(0.1 -0.1)">
      <defs>
       <path id="DejaVuSans-50" d="M 1259 4147 
L 1259 2394 
L 2053 2394 
Q 2494 2394 2734 2622 
Q 2975 2850 2975 3272 
Q 2975 3691 2734 3919 
Q 2494 4147 2053 4147 
L 1259 4147 
z
M 628 4666 
L 2053 4666 
Q 2838 4666 3239 4311 
Q 3641 3956 3641 3272 
Q 3641 2581 3239 2228 
Q 2838 1875 2053 1875 
L 1259 1875 
L 1259 0 
L 628 0 
L 628 4666 
z
" transform="scale(0.015625)"/>
      </defs>
      <use xlink:href="#DejaVuSans-50"/>
      <use xlink:href="#DejaVuSans-72" x="58.552734"/>
      <use xlink:href="#DejaVuSans-65" x="97.416016"/>
      <use xlink:href="#DejaVuSans-69" x="158.939453"/>
      <use xlink:href="#DejaVuSans-6e" x="186.722656"/>
      <use xlink:href="#DejaVuSans-64" x="250.101562"/>
      <use xlink:href="#DejaVuSans-75" x="313.578125"/>
      <use xlink:href="#DejaVuSans-63" x="376.957031"/>
      <use xlink:href="#DejaVuSans-74" x="431.9375"/>
      <use xlink:href="#DejaVuSans-69" x="471.146484"/>
      <use xlink:href="#DejaVuSans-6f" x="498.929688"/>
      <use xlink:href="#DejaVuSans-6e" x="560.111328"/>
     </g>
    </g>
   </g>
  </g>
  <g id="text_19">
   <!-- TDP43 - airpuf -->
   <g transform="translate(86.603906 288.956875) scale(0.2 -0.2)">
    <defs>
     <path id="DejaVuSans-54" d="M -19 4666 
L 3928 4666 
L 3928 4134 
L 2272 4134 
L 2272 0 
L 1638 0 
L 1638 4134 
L -19 4134 
L -19 4666 
z
" transform="scale(0.015625)"/>
     <path id="DejaVuSans-44" d="M 1259 4147 
L 1259 519 
L 2022 519 
Q 2988 519 3436 956 
Q 3884 1394 3884 2338 
Q 3884 3275 3436 3711 
Q 2988 4147 2022 4147 
L 1259 4147 
z
M 628 4666 
L 1925 4666 
Q 3281 4666 3915 4102 
Q 4550 3538 4550 2338 
Q 4550 1131 3912 565 
Q 3275 0 1925 0 
L 628 0 
L 628 4666 
z
" transform="scale(0.015625)"/>
     <path id="DejaVuSans-34" d="M 2419 4116 
L 825 1625 
L 2419 1625 
L 2419 4116 
z
M 2253 4666 
L 3047 4666 
L 3047 1625 
L 3713 1625 
L 3713 1100 
L 3047 1100 
L 3047 0 
L 2419 0 
L 2419 1100 
L 313 1100 
L 313 1709 
L 2253 4666 
z
" transform="scale(0.015625)"/>
     <path id="DejaVuSans-33" d="M 2597 2516 
Q 3050 2419 3304 2112 
Q 3559 1806 3559 1356 
Q 3559 666 3084 287 
Q 2609 -91 1734 -91 
Q 1441 -91 1130 -33 
Q 819 25 488 141 
L 488 750 
Q 750 597 1062 519 
Q 1375 441 1716 441 
Q 2309 441 2620 675 
Q 2931 909 2931 1356 
Q 2931 1769 2642 2001 
Q 2353 2234 1838 2234 
L 1294 2234 
L 1294 2753 
L 1863 2753 
Q 2328 2753 2575 2939 
Q 2822 3125 2822 3475 
Q 2822 3834 2567 4026 
Q 2313 4219 1838 4219 
Q 1578 4219 1281 4162 
Q 984 4106 628 3988 
L 628 4550 
Q 988 4650 1302 4700 
Q 1616 4750 1894 4750 
Q 2613 4750 3031 4423 
Q 3450 4097 3450 3541 
Q 3450 3153 3228 2886 
Q 3006 2619 2597 2516 
z
" transform="scale(0.015625)"/>
     <path id="DejaVuSans-2d" d="M 313 2009 
L 1997 2009 
L 1997 1497 
L 313 1497 
L 313 2009 
z
" transform="scale(0.015625)"/>
    </defs>
    <use xlink:href="#DejaVuSans-54"/>
    <use xlink:href="#DejaVuSans-44" x="61.083984"/>
    <use xlink:href="#DejaVuSans-50" x="138.085938"/>
    <use xlink:href="#DejaVuSans-34" x="198.388672"/>
    <use xlink:href="#DejaVuSans-33" x="262.011719"/>
    <use xlink:href="#DejaVuSans-20" x="325.634766"/>
    <use xlink:href="#DejaVuSans-2d" x="357.421875"/>
    <use xlink:href="#DejaVuSans-20" x="393.505859"/>
    <use xlink:href="#DejaVuSans-61" x="425.292969"/>
    <use xlink:href="#DejaVuSans-69" x="486.572266"/>
    <use xlink:href="#DejaVuSans-72" x="514.355469"/>
    <use xlink:href="#DejaVuSans-70" x="555.46875"/>
    <use xlink:href="#DejaVuSans-75" x="618.945312"/>
    <use xlink:href="#DejaVuSans-66" x="682.324219"/>
   </g>
  </g>
 </g>
 <defs>
  <clipPath id="p8b891a02a4">
   <path d="M 231.306406 176.04 
C 231.306406 164.62577 229.058052 153.322529 224.690015 142.777156 
C 220.321979 132.231783 213.919207 122.649358 205.848128 114.578279 
C 197.777048 106.507199 188.194623 100.104428 177.64925 95.736391 
C 167.103877 91.368354 155.800636 89.12 144.386406 89.12 
C 132.972176 89.12 121.668936 91.368354 111.123562 95.736391 
C 100.578189 100.104428 90.995764 106.507199 82.924685 114.578279 
C 74.853606 122.649358 68.450834 132.231783 64.082797 142.777156 
C 59.714761 153.322529 57.466406 164.62577 57.466406 176.04 
C 57.466406 187.45423 59.714761 198.757471 64.082797 209.302844 
C 68.450834 219.848217 74.853606 229.430642 82.924685 237.501721 
C 90.995764 245.572801 100.578189 251.975572 111.123562 256.343609 
C 121.668936 260.711646 132.972176 262.96 144.386406 262.96 
C 155.800636 262.96 167.103877 260.711646 177.64925 256.343609 
C 188.194623 251.975572 197.777048 245.572801 205.848128 237.501721 
C 213.919207 229.430642 220.321979 219.848217 224.690015 209.302844 
C 229.058052 198.757471 231.306406 187.45423 231.306406 176.04 
M 144.386406 176.04 
C 144.386406 176.04 144.386406 176.04 144.386406 176.04 
C 144.386406 176.04 144.386406 176.04 144.386406 176.04 
C 144.386406 176.04 144.386406 176.04 144.386406 176.04 
C 144.386406 176.04 144.386406 176.04 144.386406 176.04 
C 144.386406 176.04 144.386406 176.04 144.386406 176.04 
C 144.386406 176.04 144.386406 176.04 144.386406 176.04 
C 144.386406 176.04 144.386406 176.04 144.386406 176.04 
C 144.386406 176.04 144.386406 176.04 144.386406 176.04 
C 144.386406 176.04 144.386406 176.04 144.386406 176.04 
C 144.386406 176.04 144.386406 176.04 144.386406 176.04 
C 144.386406 176.04 144.386406 176.04 144.386406 176.04 
C 144.386406 176.04 144.386406 176.04 144.386406 176.04 
C 144.386406 176.04 144.386406 176.04 144.386406 176.04 
C 144.386406 176.04 144.386406 176.04 144.386406 176.04 
C 144.386406 176.04 144.386406 176.04 144.386406 176.04 
C 144.386406 176.04 144.386406 176.04 144.386406 176.04 
z
"/>
  </clipPath>
 </defs>
</svg>
