<?xml version="1.0" encoding="utf-8" standalone="no"?>
<!DOCTYPE svg PUBLIC "-//W3C//DTD SVG 1.1//EN"
  "http://www.w3.org/Graphics/SVG/1.1/DTD/svg11.dtd">
<svg xmlns:xlink="http://www.w3.org/1999/xlink" width="285.658406pt" height="300.31625pt" viewBox="0 0 285.658406 300.31625" xmlns="http://www.w3.org/2000/svg" version="1.1">
 <metadata>
  <rdf:RDF xmlns:dc="http://purl.org/dc/elements/1.1/" xmlns:cc="http://creativecommons.org/ns#" xmlns:rdf="http://www.w3.org/1999/02/22-rdf-syntax-ns#">
   <cc:Work>
    <dc:type rdf:resource="http://purl.org/dc/dcmitype/StillImage"/>
    <dc:date>2026-06-29T23:13:55.238740</dc:date>
    <dc:format>image/svg+xml</dc:format>
    <dc:creator>
     <cc:Agent>
      <dc:title>Matplotlib v3.9.2, https://matplotlib.org/</dc:title>
     </cc:Agent>
    </dc:creator>
   </cc:Work>
  </rdf:RDF>
 </metadata>
 <defs>
  <style type="text/css">*{stroke-linejoin: round; stroke-linecap: butt}</style>
 </defs>
 <g id="figure_1">
  <g id="patch_1">
   <path d="M 0 300.31625 
L 285.658406 300.31625 
L 285.658406 0 
L 0 0 
z
" style="fill: #ffffff"/>
  </g>
  <g id="axes_1">
   <g id="patch_2">
    <path d="M 231.306406 176.04 
C 231.306406 164.62577 229.058052 153.322529 224.690015 142.777156 
C 220.321979 132.231783 213.919207 122.649358 205.848128 114.578279 
C 197.777048 106.507199 188.194623 100.104428 177.64925 95.736391 
C 167.103877 91.368354 155.800636 89.12 144.386406 89.12 
C 132.972176 89.12 121.668936 91.368354 111.123562 95.736391 
C 100.578189 100.104428 90.995764 106.507199 82.924685 114.578279 
C 74.853606 122.649358 68.450834 132.231783 64.082797 142.777156 
C 59.714761 153.322529 57.466406 164.62577 57.466406 176.04 
C 57.466406 187.45423 59.714761 198.757471 64.082797 209.302844 
C 68.450834 219.848217 74.853606 229.430642 82.924685 237.501721 
C 90.995764 245.572801 100.578189 251.975572 111.123562 256.343609 
C 121.668936 260.711646 132.972176 262.96 144.386406 262.96 
C 155.800636 262.96 167.103877 260.711646 177.64925 256.343609 
C 188.194623 251.975572 197.777048 245.572801 205.848128 237.501721 
C 213.919207 229.430642 220.321979 219.848217 224.690015 209.302844 
C 229.058052 198.757471 231.306406 187.45423 231.306406 176.04 
M 144.386406 176.04 
C 144.386406 176.04 144.386406 176.04 144.386406 176.04 
C 144.386406 176.04 144.386406 176.04 144.386406 176.04 
C 144.386406 176.04 144.386406 176.04 144.386406 176.04 
C 144.386406 176.04 144.386406 176.04 144.386406 176.04 
C 144.386406 176.04 144.386406 176.04 144.386406 176.04 
C 144.386406 176.04 144.386406 176.04 144.386406 176.04 
C 144.386406 176.04 144.386406 176.04 144.386406 176.04 
C 144.386406 176.04 144.386406 176.04 144.386406 176.04 
C 144.386406 176.04 144.386406 176.04 144.386406 176.04 
C 144.386406 176.04 144.386406 176.04 144.386406 176.04 
C 144.386406 176.04 144.386406 176.04 144.386406 176.04 
C 144.386406 176.04 144.386406 176.04 144.386406 176.04 
C 144.386406 176.04 144.386406 176.04 144.386406 176.04 
C 144.386406 176.04 144.386406 176.04 144.386406 176.04 
C 144.386406 176.04 144.386406 176.04 144.386406 176.04 
C 144.386406 176.04 144.386406 176.04 144.386406 176.04 
z
" style="fill: #ffffff"/>
   </g>
   <g id="PolyCollection_1">
    <defs>
     <path id="m69d7ce6224" d="M 182.300142 -124.27625 
L 182.157668 -124.27625 
L 171.191 -170.703168 
L 117.646852 -170.590517 
L 103.213746 -124.27625 
L 133.689324 -105.748359 
L 150.432212 -113.804607 
L 182.157668 -124.27625 
L 182.300142 -124.27625 
L 182.300142 -124.27625 
L 150.781045 -113.200411 
L 133.336678 -105.13756 
L 102.500848 -124.27625 
L 117.025801 -171.666208 
L 172.459598 -172.900444 
L 182.300142 -124.27625 
z
" style="stroke: #f1605d; stroke-opacity: 0.15"/>
    </defs>
    <g clip-path="url(#p244161eedc)">
     <use xlink:href="#m69d7ce6224" x="0" y="300.31625" style="fill: #f1605d; fill-opacity: 0.15; stroke: #f1605d; stroke-opacity: 0.15"/>
    </g>
   </g>
   <g id="PolyCollection_2">
    <defs>
     <path id="mf933b9576e" d="M 181.592235 -124.27625 
L 181.42347 -124.27625 
L 183.515698 -192.050172 
L 120.737897 -165.23667 
L 103.337486 -124.27625 
L 131.691717 -102.288402 
L 146.361861 -120.854662 
L 181.42347 -124.27625 
L 181.592235 -124.27625 
L 181.592235 -124.27625 
L 146.711397 -120.249248 
L 131.446845 -101.864273 
L 102.19678 -124.27625 
L 119.779359 -166.896906 
L 185.870952 -196.12959 
L 181.592235 -124.27625 
z
" style="stroke: #440f76; stroke-opacity: 0.15"/>
    </defs>
    <g clip-path="url(#p244161eedc)">
     <use xlink:href="#mf933b9576e" x="0" y="300.31625" style="fill: #440f76; fill-opacity: 0.15; stroke: #440f76; stroke-opacity: 0.15"/>
    </g>
   </g>
   <g id="PolyCollection_3">
    <defs>
     <path id="me5182c9a39" d="M 181.219415 -124.27625 
L 181.11239 -124.27625 
L 180.703702 -187.179651 
L 113.59466 -177.609118 
L 95.482982 -124.27625 
L 132.120246 -103.030637 
L 150.711179 -113.321422 
L 181.11239 -124.27625 
L 181.219415 -124.27625 
L 181.219415 -124.27625 
L 151.014077 -112.796788 
L 131.846845 -102.557093 
L 94.950334 -124.27625 
L 112.854184 -178.891662 
L 181.8677 -189.195755 
L 181.219415 -124.27625 
z
" style="stroke: #feca8d; stroke-opacity: 0.15"/>
    </defs>
    <g clip-path="url(#p244161eedc)">
     <use xlink:href="#me5182c9a39" x="0" y="300.31625" style="fill: #feca8d; fill-opacity: 0.15; stroke: #feca8d; stroke-opacity: 0.15"/>
    </g>
   </g>
   <g id="matplotlib.axis_1">
    <g id="xtick_1">
     <g id="line2d_1">
      <path d="M 144.386406 176.04 
L 231.306406 176.04 
" clip-path="url(#p244161eedc)" style="fill: none; stroke: #b0b0b0; stroke-width: 0.8; stroke-linecap: square"/>
     </g>
     <g id="text_1">
      <!-- eye_opening -->
      <g transform="translate(213.482969 178.660313) scale(0.1 -0.1)">
       <defs>
        <path id="DejaVuSans-65" d="M 3597 1894 
L 3597 1613 
L 953 1613 
Q 991 1019 1311 708 
Q 1631 397 2203 397 
Q 2534 397 2845 478 
Q 3156 559 3463 722 
L 3463 178 
Q 3153 47 2828 -22 
Q 2503 -91 2169 -91 
Q 1331 -91 842 396 
Q 353 884 353 1716 
Q 353 2575 817 3079 
Q 1281 3584 2069 3584 
Q 2775 3584 3186 3129 
Q 3597 2675 3597 1894 
z
M 3022 2063 
Q 3016 2534 2758 2815 
Q 2500 3097 2075 3097 
Q 1594 3097 1305 2825 
Q 1016 2553 972 2059 
L 3022 2063 
z
" transform="scale(0.015625)"/>
        <path id="DejaVuSans-79" d="M 2059 -325 
Q 1816 -950 1584 -1140 
Q 1353 -1331 966 -1331 
L 506 -1331 
L 506 -850 
L 844 -850 
Q 1081 -850 1212 -737 
Q 1344 -625 1503 -206 
L 1606 56 
L 191 3500 
L 800 3500 
L 1894 763 
L 2988 3500 
L 3597 3500 
L 2059 -325 
z
" transform="scale(0.015625)"/>
        <path id="DejaVuSans-5f" d="M 3263 -1063 
L 3263 -1509 
L -63 -1509 
L -63 -1063 
L 3263 -1063 
z
" transform="scale(0.015625)"/>
        <path id="DejaVuSans-6f" d="M 1959 3097 
Q 1497 3097 1228 2736 
Q 959 2375 959 1747 
Q 959 1119 1226 758 
Q 1494 397 1959 397 
Q 2419 397 2687 759 
Q 2956 1122 2956 1747 
Q 2956 2369 2687 2733 
Q 2419 3097 1959 3097 
z
M 1959 3584 
Q 2709 3584 3137 3096 
Q 3566 2609 3566 1747 
Q 3566 888 3137 398 
Q 2709 -91 1959 -91 
Q 1206 -91 779 398 
Q 353 888 353 1747 
Q 353 2609 779 3096 
Q 1206 3584 1959 3584 
z
" transform="scale(0.015625)"/>
        <path id="DejaVuSans-70" d="M 1159 525 
L 1159 -1331 
L 581 -1331 
L 581 3500 
L 1159 3500 
L 1159 2969 
Q 1341 3281 1617 3432 
Q 1894 3584 2278 3584 
Q 2916 3584 3314 3078 
Q 3713 2572 3713 1747 
Q 3713 922 3314 415 
Q 2916 -91 2278 -91 
Q 1894 -91 1617 61 
Q 1341 213 1159 525 
z
M 3116 1747 
Q 3116 2381 2855 2742 
Q 2594 3103 2138 3103 
Q 1681 3103 1420 2742 
Q 1159 2381 1159 1747 
Q 1159 1113 1420 752 
Q 1681 391 2138 391 
Q 2594 391 2855 752 
Q 3116 1113 3116 1747 
z
" transform="scale(0.015625)"/>
        <path id="DejaVuSans-6e" d="M 3513 2113 
L 3513 0 
L 2938 0 
L 2938 2094 
Q 2938 2591 2744 2837 
Q 2550 3084 2163 3084 
Q 1697 3084 1428 2787 
Q 1159 2491 1159 1978 
L 1159 0 
L 581 0 
L 581 3500 
L 1159 3500 
L 1159 2956 
Q 1366 3272 1645 3428 
Q 1925 3584 2291 3584 
Q 2894 3584 3203 3211 
Q 3513 2838 3513 2113 
z
" transform="scale(0.015625)"/>
        <path id="DejaVuSans-69" d="M 603 3500 
L 1178 3500 
L 1178 0 
L 603 0 
L 603 3500 
z
M 603 4863 
L 1178 4863 
L 1178 4134 
L 603 4134 
L 603 4863 
z
" transform="scale(0.015625)"/>
        <path id="DejaVuSans-67" d="M 2906 1791 
Q 2906 2416 2648 2759 
Q 2391 3103 1925 3103 
Q 1463 3103 1205 2759 
Q 947 2416 947 1791 
Q 947 1169 1205 825 
Q 1463 481 1925 481 
Q 2391 481 2648 825 
Q 2906 1169 2906 1791 
z
M 3481 434 
Q 3481 -459 3084 -895 
Q 2688 -1331 1869 -1331 
Q 1566 -1331 1297 -1286 
Q 1028 -1241 775 -1147 
L 775 -588 
Q 1028 -725 1275 -790 
Q 1522 -856 1778 -856 
Q 2344 -856 2625 -561 
Q 2906 -266 2906 331 
L 2906 616 
Q 2728 306 2450 153 
Q 2172 0 1784 0 
Q 1141 0 747 490 
Q 353 981 353 1791 
Q 353 2603 747 3093 
Q 1141 3584 1784 3584 
Q 2172 3584 2450 3431 
Q 2728 3278 2906 2969 
L 2906 3500 
L 3481 3500 
L 3481 434 
z
" transform="scale(0.015625)"/>
       </defs>
       <use xlink:href="#DejaVuSans-65"/>
       <use xlink:href="#DejaVuSans-79" x="61.523438"/>
       <use xlink:href="#DejaVuSans-65" x="120.703125"/>
       <use xlink:href="#DejaVuSans-5f" x="182.226562"/>
       <use xlink:href="#DejaVuSans-6f" x="232.226562"/>
       <use xlink:href="#DejaVuSans-70" x="293.408203"/>
       <use xlink:href="#DejaVuSans-65" x="356.884766"/>
       <use xlink:href="#DejaVuSans-6e" x="418.408203"/>
       <use xlink:href="#DejaVuSans-69" x="481.787109"/>
       <use xlink:href="#DejaVuSans-6e" x="509.570312"/>
       <use xlink:href="#DejaVuSans-67" x="572.949219"/>
      </g>
     </g>
    </g>
    <g id="xtick_2">
     <g id="line2d_2">
      <path d="M 144.386406 176.04 
L 187.846406 100.765072 
" clip-path="url(#p244161eedc)" style="fill: none; stroke: #b0b0b0; stroke-width: 0.8; stroke-linecap: square"/>
     </g>
     <g id="text_2">
      <!-- ear_opening -->
      <g transform="translate(163.939375 91.261029) scale(0.1 -0.1)">
       <defs>
        <path id="DejaVuSans-61" d="M 2194 1759 
Q 1497 1759 1228 1600 
Q 959 1441 959 1056 
Q 959 750 1161 570 
Q 1363 391 1709 391 
Q 2188 391 2477 730 
Q 2766 1069 2766 1631 
L 2766 1759 
L 2194 1759 
z
M 3341 1997 
L 3341 0 
L 2766 0 
L 2766 531 
Q 2569 213 2275 61 
Q 1981 -91 1556 -91 
Q 1019 -91 701 211 
Q 384 513 384 1019 
Q 384 1609 779 1909 
Q 1175 2209 1959 2209 
L 2766 2209 
L 2766 2266 
Q 2766 2663 2505 2880 
Q 2244 3097 1772 3097 
Q 1472 3097 1187 3025 
Q 903 2953 641 2809 
L 641 3341 
Q 956 3463 1253 3523 
Q 1550 3584 1831 3584 
Q 2591 3584 2966 3190 
Q 3341 2797 3341 1997 
z
" transform="scale(0.015625)"/>
        <path id="DejaVuSans-72" d="M 2631 2963 
Q 2534 3019 2420 3045 
Q 2306 3072 2169 3072 
Q 1681 3072 1420 2755 
Q 1159 2438 1159 1844 
L 1159 0 
L 581 0 
L 581 3500 
L 1159 3500 
L 1159 2956 
Q 1341 3275 1631 3429 
Q 1922 3584 2338 3584 
Q 2397 3584 2469 3576 
Q 2541 3569 2628 3553 
L 2631 2963 
z
" transform="scale(0.015625)"/>
       </defs>
       <use xlink:href="#DejaVuSans-65"/>
       <use xlink:href="#DejaVuSans-61" x="61.523438"/>
       <use xlink:href="#DejaVuSans-72" x="122.802734"/>
       <use xlink:href="#DejaVuSans-5f" x="163.916016"/>
       <use xlink:href="#DejaVuSans-6f" x="213.916016"/>
       <use xlink:href="#DejaVuSans-70" x="275.097656"/>
       <use xlink:href="#DejaVuSans-65" x="338.574219"/>
       <use xlink:href="#DejaVuSans-6e" x="400.097656"/>
       <use xlink:href="#DejaVuSans-69" x="463.476562"/>
       <use xlink:href="#DejaVuSans-6e" x="491.259766"/>
       <use xlink:href="#DejaVuSans-67" x="554.638672"/>
      </g>
     </g>
    </g>
    <g id="xtick_3">
     <g id="line2d_3">
      <path d="M 144.386406 176.04 
L 100.926406 100.765072 
" clip-path="url(#p244161eedc)" style="fill: none; stroke: #b0b0b0; stroke-width: 0.8; stroke-linecap: square"/>
     </g>
     <g id="text_3">
      <!-- ear_position -->
      <g transform="translate(63.425625 91.261029) scale(0.1 -0.1)">
       <defs>
        <path id="DejaVuSans-73" d="M 2834 3397 
L 2834 2853 
Q 2591 2978 2328 3040 
Q 2066 3103 1784 3103 
Q 1356 3103 1142 2972 
Q 928 2841 928 2578 
Q 928 2378 1081 2264 
Q 1234 2150 1697 2047 
L 1894 2003 
Q 2506 1872 2764 1633 
Q 3022 1394 3022 966 
Q 3022 478 2636 193 
Q 2250 -91 1575 -91 
Q 1294 -91 989 -36 
Q 684 19 347 128 
L 347 722 
Q 666 556 975 473 
Q 1284 391 1588 391 
Q 1994 391 2212 530 
Q 2431 669 2431 922 
Q 2431 1156 2273 1281 
Q 2116 1406 1581 1522 
L 1381 1569 
Q 847 1681 609 1914 
Q 372 2147 372 2553 
Q 372 3047 722 3315 
Q 1072 3584 1716 3584 
Q 2034 3584 2315 3537 
Q 2597 3491 2834 3397 
z
" transform="scale(0.015625)"/>
        <path id="DejaVuSans-74" d="M 1172 4494 
L 1172 3500 
L 2356 3500 
L 2356 3053 
L 1172 3053 
L 1172 1153 
Q 1172 725 1289 603 
Q 1406 481 1766 481 
L 2356 481 
L 2356 0 
L 1766 0 
Q 1100 0 847 248 
Q 594 497 594 1153 
L 594 3053 
L 172 3053 
L 172 3500 
L 594 3500 
L 594 4494 
L 1172 4494 
z
" transform="scale(0.015625)"/>
       </defs>
       <use xlink:href="#DejaVuSans-65"/>
       <use xlink:href="#DejaVuSans-61" x="61.523438"/>
       <use xlink:href="#DejaVuSans-72" x="122.802734"/>
       <use xlink:href="#DejaVuSans-5f" x="163.916016"/>
       <use xlink:href="#DejaVuSans-70" x="213.916016"/>
       <use xlink:href="#DejaVuSans-6f" x="277.392578"/>
       <use xlink:href="#DejaVuSans-73" x="338.574219"/>
       <use xlink:href="#DejaVuSans-69" x="390.673828"/>
       <use xlink:href="#DejaVuSans-74" x="418.457031"/>
       <use xlink:href="#DejaVuSans-69" x="457.666016"/>
       <use xlink:href="#DejaVuSans-6f" x="485.449219"/>
       <use xlink:href="#DejaVuSans-6e" x="546.630859"/>
      </g>
     </g>
    </g>
    <g id="xtick_4">
     <g id="line2d_4">
      <path d="M 144.386406 176.04 
L 57.466406 176.04 
" clip-path="url(#p244161eedc)" style="fill: none; stroke: #b0b0b0; stroke-width: 0.8; stroke-linecap: square"/>
     </g>
     <g id="text_4">
      <!-- snout_position -->
      <g transform="translate(7.2 178.660313) scale(0.1 -0.1)">
       <defs>
        <path id="DejaVuSans-75" d="M 544 1381 
L 544 3500 
L 1119 3500 
L 1119 1403 
Q 1119 906 1312 657 
Q 1506 409 1894 409 
Q 2359 409 2629 706 
Q 2900 1003 2900 1516 
L 2900 3500 
L 3475 3500 
L 3475 0 
L 2900 0 
L 2900 538 
Q 2691 219 2414 64 
Q 2138 -91 1772 -91 
Q 1169 -91 856 284 
Q 544 659 544 1381 
z
M 1991 3584 
L 1991 3584 
z
" transform="scale(0.015625)"/>
       </defs>
       <use xlink:href="#DejaVuSans-73"/>
       <use xlink:href="#DejaVuSans-6e" x="52.099609"/>
       <use xlink:href="#DejaVuSans-6f" x="115.478516"/>
       <use xlink:href="#DejaVuSans-75" x="176.660156"/>
       <use xlink:href="#DejaVuSans-74" x="240.039062"/>
       <use xlink:href="#DejaVuSans-5f" x="279.248047"/>
       <use xlink:href="#DejaVuSans-70" x="329.248047"/>
       <use xlink:href="#DejaVuSans-6f" x="392.724609"/>
       <use xlink:href="#DejaVuSans-73" x="453.90625"/>
       <use xlink:href="#DejaVuSans-69" x="506.005859"/>
       <use xlink:href="#DejaVuSans-74" x="533.789062"/>
       <use xlink:href="#DejaVuSans-69" x="572.998047"/>
       <use xlink:href="#DejaVuSans-6f" x="600.78125"/>
       <use xlink:href="#DejaVuSans-6e" x="661.962891"/>
      </g>
     </g>
    </g>
    <g id="xtick_5">
     <g id="line2d_5">
      <path d="M 144.386406 176.04 
L 100.926406 251.314928 
" clip-path="url(#p244161eedc)" style="fill: none; stroke: #b0b0b0; stroke-width: 0.8; stroke-linecap: square"/>
     </g>
     <g id="text_5">
      <!-- mouth_position -->
      <g transform="translate(55.394375 266.059596) scale(0.1 -0.1)">
       <defs>
        <path id="DejaVuSans-6d" d="M 3328 2828 
Q 3544 3216 3844 3400 
Q 4144 3584 4550 3584 
Q 5097 3584 5394 3201 
Q 5691 2819 5691 2113 
L 5691 0 
L 5113 0 
L 5113 2094 
Q 5113 2597 4934 2840 
Q 4756 3084 4391 3084 
Q 3944 3084 3684 2787 
Q 3425 2491 3425 1978 
L 3425 0 
L 2847 0 
L 2847 2094 
Q 2847 2600 2669 2842 
Q 2491 3084 2119 3084 
Q 1678 3084 1418 2786 
Q 1159 2488 1159 1978 
L 1159 0 
L 581 0 
L 581 3500 
L 1159 3500 
L 1159 2956 
Q 1356 3278 1631 3431 
Q 1906 3584 2284 3584 
Q 2666 3584 2933 3390 
Q 3200 3197 3328 2828 
z
" transform="scale(0.015625)"/>
        <path id="DejaVuSans-68" d="M 3513 2113 
L 3513 0 
L 2938 0 
L 2938 2094 
Q 2938 2591 2744 2837 
Q 2550 3084 2163 3084 
Q 1697 3084 1428 2787 
Q 1159 2491 1159 1978 
L 1159 0 
L 581 0 
L 581 4863 
L 1159 4863 
L 1159 2956 
Q 1366 3272 1645 3428 
Q 1925 3584 2291 3584 
Q 2894 3584 3203 3211 
Q 3513 2838 3513 2113 
z
" transform="scale(0.015625)"/>
       </defs>
       <use xlink:href="#DejaVuSans-6d"/>
       <use xlink:href="#DejaVuSans-6f" x="97.412109"/>
       <use xlink:href="#DejaVuSans-75" x="158.59375"/>
       <use xlink:href="#DejaVuSans-74" x="221.972656"/>
       <use xlink:href="#DejaVuSans-68" x="261.181641"/>
       <use xlink:href="#DejaVuSans-5f" x="324.560547"/>
       <use xlink:href="#DejaVuSans-70" x="374.560547"/>
       <use xlink:href="#DejaVuSans-6f" x="438.037109"/>
       <use xlink:href="#DejaVuSans-73" x="499.21875"/>
       <use xlink:href="#DejaVuSans-69" x="551.318359"/>
       <use xlink:href="#DejaVuSans-74" x="579.101562"/>
       <use xlink:href="#DejaVuSans-69" x="618.310547"/>
       <use xlink:href="#DejaVuSans-6f" x="646.09375"/>
       <use xlink:href="#DejaVuSans-6e" x="707.275391"/>
      </g>
     </g>
    </g>
    <g id="xtick_6">
     <g id="line2d_6">
      <path d="M 144.386406 176.04 
L 187.846406 251.314928 
" clip-path="url(#p244161eedc)" style="fill: none; stroke: #b0b0b0; stroke-width: 0.8; stroke-linecap: square"/>
     </g>
     <g id="text_6">
      <!-- face_inclination -->
      <g transform="translate(155.801094 266.059596) scale(0.1 -0.1)">
       <defs>
        <path id="DejaVuSans-66" d="M 2375 4863 
L 2375 4384 
L 1825 4384 
Q 1516 4384 1395 4259 
Q 1275 4134 1275 3809 
L 1275 3500 
L 2222 3500 
L 2222 3053 
L 1275 3053 
L 1275 0 
L 697 0 
L 697 3053 
L 147 3053 
L 147 3500 
L 697 3500 
L 697 3744 
Q 697 4328 969 4595 
Q 1241 4863 1831 4863 
L 2375 4863 
z
" transform="scale(0.015625)"/>
        <path id="DejaVuSans-63" d="M 3122 3366 
L 3122 2828 
Q 2878 2963 2633 3030 
Q 2388 3097 2138 3097 
Q 1578 3097 1268 2742 
Q 959 2388 959 1747 
Q 959 1106 1268 751 
Q 1578 397 2138 397 
Q 2388 397 2633 464 
Q 2878 531 3122 666 
L 3122 134 
Q 2881 22 2623 -34 
Q 2366 -91 2075 -91 
Q 1284 -91 818 406 
Q 353 903 353 1747 
Q 353 2603 823 3093 
Q 1294 3584 2113 3584 
Q 2378 3584 2631 3529 
Q 2884 3475 3122 3366 
z
" transform="scale(0.015625)"/>
        <path id="DejaVuSans-6c" d="M 603 4863 
L 1178 4863 
L 1178 0 
L 603 0 
L 603 4863 
z
" transform="scale(0.015625)"/>
       </defs>
       <use xlink:href="#DejaVuSans-66"/>
       <use xlink:href="#DejaVuSans-61" x="35.205078"/>
       <use xlink:href="#DejaVuSans-63" x="96.484375"/>
       <use xlink:href="#DejaVuSans-65" x="151.464844"/>
       <use xlink:href="#DejaVuSans-5f" x="212.988281"/>
       <use xlink:href="#DejaVuSans-69" x="262.988281"/>
       <use xlink:href="#DejaVuSans-6e" x="290.771484"/>
       <use xlink:href="#DejaVuSans-63" x="354.150391"/>
       <use xlink:href="#DejaVuSans-6c" x="409.130859"/>
       <use xlink:href="#DejaVuSans-69" x="436.914062"/>
       <use xlink:href="#DejaVuSans-6e" x="464.697266"/>
       <use xlink:href="#DejaVuSans-61" x="528.076172"/>
       <use xlink:href="#DejaVuSans-74" x="589.355469"/>
       <use xlink:href="#DejaVuSans-69" x="628.564453"/>
       <use xlink:href="#DejaVuSans-6f" x="656.347656"/>
       <use xlink:href="#DejaVuSans-6e" x="717.529297"/>
      </g>
     </g>
    </g>
   </g>
   <g id="matplotlib.axis_2">
    <g id="ytick_1">
     <g id="line2d_7">
      <path d="M 144.594619 176.04 
C 144.594619 176.012658 144.589233 175.985581 144.57877 175.96032 
C 144.568306 175.935059 144.552969 175.912105 144.533635 175.892771 
C 144.514301 175.873437 144.491347 175.8581 144.466086 175.847636 
C 144.440825 175.837173 144.413749 175.831787 144.386406 175.831787 
C 144.359064 175.831787 144.331988 175.837173 144.306727 175.847636 
C 144.281466 175.8581 144.258511 175.873437 144.239178 175.892771 
C 144.219844 175.912105 144.204506 175.935059 144.194043 175.96032 
C 144.183579 175.985581 144.178193 176.012658 144.178193 176.04 
C 144.178193 176.067342 144.183579 176.094419 144.194043 176.11968 
C 144.204506 176.144941 144.219844 176.167895 144.239178 176.187229 
C 144.258511 176.206563 144.281466 176.2219 144.306727 176.232364 
C 144.331988 176.242827 144.359064 176.248213 144.386406 176.248213 
C 144.413749 176.248213 144.440825 176.242827 144.466086 176.232364 
C 144.491347 176.2219 144.514301 176.206563 144.533635 176.187229 
C 144.552969 176.167895 144.568306 176.144941 144.57877 176.11968 
C 144.589233 176.094419 144.594619 176.067342 144.594619 176.04 
" clip-path="url(#p244161eedc)" style="fill: none; stroke: #b0b0b0; stroke-width: 0.8; stroke-linecap: square"/>
     </g>
     <g id="text_7">
      <!-- −1.5 -->
      <g transform="translate(144.57877 173.880633) scale(0.1 -0.1)">
       <defs>
        <path id="DejaVuSans-2212" d="M 678 2272 
L 4684 2272 
L 4684 1741 
L 678 1741 
L 678 2272 
z
" transform="scale(0.015625)"/>
        <path id="DejaVuSans-31" d="M 794 531 
L 1825 531 
L 1825 4091 
L 703 3866 
L 703 4441 
L 1819 4666 
L 2450 4666 
L 2450 531 
L 3481 531 
L 3481 0 
L 794 0 
L 794 531 
z
" transform="scale(0.015625)"/>
        <path id="DejaVuSans-2e" d="M 684 794 
L 1344 794 
L 1344 0 
L 684 0 
L 684 794 
z
" transform="scale(0.015625)"/>
        <path id="DejaVuSans-35" d="M 691 4666 
L 3169 4666 
L 3169 4134 
L 1269 4134 
L 1269 2991 
Q 1406 3038 1543 3061 
Q 1681 3084 1819 3084 
Q 2600 3084 3056 2656 
Q 3513 2228 3513 1497 
Q 3513 744 3044 326 
Q 2575 -91 1722 -91 
Q 1428 -91 1123 -41 
Q 819 9 494 109 
L 494 744 
Q 775 591 1075 516 
Q 1375 441 1709 441 
Q 2250 441 2565 725 
Q 2881 1009 2881 1497 
Q 2881 1984 2565 2268 
Q 2250 2553 1709 2553 
Q 1456 2553 1204 2497 
Q 953 2441 691 2322 
L 691 4666 
z
" transform="scale(0.015625)"/>
       </defs>
       <use xlink:href="#DejaVuSans-2212"/>
       <use xlink:href="#DejaVuSans-31" x="83.789062"/>
       <use xlink:href="#DejaVuSans-2e" x="147.412109"/>
       <use xlink:href="#DejaVuSans-35" x="179.199219"/>
      </g>
     </g>
    </g>
    <g id="ytick_2">
     <g id="line2d_8">
      <path d="M 157.872465 176.04 
C 157.872465 174.269027 157.523622 172.515274 156.8459 170.879109 
C 156.168178 169.242943 155.174757 167.756183 153.92249 166.503916 
C 152.670223 165.251649 151.183463 164.258228 149.547298 163.580506 
C 147.911132 162.902784 146.157379 162.553941 144.386406 162.553941 
C 142.615433 162.553941 140.861681 162.902784 139.225515 163.580506 
C 137.589349 164.258228 136.10259 165.251649 134.850323 166.503916 
C 133.598056 167.756183 132.604635 169.242943 131.926912 170.879109 
C 131.24919 172.515274 130.900347 174.269027 130.900347 176.04 
C 130.900347 177.810973 131.24919 179.564726 131.926912 181.200891 
C 132.604635 182.837057 133.598056 184.323817 134.850323 185.576084 
C 136.10259 186.828351 137.589349 187.821772 139.225515 188.499494 
C 140.861681 189.177216 142.615433 189.526059 144.386406 189.526059 
C 146.157379 189.526059 147.911132 189.177216 149.547298 188.499494 
C 151.183463 187.821772 152.670223 186.828351 153.92249 185.576084 
C 155.174757 184.323817 156.168178 182.837057 156.8459 181.200891 
C 157.523622 179.564726 157.872465 177.810973 157.872465 176.04 
" clip-path="url(#p244161eedc)" style="fill: none; stroke: #b0b0b0; stroke-width: 0.8; stroke-linecap: square"/>
     </g>
     <g id="text_8">
      <!-- −1.0 -->
      <g transform="translate(156.8459 168.799421) scale(0.1 -0.1)">
       <defs>
        <path id="DejaVuSans-30" d="M 2034 4250 
Q 1547 4250 1301 3770 
Q 1056 3291 1056 2328 
Q 1056 1369 1301 889 
Q 1547 409 2034 409 
Q 2525 409 2770 889 
Q 3016 1369 3016 2328 
Q 3016 3291 2770 3770 
Q 2525 4250 2034 4250 
z
M 2034 4750 
Q 2819 4750 3233 4129 
Q 3647 3509 3647 2328 
Q 3647 1150 3233 529 
Q 2819 -91 2034 -91 
Q 1250 -91 836 529 
Q 422 1150 422 2328 
Q 422 3509 836 4129 
Q 1250 4750 2034 4750 
z
" transform="scale(0.015625)"/>
       </defs>
       <use xlink:href="#DejaVuSans-2212"/>
       <use xlink:href="#DejaVuSans-31" x="83.789062"/>
       <use xlink:href="#DejaVuSans-2e" x="147.412109"/>
       <use xlink:href="#DejaVuSans-30" x="179.199219"/>
      </g>
     </g>
    </g>
    <g id="ytick_3">
     <g id="line2d_9">
      <path d="M 171.150311 176.04 
C 171.150311 172.525396 170.458011 169.044968 169.11303 165.797897 
C 167.76805 162.550826 165.796545 159.600262 163.311345 157.115061 
C 160.826145 154.629861 157.87558 152.658357 154.628509 151.313376 
C 151.381439 149.968395 147.90101 149.276095 144.386406 149.276095 
C 140.871802 149.276095 137.391374 149.968395 134.144303 151.313376 
C 130.897233 152.658357 127.946668 154.629861 125.461468 157.115061 
C 122.976267 159.600262 121.004763 162.550826 119.659782 165.797897 
C 118.314802 169.044968 117.622501 172.525396 117.622501 176.04 
C 117.622501 179.554604 118.314802 183.035032 119.659782 186.282103 
C 121.004763 189.529174 122.976267 192.479738 125.461468 194.964939 
C 127.946668 197.450139 130.897233 199.421643 134.144303 200.766624 
C 137.391374 202.111605 140.871802 202.803905 144.386406 202.803905 
C 147.90101 202.803905 151.381439 202.111605 154.628509 200.766624 
C 157.87558 199.421643 160.826145 197.450139 163.311345 194.964939 
C 165.796545 192.479738 167.76805 189.529174 169.11303 186.282103 
C 170.458011 183.035032 171.150311 179.554604 171.150311 176.04 
" clip-path="url(#p244161eedc)" style="fill: none; stroke: #b0b0b0; stroke-width: 0.8; stroke-linecap: square"/>
     </g>
     <g id="text_9">
      <!-- −0.5 -->
      <g transform="translate(169.11303 163.718209) scale(0.1 -0.1)">
       <use xlink:href="#DejaVuSans-2212"/>
       <use xlink:href="#DejaVuSans-30" x="83.789062"/>
       <use xlink:href="#DejaVuSans-2e" x="147.412109"/>
       <use xlink:href="#DejaVuSans-35" x="179.199219"/>
      </g>
     </g>
    </g>
    <g id="ytick_4">
     <g id="line2d_10">
      <path d="M 184.428157 176.04 
C 184.428157 170.781765 183.3924 165.574661 181.38016 160.716685 
C 179.367921 155.85871 176.418333 151.44434 172.7002 147.726206 
C 168.982067 144.008073 164.567696 141.058485 159.709721 139.046246 
C 154.851746 137.034007 149.644641 135.998249 144.386406 135.998249 
C 139.128172 135.998249 133.921067 137.034007 129.063092 139.046246 
C 124.205116 141.058485 119.790746 144.008073 116.072613 147.726206 
C 112.354479 151.44434 109.404891 155.85871 107.392652 160.716685 
C 105.380413 165.574661 104.344655 170.781765 104.344655 176.04 
C 104.344655 181.298235 105.380413 186.505339 107.392652 191.363315 
C 109.404891 196.22129 112.354479 200.63566 116.072613 204.353794 
C 119.790746 208.071927 124.205116 211.021515 129.063092 213.033754 
C 133.921067 215.045993 139.128172 216.081751 144.386406 216.081751 
C 149.644641 216.081751 154.851746 215.045993 159.709721 213.033754 
C 164.567696 211.021515 168.982067 208.071927 172.7002 204.353794 
C 176.418333 200.63566 179.367921 196.22129 181.38016 191.363315 
C 183.3924 186.505339 184.428157 181.298235 184.428157 176.04 
" clip-path="url(#p244161eedc)" style="fill: none; stroke: #b0b0b0; stroke-width: 0.8; stroke-linecap: square"/>
     </g>
     <g id="text_10">
      <!-- 0.0 -->
      <g transform="translate(181.38016 158.636998) scale(0.1 -0.1)">
       <use xlink:href="#DejaVuSans-30"/>
       <use xlink:href="#DejaVuSans-2e" x="63.623047"/>
       <use xlink:href="#DejaVuSans-30" x="95.410156"/>
      </g>
     </g>
    </g>
    <g id="ytick_5">
     <g id="line2d_11">
      <path d="M 197.706003 176.04 
C 197.706003 169.038135 196.326788 162.104354 193.647291 155.635474 
C 190.967793 149.166594 187.040121 143.288418 182.089055 138.337351 
C 177.137988 133.386285 171.259813 129.458613 164.790933 126.779116 
C 158.322053 124.099618 151.388272 122.720403 144.386406 122.720403 
C 137.384541 122.720403 130.45076 124.099618 123.98188 126.779116 
C 117.513 129.458613 111.634824 133.386285 106.683758 138.337351 
C 101.732691 143.288418 97.80502 149.166594 95.125522 155.635474 
C 92.446024 162.104354 91.066809 169.038135 91.066809 176.04 
C 91.066809 183.041865 92.446024 189.975646 95.125522 196.444526 
C 97.80502 202.913406 101.732691 208.791582 106.683758 213.742649 
C 111.634824 218.693715 117.513 222.621387 123.98188 225.300884 
C 130.45076 227.980382 137.384541 229.359597 144.386406 229.359597 
C 151.388272 229.359597 158.322053 227.980382 164.790933 225.300884 
C 171.259813 222.621387 177.137988 218.693715 182.089055 213.742649 
C 187.040121 208.791582 190.967793 202.913406 193.647291 196.444526 
C 196.326788 189.975646 197.706003 183.041865 197.706003 176.04 
" clip-path="url(#p244161eedc)" style="fill: none; stroke: #b0b0b0; stroke-width: 0.8; stroke-linecap: square"/>
     </g>
     <g id="text_11">
      <!-- 0.5 -->
      <g transform="translate(193.647291 153.555786) scale(0.1 -0.1)">
       <use xlink:href="#DejaVuSans-30"/>
       <use xlink:href="#DejaVuSans-2e" x="63.623047"/>
       <use xlink:href="#DejaVuSans-35" x="95.410156"/>
      </g>
     </g>
    </g>
    <g id="ytick_6">
     <g id="line2d_12">
      <path d="M 210.983849 176.04 
C 210.983849 167.294504 209.261177 158.634047 205.914421 150.554262 
C 202.567664 142.474477 197.661909 135.132496 191.47791 128.948496 
C 185.29391 122.764497 177.951929 117.858742 169.872144 114.511985 
C 161.79236 111.165229 153.131902 109.442557 144.386406 109.442557 
C 135.64091 109.442557 126.980453 111.165229 118.900668 114.511985 
C 110.820883 117.858742 103.478902 122.764497 97.294903 128.948496 
C 91.110903 135.132496 86.205148 142.474477 82.858392 150.554262 
C 79.511635 158.634047 77.788963 167.294504 77.788963 176.04 
C 77.788963 184.785496 79.511635 193.445953 82.858392 201.525738 
C 86.205148 209.605523 91.110903 216.947504 97.294903 223.131504 
C 103.478902 229.315503 110.820883 234.221258 118.900668 237.568015 
C 126.980453 240.914771 135.64091 242.637443 144.386406 242.637443 
C 153.131902 242.637443 161.79236 240.914771 169.872144 237.568015 
C 177.951929 234.221258 185.29391 229.315503 191.47791 223.131504 
C 197.661909 216.947504 202.567664 209.605523 205.914421 201.525738 
C 209.261177 193.445953 210.983849 184.785496 210.983849 176.04 
" clip-path="url(#p244161eedc)" style="fill: none; stroke: #b0b0b0; stroke-width: 0.8; stroke-linecap: square"/>
     </g>
     <g id="text_12">
      <!-- 1.0 -->
      <g transform="translate(205.914421 148.474574) scale(0.1 -0.1)">
       <use xlink:href="#DejaVuSans-31"/>
       <use xlink:href="#DejaVuSans-2e" x="63.623047"/>
       <use xlink:href="#DejaVuSans-30" x="95.410156"/>
      </g>
     </g>
    </g>
    <g id="ytick_7">
     <g id="line2d_13">
      <path d="M 224.261695 176.04 
C 224.261695 165.550873 222.195566 155.16374 218.181551 145.47305 
C 214.167536 135.782361 208.283698 126.976574 200.866765 119.559641 
C 193.449832 112.142709 184.644046 106.25887 174.953356 102.244855 
C 165.262666 98.23084 154.875533 96.164711 144.386406 96.164711 
C 133.897279 96.164711 123.510146 98.23084 113.819456 102.244855 
C 104.128767 106.25887 95.32298 112.142709 87.906048 119.559641 
C 80.489115 126.976574 74.605277 135.782361 70.591261 145.47305 
C 66.577246 155.16374 64.511117 165.550873 64.511117 176.04 
C 64.511117 186.529127 66.577246 196.91626 70.591261 206.60695 
C 74.605277 216.297639 80.489115 225.103426 87.906048 232.520359 
C 95.32298 239.937291 104.128767 245.82113 113.819456 249.835145 
C 123.510146 253.84916 133.897279 255.915289 144.386406 255.915289 
C 154.875533 255.915289 165.262666 253.84916 174.953356 249.835145 
C 184.644046 245.82113 193.449832 239.937291 200.866765 232.520359 
C 208.283698 225.103426 214.167536 216.297639 218.181551 206.60695 
C 222.195566 196.91626 224.261695 186.529127 224.261695 176.04 
" clip-path="url(#p244161eedc)" style="fill: none; stroke: #b0b0b0; stroke-width: 0.8; stroke-linecap: square"/>
     </g>
     <g id="text_13">
      <!-- 1.5 -->
      <g transform="translate(218.181551 143.393363) scale(0.1 -0.1)">
       <use xlink:href="#DejaVuSans-31"/>
       <use xlink:href="#DejaVuSans-2e" x="63.623047"/>
       <use xlink:href="#DejaVuSans-35" x="95.410156"/>
      </g>
     </g>
    </g>
   </g>
   <g id="line2d_14">
    <path d="M 182.228905 176.04 
L 171.825299 128.514444 
L 117.336327 129.187888 
L 102.857297 176.04 
L 133.513001 194.87329 
L 150.606628 186.813741 
L 182.228905 176.04 
" clip-path="url(#p244161eedc)" style="fill: none; stroke: #f1605d; stroke-width: 2; stroke-linecap: square"/>
   </g>
   <g id="line2d_15">
    <path d="M 181.507853 176.04 
L 184.693325 106.226369 
L 120.258628 134.249462 
L 102.767133 176.04 
L 131.569281 198.239912 
L 146.536629 179.764295 
L 181.507853 176.04 
" clip-path="url(#p244161eedc)" style="fill: none; stroke: #440f76; stroke-width: 2; stroke-linecap: square"/>
   </g>
   <g id="line2d_16">
    <path d="M 181.165903 176.04 
L 181.285701 112.128547 
L 113.224422 122.06586 
L 95.216658 176.04 
L 131.983545 197.522385 
L 150.862628 187.257145 
L 181.165903 176.04 
" clip-path="url(#p244161eedc)" style="fill: none; stroke: #feca8d; stroke-width: 2; stroke-linecap: square"/>
   </g>
   <g id="patch_3">
    <path d="M 231.306406 176.04 
C 231.306406 164.62577 229.058052 153.322529 224.690015 142.777156 
C 220.321979 132.231783 213.919207 122.649358 205.848128 114.578279 
C 197.777048 106.507199 188.194623 100.104428 177.64925 95.736391 
C 167.103877 91.368354 155.800636 89.12 144.386406 89.12 
C 132.972176 89.12 121.668936 91.368354 111.123562 95.736391 
C 100.578189 100.104428 90.995764 106.507199 82.924685 114.578279 
C 74.853606 122.649358 68.450834 132.231783 64.082797 142.777156 
C 59.714761 153.322529 57.466406 164.62577 57.466406 176.04 
C 57.466406 187.45423 59.714761 198.757471 64.082797 209.302844 
C 68.450834 219.848217 74.853606 229.430642 82.924685 237.501721 
C 90.995764 245.572801 100.578189 251.975572 111.123562 256.343609 
C 121.668936 260.711646 132.972176 262.96 144.386406 262.96 
C 155.800636 262.96 167.103877 260.711646 177.64925 256.343609 
C 188.194623 251.975572 197.777048 245.572801 205.848128 237.501721 
C 213.919207 229.430642 220.321979 219.848217 224.690015 209.302844 
C 229.058052 198.757471 231.306406 187.45423 231.306406 176.04 
" style="fill: none; stroke: #000000; stroke-width: 0.8; stroke-linejoin: miter; stroke-linecap: square"/>
   </g>
   <g id="text_14">
    <!-- airpuf -->
    <g transform="translate(126.852344 77.662591) scale(0.12 -0.12)">
     <use xlink:href="#DejaVuSans-61"/>
     <use xlink:href="#DejaVuSans-69" x="61.279297"/>
     <use xlink:href="#DejaVuSans-72" x="89.0625"/>
     <use xlink:href="#DejaVuSans-70" x="130.175781"/>
     <use xlink:href="#DejaVuSans-75" x="193.652344"/>
     <use xlink:href="#DejaVuSans-66" x="257.03125"/>
    </g>
   </g>
   <g id="legend_1">
    <g id="patch_4">
     <path d="M 182.109969 54.234375 
L 276.458406 54.234375 
Q 278.458406 54.234375 278.458406 52.234375 
L 278.458406 9.2 
Q 278.458406 7.2 276.458406 7.2 
L 182.109969 7.2 
Q 180.109969 7.2 180.109969 9.2 
L 180.109969 52.234375 
Q 180.109969 54.234375 182.109969 54.234375 
z
" style="fill: #ffffff; opacity: 0.8; stroke: #cccccc; stroke-linejoin: miter"/>
    </g>
    <g id="line2d_17">
     <path d="M 184.109969 15.298438 
L 194.109969 15.298438 
L 204.109969 15.298438 
" style="fill: none; stroke: #f1605d; stroke-width: 2; stroke-linecap: square"/>
    </g>
    <g id="text_15">
     <!-- 1st week -->
     <g transform="translate(212.109969 18.798438) scale(0.1 -0.1)">
      <defs>
       <path id="DejaVuSans-20" transform="scale(0.015625)"/>
       <path id="DejaVuSans-77" d="M 269 3500 
L 844 3500 
L 1563 769 
L 2278 3500 
L 2956 3500 
L 3675 769 
L 4391 3500 
L 4966 3500 
L 4050 0 
L 3372 0 
L 2619 2869 
L 1863 0 
L 1184 0 
L 269 3500 
z
" transform="scale(0.015625)"/>
       <path id="DejaVuSans-6b" d="M 581 4863 
L 1159 4863 
L 1159 1991 
L 2875 3500 
L 3609 3500 
L 1753 1863 
L 3688 0 
L 2938 0 
L 1159 1709 
L 1159 0 
L 581 0 
L 581 4863 
z
" transform="scale(0.015625)"/>
      </defs>
      <use xlink:href="#DejaVuSans-31"/>
      <use xlink:href="#DejaVuSans-73" x="63.623047"/>
      <use xlink:href="#DejaVuSans-74" x="115.722656"/>
      <use xlink:href="#DejaVuSans-20" x="154.931641"/>
      <use xlink:href="#DejaVuSans-77" x="186.71875"/>
      <use xlink:href="#DejaVuSans-65" x="268.505859"/>
      <use xlink:href="#DejaVuSans-65" x="330.029297"/>
      <use xlink:href="#DejaVuSans-6b" x="391.552734"/>
     </g>
    </g>
    <g id="line2d_18">
     <path d="M 184.109969 29.976563 
L 194.109969 29.976563 
L 204.109969 29.976563 
" style="fill: none; stroke: #440f76; stroke-width: 2; stroke-linecap: square"/>
    </g>
    <g id="text_16">
     <!-- 2nd week -->
     <g transform="translate(212.109969 33.476563) scale(0.1 -0.1)">
      <defs>
       <path id="DejaVuSans-32" d="M 1228 531 
L 3431 531 
L 3431 0 
L 469 0 
L 469 531 
Q 828 903 1448 1529 
Q 2069 2156 2228 2338 
Q 2531 2678 2651 2914 
Q 2772 3150 2772 3378 
Q 2772 3750 2511 3984 
Q 2250 4219 1831 4219 
Q 1534 4219 1204 4116 
Q 875 4013 500 3803 
L 500 4441 
Q 881 4594 1212 4672 
Q 1544 4750 1819 4750 
Q 2544 4750 2975 4387 
Q 3406 4025 3406 3419 
Q 3406 3131 3298 2873 
Q 3191 2616 2906 2266 
Q 2828 2175 2409 1742 
Q 1991 1309 1228 531 
z
" transform="scale(0.015625)"/>
       <path id="DejaVuSans-64" d="M 2906 2969 
L 2906 4863 
L 3481 4863 
L 3481 0 
L 2906 0 
L 2906 525 
Q 2725 213 2448 61 
Q 2172 -91 1784 -91 
Q 1150 -91 751 415 
Q 353 922 353 1747 
Q 353 2572 751 3078 
Q 1150 3584 1784 3584 
Q 2172 3584 2448 3432 
Q 2725 3281 2906 2969 
z
M 947 1747 
Q 947 1113 1208 752 
Q 1469 391 1925 391 
Q 2381 391 2643 752 
Q 2906 1113 2906 1747 
Q 2906 2381 2643 2742 
Q 2381 3103 1925 3103 
Q 1469 3103 1208 2742 
Q 947 2381 947 1747 
z
" transform="scale(0.015625)"/>
      </defs>
      <use xlink:href="#DejaVuSans-32"/>
      <use xlink:href="#DejaVuSans-6e" x="63.623047"/>
      <use xlink:href="#DejaVuSans-64" x="127.001953"/>
      <use xlink:href="#DejaVuSans-20" x="190.478516"/>
      <use xlink:href="#DejaVuSans-77" x="222.265625"/>
      <use xlink:href="#DejaVuSans-65" x="304.052734"/>
      <use xlink:href="#DejaVuSans-65" x="365.576172"/>
      <use xlink:href="#DejaVuSans-6b" x="427.099609"/>
     </g>
    </g>
    <g id="line2d_19">
     <path d="M 184.109969 44.654688 
L 194.109969 44.654688 
L 204.109969 44.654688 
" style="fill: none; stroke: #feca8d; stroke-width: 2; stroke-linecap: square"/>
    </g>
    <g id="text_17">
     <!-- Preinduction -->
     <g transform="translate(212.109969 48.154688) scale(0.1 -0.1)">
      <defs>
       <path id="DejaVuSans-50" d="M 1259 4147 
L 1259 2394 
L 2053 2394 
Q 2494 2394 2734 2622 
Q 2975 2850 2975 3272 
Q 2975 3691 2734 3919 
Q 2494 4147 2053 4147 
L 1259 4147 
z
M 628 4666 
L 2053 4666 
Q 2838 4666 3239 4311 
Q 3641 3956 3641 3272 
Q 3641 2581 3239 2228 
Q 2838 1875 2053 1875 
L 1259 1875 
L 1259 0 
L 628 0 
L 628 4666 
z
" transform="scale(0.015625)"/>
      </defs>
      <use xlink:href="#DejaVuSans-50"/>
      <use xlink:href="#DejaVuSans-72" x="58.552734"/>
      <use xlink:href="#DejaVuSans-65" x="97.416016"/>
      <use xlink:href="#DejaVuSans-69" x="158.939453"/>
      <use xlink:href="#DejaVuSans-6e" x="186.722656"/>
      <use xlink:href="#DejaVuSans-64" x="250.101562"/>
      <use xlink:href="#DejaVuSans-75" x="313.578125"/>
      <use xlink:href="#DejaVuSans-63" x="376.957031"/>
      <use xlink:href="#DejaVuSans-74" x="431.9375"/>
      <use xlink:href="#DejaVuSans-69" x="471.146484"/>
      <use xlink:href="#DejaVuSans-6f" x="498.929688"/>
      <use xlink:href="#DejaVuSans-6e" x="560.111328"/>
     </g>
    </g>
   </g>
  </g>
  <g id="text_18">
   <!-- TDP43 - airpuf -->
   <g transform="translate(86.603906 288.956875) scale(0.2 -0.2)">
    <defs>
     <path id="DejaVuSans-54" d="M -19 4666 
L 3928 4666 
L 3928 4134 
L 2272 4134 
L 2272 0 
L 1638 0 
L 1638 4134 
L -19 4134 
L -19 4666 
z
" transform="scale(0.015625)"/>
     <path id="DejaVuSans-44" d="M 1259 4147 
L 1259 519 
L 2022 519 
Q 2988 519 3436 956 
Q 3884 1394 3884 2338 
Q 3884 3275 3436 3711 
Q 2988 4147 2022 4147 
L 1259 4147 
z
M 628 4666 
L 1925 4666 
Q 3281 4666 3915 4102 
Q 4550 3538 4550 2338 
Q 4550 1131 3912 565 
Q 3275 0 1925 0 
L 628 0 
L 628 4666 
z
" transform="scale(0.015625)"/>
     <path id="DejaVuSans-34" d="M 2419 4116 
L 825 1625 
L 2419 1625 
L 2419 4116 
z
M 2253 4666 
L 3047 4666 
L 3047 1625 
L 3713 1625 
L 3713 1100 
L 3047 1100 
L 3047 0 
L 2419 0 
L 2419 1100 
L 313 1100 
L 313 1709 
L 2253 4666 
z
" transform="scale(0.015625)"/>
     <path id="DejaVuSans-33" d="M 2597 2516 
Q 3050 2419 3304 2112 
Q 3559 1806 3559 1356 
Q 3559 666 3084 287 
Q 2609 -91 1734 -91 
Q 1441 -91 1130 -33 
Q 819 25 488 141 
L 488 750 
Q 750 597 1062 519 
Q 1375 441 1716 441 
Q 2309 441 2620 675 
Q 2931 909 2931 1356 
Q 2931 1769 2642 2001 
Q 2353 2234 1838 2234 
L 1294 2234 
L 1294 2753 
L 1863 2753 
Q 2328 2753 2575 2939 
Q 2822 3125 2822 3475 
Q 2822 3834 2567 4026 
Q 2313 4219 1838 4219 
Q 1578 4219 1281 4162 
Q 984 4106 628 3988 
L 628 4550 
Q 988 4650 1302 4700 
Q 1616 4750 1894 4750 
Q 2613 4750 3031 4423 
Q 3450 4097 3450 3541 
Q 3450 3153 3228 2886 
Q 3006 2619 2597 2516 
z
" transform="scale(0.015625)"/>
     <path id="DejaVuSans-2d" d="M 313 2009 
L 1997 2009 
L 1997 1497 
L 313 1497 
L 313 2009 
z
" transform="scale(0.015625)"/>
    </defs>
    <use xlink:href="#DejaVuSans-54"/>
    <use xlink:href="#DejaVuSans-44" x="61.083984"/>
    <use xlink:href="#DejaVuSans-50" x="138.085938"/>
    <use xlink:href="#DejaVuSans-34" x="198.388672"/>
    <use xlink:href="#DejaVuSans-33" x="262.011719"/>
    <use xlink:href="#DejaVuSans-20" x="325.634766"/>
    <use xlink:href="#DejaVuSans-2d" x="357.421875"/>
    <use xlink:href="#DejaVuSans-20" x="393.505859"/>
    <use xlink:href="#DejaVuSans-61" x="425.292969"/>
    <use xlink:href="#DejaVuSans-69" x="486.572266"/>
    <use xlink:href="#DejaVuSans-72" x="514.355469"/>
    <use xlink:href="#DejaVuSans-70" x="555.46875"/>
    <use xlink:href="#DejaVuSans-75" x="618.945312"/>
    <use xlink:href="#DejaVuSans-66" x="682.324219"/>
   </g>
  </g>
 </g>
 <defs>
  <clipPath id="p244161eedc">
   <path d="M 231.306406 176.04 
C 231.306406 164.62577 229.058052 153.322529 224.690015 142.777156 
C 220.321979 132.231783 213.919207 122.649358 205.848128 114.578279 
C 197.777048 106.507199 188.194623 100.104428 177.64925 95.736391 
C 167.103877 91.368354 155.800636 89.12 144.386406 89.12 
C 132.972176 89.12 121.668936 91.368354 111.123562 95.736391 
C 100.578189 100.104428 90.995764 106.507199 82.924685 114.578279 
C 74.853606 122.649358 68.450834 132.231783 64.082797 142.777156 
C 59.714761 153.322529 57.466406 164.62577 57.466406 176.04 
C 57.466406 187.45423 59.714761 198.757471 64.082797 209.302844 
C 68.450834 219.848217 74.853606 229.430642 82.924685 237.501721 
C 90.995764 245.572801 100.578189 251.975572 111.123562 256.343609 
C 121.668936 260.711646 132.972176 262.96 144.386406 262.96 
C 155.800636 262.96 167.103877 260.711646 177.64925 256.343609 
C 188.194623 251.975572 197.777048 245.572801 205.848128 237.501721 
C 213.919207 229.430642 220.321979 219.848217 224.690015 209.302844 
C 229.058052 198.757471 231.306406 187.45423 231.306406 176.04 
M 144.386406 176.04 
C 144.386406 176.04 144.386406 176.04 144.386406 176.04 
C 144.386406 176.04 144.386406 176.04 144.386406 176.04 
C 144.386406 176.04 144.386406 176.04 144.386406 176.04 
C 144.386406 176.04 144.386406 176.04 144.386406 176.04 
C 144.386406 176.04 144.386406 176.04 144.386406 176.04 
C 144.386406 176.04 144.386406 176.04 144.386406 176.04 
C 144.386406 176.04 144.386406 176.04 144.386406 176.04 
C 144.386406 176.04 144.386406 176.04 144.386406 176.04 
C 144.386406 176.04 144.386406 176.04 144.386406 176.04 
C 144.386406 176.04 144.386406 176.04 144.386406 176.04 
C 144.386406 176.04 144.386406 176.04 144.386406 176.04 
C 144.386406 176.04 144.386406 176.04 144.386406 176.04 
C 144.386406 176.04 144.386406 176.04 144.386406 176.04 
C 144.386406 176.04 144.386406 176.04 144.386406 176.04 
C 144.386406 176.04 144.386406 176.04 144.386406 176.04 
C 144.386406 176.04 144.386406 176.04 144.386406 176.04 
z
"/>
  </clipPath>
 </defs>
</svg>
