<?xml version="1.0" encoding="utf-8" standalone="no"?>
<!DOCTYPE svg PUBLIC "-//W3C//DTD SVG 1.1//EN"
  "http://www.w3.org/Graphics/SVG/1.1/DTD/svg11.dtd">
<svg xmlns:xlink="http://www.w3.org/1999/xlink" width="285.658406pt" height="300.31625pt" viewBox="0 0 285.658406 300.31625" xmlns="http://www.w3.org/2000/svg" version="1.1">
 <metadata>
  <rdf:RDF xmlns:dc="http://purl.org/dc/elements/1.1/" xmlns:cc="http://creativecommons.org/ns#" xmlns:rdf="http://www.w3.org/1999/02/22-rdf-syntax-ns#">
   <cc:Work>
    <dc:type rdf:resource="http://purl.org/dc/dcmitype/StillImage"/>
    <dc:date>2026-06-29T23:13:55.816314</dc:date>
    <dc:format>image/svg+xml</dc:format>
    <dc:creator>
     <cc:Agent>
      <dc:title>Matplotlib v3.9.2, https://matplotlib.org/</dc:title>
     </cc:Agent>
    </dc:creator>
   </cc:Work>
  </rdf:RDF>
 </metadata>
 <defs>
  <style type="text/css">*{stroke-linejoin: round; stroke-linecap: butt}</style>
 </defs>
 <g id="figure_1">
  <g id="patch_1">
   <path d="M 0 300.31625 
L 285.658406 300.31625 
L 285.658406 0 
L 0 0 
z
" style="fill: #ffffff"/>
  </g>
  <g id="axes_1">
   <g id="patch_2">
    <path d="M 231.306406 176.04 
C 231.306406 164.62577 229.058052 153.322529 224.690015 142.777156 
C 220.321979 132.231783 213.919207 122.649358 205.848128 114.578279 
C 197.777048 106.507199 188.194623 100.104428 177.64925 95.736391 
C 167.103877 91.368354 155.800636 89.12 144.386406 89.12 
C 132.972176 89.12 121.668936 91.368354 111.123562 95.736391 
C 100.578189 100.104428 90.995764 106.507199 82.924685 114.578279 
C 74.853606 122.649358 68.450834 132.231783 64.082797 142.777156 
C 59.714761 153.322529 57.466406 164.62577 57.466406 176.04 
C 57.466406 187.45423 59.714761 198.757471 64.082797 209.302844 
C 68.450834 219.848217 74.853606 229.430642 82.924685 237.501721 
C 90.995764 245.572801 100.578189 251.975572 111.123562 256.343609 
C 121.668936 260.711646 132.972176 262.96 144.386406 262.96 
C 155.800636 262.96 167.103877 260.711646 177.64925 256.343609 
C 188.194623 251.975572 197.777048 245.572801 205.848128 237.501721 
C 213.919207 229.430642 220.321979 219.848217 224.690015 209.302844 
C 229.058052 198.757471 231.306406 187.45423 231.306406 176.04 
M 144.386406 176.04 
C 144.386406 176.04 144.386406 176.04 144.386406 176.04 
C 144.386406 176.04 144.386406 176.04 144.386406 176.04 
C 144.386406 176.04 144.386406 176.04 144.386406 176.04 
C 144.386406 176.04 144.386406 176.04 144.386406 176.04 
C 144.386406 176.04 144.386406 176.04 144.386406 176.04 
C 144.386406 176.04 144.386406 176.04 144.386406 176.04 
C 144.386406 176.04 144.386406 176.04 144.386406 176.04 
C 144.386406 176.04 144.386406 176.04 144.386406 176.04 
C 144.386406 176.04 144.386406 176.04 144.386406 176.04 
C 144.386406 176.04 144.386406 176.04 144.386406 176.04 
C 144.386406 176.04 144.386406 176.04 144.386406 176.04 
C 144.386406 176.04 144.386406 176.04 144.386406 176.04 
C 144.386406 176.04 144.386406 176.04 144.386406 176.04 
C 144.386406 176.04 144.386406 176.04 144.386406 176.04 
C 144.386406 176.04 144.386406 176.04 144.386406 176.04 
C 144.386406 176.04 144.386406 176.04 144.386406 176.04 
z
" style="fill: #ffffff"/>
   </g>
   <g id="PolyCollection_1">
    <defs>
     <path id="m648b8ef37b" d="M 203.101162 -124.27625 
L 203.053711 -124.27625 
L 173.623108 -174.915702 
L 118.734013 -168.707498 
L 66.24237 -124.27625 
L 135.545475 -108.963308 
L 163.845086 -90.572828 
L 203.053711 -124.27625 
L 203.101162 -124.27625 
L 203.101162 -124.27625 
L 164.079728 -90.166416 
L 135.087413 -108.169921 
L 65.284596 -124.27625 
L 118.253375 -169.539988 
L 173.962842 -175.504139 
L 203.101162 -124.27625 
z
" style="stroke: #f1605d; stroke-opacity: 0.15"/>
    </defs>
    <g clip-path="url(#pc0c493fddd)">
     <use xlink:href="#m648b8ef37b" x="0" y="300.31625" style="fill: #f1605d; fill-opacity: 0.15; stroke: #f1605d; stroke-opacity: 0.15"/>
    </g>
   </g>
   <g id="PolyCollection_2">
    <defs>
     <path id="md7941f4f3b" d="M 202.818152 -124.27625 
L 202.768711 -124.27625 
L 171.873813 -171.885835 
L 106.267084 -190.300853 
L 80.745563 -124.27625 
L 142.410952 -120.854662 
L 160.684542 -96.047051 
L 202.768711 -124.27625 
L 202.818152 -124.27625 
L 202.818152 -124.27625 
L 160.971404 -95.550191 
L 142.029554 -120.194062 
L 79.549245 -124.27625 
L 105.710169 -191.265458 
L 172.265445 -172.564162 
L 202.818152 -124.27625 
z
" style="stroke: #440f76; stroke-opacity: 0.15"/>
    </defs>
    <g clip-path="url(#pc0c493fddd)">
     <use xlink:href="#md7941f4f3b" x="0" y="300.31625" style="fill: #440f76; fill-opacity: 0.15; stroke: #440f76; stroke-opacity: 0.15"/>
    </g>
   </g>
   <g id="PolyCollection_3">
    <defs>
     <path id="mf8039fdc24" d="M 203.369643 -124.27625 
L 203.339653 -124.27625 
L 174.042599 -175.642282 
L 107.68278 -187.848796 
L 62.006459 -124.27625 
L 124.156705 -89.23738 
L 153.232032 -108.955177 
L 203.339653 -124.27625 
L 203.369643 -124.27625 
L 203.369643 -124.27625 
L 153.619986 -108.283221 
L 123.868405 -88.738029 
L 61.417315 -124.27625 
L 107.242968 -188.610572 
L 174.537681 -176.499789 
L 203.369643 -124.27625 
z
" style="stroke: #feca8d; stroke-opacity: 0.15"/>
    </defs>
    <g clip-path="url(#pc0c493fddd)">
     <use xlink:href="#mf8039fdc24" x="0" y="300.31625" style="fill: #feca8d; fill-opacity: 0.15; stroke: #feca8d; stroke-opacity: 0.15"/>
    </g>
   </g>
   <g id="matplotlib.axis_1">
    <g id="xtick_1">
     <g id="line2d_1">
      <path d="M 144.386406 176.04 
L 231.306406 176.04 
" clip-path="url(#pc0c493fddd)" style="fill: none; stroke: #b0b0b0; stroke-width: 0.8; stroke-linecap: square"/>
     </g>
     <g id="text_1">
      <!-- eye_opening -->
      <g transform="translate(213.482969 178.660313) scale(0.1 -0.1)">
       <defs>
        <path id="DejaVuSans-65" d="M 3597 1894 
L 3597 1613 
L 953 1613 
Q 991 1019 1311 708 
Q 1631 397 2203 397 
Q 2534 397 2845 478 
Q 3156 559 3463 722 
L 3463 178 
Q 3153 47 2828 -22 
Q 2503 -91 2169 -91 
Q 1331 -91 842 396 
Q 353 884 353 1716 
Q 353 2575 817 3079 
Q 1281 3584 2069 3584 
Q 2775 3584 3186 3129 
Q 3597 2675 3597 1894 
z
M 3022 2063 
Q 3016 2534 2758 2815 
Q 2500 3097 2075 3097 
Q 1594 3097 1305 2825 
Q 1016 2553 972 2059 
L 3022 2063 
z
" transform="scale(0.015625)"/>
        <path id="DejaVuSans-79" d="M 2059 -325 
Q 1816 -950 1584 -1140 
Q 1353 -1331 966 -1331 
L 506 -1331 
L 506 -850 
L 844 -850 
Q 1081 -850 1212 -737 
Q 1344 -625 1503 -206 
L 1606 56 
L 191 3500 
L 800 3500 
L 1894 763 
L 2988 3500 
L 3597 3500 
L 2059 -325 
z
" transform="scale(0.015625)"/>
        <path id="DejaVuSans-5f" d="M 3263 -1063 
L 3263 -1509 
L -63 -1509 
L -63 -1063 
L 3263 -1063 
z
" transform="scale(0.015625)"/>
        <path id="DejaVuSans-6f" d="M 1959 3097 
Q 1497 3097 1228 2736 
Q 959 2375 959 1747 
Q 959 1119 1226 758 
Q 1494 397 1959 397 
Q 2419 397 2687 759 
Q 2956 1122 2956 1747 
Q 2956 2369 2687 2733 
Q 2419 3097 1959 3097 
z
M 1959 3584 
Q 2709 3584 3137 3096 
Q 3566 2609 3566 1747 
Q 3566 888 3137 398 
Q 2709 -91 1959 -91 
Q 1206 -91 779 398 
Q 353 888 353 1747 
Q 353 2609 779 3096 
Q 1206 3584 1959 3584 
z
" transform="scale(0.015625)"/>
        <path id="DejaVuSans-70" d="M 1159 525 
L 1159 -1331 
L 581 -1331 
L 581 3500 
L 1159 3500 
L 1159 2969 
Q 1341 3281 1617 3432 
Q 1894 3584 2278 3584 
Q 2916 3584 3314 3078 
Q 3713 2572 3713 1747 
Q 3713 922 3314 415 
Q 2916 -91 2278 -91 
Q 1894 -91 1617 61 
Q 1341 213 1159 525 
z
M 3116 1747 
Q 3116 2381 2855 2742 
Q 2594 3103 2138 3103 
Q 1681 3103 1420 2742 
Q 1159 2381 1159 1747 
Q 1159 1113 1420 752 
Q 1681 391 2138 391 
Q 2594 391 2855 752 
Q 3116 1113 3116 1747 
z
" transform="scale(0.015625)"/>
        <path id="DejaVuSans-6e" d="M 3513 2113 
L 3513 0 
L 2938 0 
L 2938 2094 
Q 2938 2591 2744 2837 
Q 2550 3084 2163 3084 
Q 1697 3084 1428 2787 
Q 1159 2491 1159 1978 
L 1159 0 
L 581 0 
L 581 3500 
L 1159 3500 
L 1159 2956 
Q 1366 3272 1645 3428 
Q 1925 3584 2291 3584 
Q 2894 3584 3203 3211 
Q 3513 2838 3513 2113 
z
" transform="scale(0.015625)"/>
        <path id="DejaVuSans-69" d="M 603 3500 
L 1178 3500 
L 1178 0 
L 603 0 
L 603 3500 
z
M 603 4863 
L 1178 4863 
L 1178 4134 
L 603 4134 
L 603 4863 
z
" transform="scale(0.015625)"/>
        <path id="DejaVuSans-67" d="M 2906 1791 
Q 2906 2416 2648 2759 
Q 2391 3103 1925 3103 
Q 1463 3103 1205 2759 
Q 947 2416 947 1791 
Q 947 1169 1205 825 
Q 1463 481 1925 481 
Q 2391 481 2648 825 
Q 2906 1169 2906 1791 
z
M 3481 434 
Q 3481 -459 3084 -895 
Q 2688 -1331 1869 -1331 
Q 1566 -1331 1297 -1286 
Q 1028 -1241 775 -1147 
L 775 -588 
Q 1028 -725 1275 -790 
Q 1522 -856 1778 -856 
Q 2344 -856 2625 -561 
Q 2906 -266 2906 331 
L 2906 616 
Q 2728 306 2450 153 
Q 2172 0 1784 0 
Q 1141 0 747 490 
Q 353 981 353 1791 
Q 353 2603 747 3093 
Q 1141 3584 1784 3584 
Q 2172 3584 2450 3431 
Q 2728 3278 2906 2969 
L 2906 3500 
L 3481 3500 
L 3481 434 
z
" transform="scale(0.015625)"/>
       </defs>
       <use xlink:href="#DejaVuSans-65"/>
       <use xlink:href="#DejaVuSans-79" x="61.523438"/>
       <use xlink:href="#DejaVuSans-65" x="120.703125"/>
       <use xlink:href="#DejaVuSans-5f" x="182.226562"/>
       <use xlink:href="#DejaVuSans-6f" x="232.226562"/>
       <use xlink:href="#DejaVuSans-70" x="293.408203"/>
       <use xlink:href="#DejaVuSans-65" x="356.884766"/>
       <use xlink:href="#DejaVuSans-6e" x="418.408203"/>
       <use xlink:href="#DejaVuSans-69" x="481.787109"/>
       <use xlink:href="#DejaVuSans-6e" x="509.570312"/>
       <use xlink:href="#DejaVuSans-67" x="572.949219"/>
      </g>
     </g>
    </g>
    <g id="xtick_2">
     <g id="line2d_2">
      <path d="M 144.386406 176.04 
L 187.846406 100.765072 
" clip-path="url(#pc0c493fddd)" style="fill: none; stroke: #b0b0b0; stroke-width: 0.8; stroke-linecap: square"/>
     </g>
     <g id="text_2">
      <!-- ear_opening -->
      <g transform="translate(163.939375 91.261029) scale(0.1 -0.1)">
       <defs>
        <path id="DejaVuSans-61" d="M 2194 1759 
Q 1497 1759 1228 1600 
Q 959 1441 959 1056 
Q 959 750 1161 570 
Q 1363 391 1709 391 
Q 2188 391 2477 730 
Q 2766 1069 2766 1631 
L 2766 1759 
L 2194 1759 
z
M 3341 1997 
L 3341 0 
L 2766 0 
L 2766 531 
Q 2569 213 2275 61 
Q 1981 -91 1556 -91 
Q 1019 -91 701 211 
Q 384 513 384 1019 
Q 384 1609 779 1909 
Q 1175 2209 1959 2209 
L 2766 2209 
L 2766 2266 
Q 2766 2663 2505 2880 
Q 2244 3097 1772 3097 
Q 1472 3097 1187 3025 
Q 903 2953 641 2809 
L 641 3341 
Q 956 3463 1253 3523 
Q 1550 3584 1831 3584 
Q 2591 3584 2966 3190 
Q 3341 2797 3341 1997 
z
" transform="scale(0.015625)"/>
        <path id="DejaVuSans-72" d="M 2631 2963 
Q 2534 3019 2420 3045 
Q 2306 3072 2169 3072 
Q 1681 3072 1420 2755 
Q 1159 2438 1159 1844 
L 1159 0 
L 581 0 
L 581 3500 
L 1159 3500 
L 1159 2956 
Q 1341 3275 1631 3429 
Q 1922 3584 2338 3584 
Q 2397 3584 2469 3576 
Q 2541 3569 2628 3553 
L 2631 2963 
z
" transform="scale(0.015625)"/>
       </defs>
       <use xlink:href="#DejaVuSans-65"/>
       <use xlink:href="#DejaVuSans-61" x="61.523438"/>
       <use xlink:href="#DejaVuSans-72" x="122.802734"/>
       <use xlink:href="#DejaVuSans-5f" x="163.916016"/>
       <use xlink:href="#DejaVuSans-6f" x="213.916016"/>
       <use xlink:href="#DejaVuSans-70" x="275.097656"/>
       <use xlink:href="#DejaVuSans-65" x="338.574219"/>
       <use xlink:href="#DejaVuSans-6e" x="400.097656"/>
       <use xlink:href="#DejaVuSans-69" x="463.476562"/>
       <use xlink:href="#DejaVuSans-6e" x="491.259766"/>
       <use xlink:href="#DejaVuSans-67" x="554.638672"/>
      </g>
     </g>
    </g>
    <g id="xtick_3">
     <g id="line2d_3">
      <path d="M 144.386406 176.04 
L 100.926406 100.765072 
" clip-path="url(#pc0c493fddd)" style="fill: none; stroke: #b0b0b0; stroke-width: 0.8; stroke-linecap: square"/>
     </g>
     <g id="text_3">
      <!-- ear_position -->
      <g transform="translate(63.425625 91.261029) scale(0.1 -0.1)">
       <defs>
        <path id="DejaVuSans-73" d="M 2834 3397 
L 2834 2853 
Q 2591 2978 2328 3040 
Q 2066 3103 1784 3103 
Q 1356 3103 1142 2972 
Q 928 2841 928 2578 
Q 928 2378 1081 2264 
Q 1234 2150 1697 2047 
L 1894 2003 
Q 2506 1872 2764 1633 
Q 3022 1394 3022 966 
Q 3022 478 2636 193 
Q 2250 -91 1575 -91 
Q 1294 -91 989 -36 
Q 684 19 347 128 
L 347 722 
Q 666 556 975 473 
Q 1284 391 1588 391 
Q 1994 391 2212 530 
Q 2431 669 2431 922 
Q 2431 1156 2273 1281 
Q 2116 1406 1581 1522 
L 1381 1569 
Q 847 1681 609 1914 
Q 372 2147 372 2553 
Q 372 3047 722 3315 
Q 1072 3584 1716 3584 
Q 2034 3584 2315 3537 
Q 2597 3491 2834 3397 
z
" transform="scale(0.015625)"/>
        <path id="DejaVuSans-74" d="M 1172 4494 
L 1172 3500 
L 2356 3500 
L 2356 3053 
L 1172 3053 
L 1172 1153 
Q 1172 725 1289 603 
Q 1406 481 1766 481 
L 2356 481 
L 2356 0 
L 1766 0 
Q 1100 0 847 248 
Q 594 497 594 1153 
L 594 3053 
L 172 3053 
L 172 3500 
L 594 3500 
L 594 4494 
L 1172 4494 
z
" transform="scale(0.015625)"/>
       </defs>
       <use xlink:href="#DejaVuSans-65"/>
       <use xlink:href="#DejaVuSans-61" x="61.523438"/>
       <use xlink:href="#DejaVuSans-72" x="122.802734"/>
       <use xlink:href="#DejaVuSans-5f" x="163.916016"/>
       <use xlink:href="#DejaVuSans-70" x="213.916016"/>
       <use xlink:href="#DejaVuSans-6f" x="277.392578"/>
       <use xlink:href="#DejaVuSans-73" x="338.574219"/>
       <use xlink:href="#DejaVuSans-69" x="390.673828"/>
       <use xlink:href="#DejaVuSans-74" x="418.457031"/>
       <use xlink:href="#DejaVuSans-69" x="457.666016"/>
       <use xlink:href="#DejaVuSans-6f" x="485.449219"/>
       <use xlink:href="#DejaVuSans-6e" x="546.630859"/>
      </g>
     </g>
    </g>
    <g id="xtick_4">
     <g id="line2d_4">
      <path d="M 144.386406 176.04 
L 57.466406 176.04 
" clip-path="url(#pc0c493fddd)" style="fill: none; stroke: #b0b0b0; stroke-width: 0.8; stroke-linecap: square"/>
     </g>
     <g id="text_4">
      <!-- snout_position -->
      <g transform="translate(7.2 178.660313) scale(0.1 -0.1)">
       <defs>
        <path id="DejaVuSans-75" d="M 544 1381 
L 544 3500 
L 1119 3500 
L 1119 1403 
Q 1119 906 1312 657 
Q 1506 409 1894 409 
Q 2359 409 2629 706 
Q 2900 1003 2900 1516 
L 2900 3500 
L 3475 3500 
L 3475 0 
L 2900 0 
L 2900 538 
Q 2691 219 2414 64 
Q 2138 -91 1772 -91 
Q 1169 -91 856 284 
Q 544 659 544 1381 
z
M 1991 3584 
L 1991 3584 
z
" transform="scale(0.015625)"/>
       </defs>
       <use xlink:href="#DejaVuSans-73"/>
       <use xlink:href="#DejaVuSans-6e" x="52.099609"/>
       <use xlink:href="#DejaVuSans-6f" x="115.478516"/>
       <use xlink:href="#DejaVuSans-75" x="176.660156"/>
       <use xlink:href="#DejaVuSans-74" x="240.039062"/>
       <use xlink:href="#DejaVuSans-5f" x="279.248047"/>
       <use xlink:href="#DejaVuSans-70" x="329.248047"/>
       <use xlink:href="#DejaVuSans-6f" x="392.724609"/>
       <use xlink:href="#DejaVuSans-73" x="453.90625"/>
       <use xlink:href="#DejaVuSans-69" x="506.005859"/>
       <use xlink:href="#DejaVuSans-74" x="533.789062"/>
       <use xlink:href="#DejaVuSans-69" x="572.998047"/>
       <use xlink:href="#DejaVuSans-6f" x="600.78125"/>
       <use xlink:href="#DejaVuSans-6e" x="661.962891"/>
      </g>
     </g>
    </g>
    <g id="xtick_5">
     <g id="line2d_5">
      <path d="M 144.386406 176.04 
L 100.926406 251.314928 
" clip-path="url(#pc0c493fddd)" style="fill: none; stroke: #b0b0b0; stroke-width: 0.8; stroke-linecap: square"/>
     </g>
     <g id="text_5">
      <!-- mouth_position -->
      <g transform="translate(55.394375 266.059596) scale(0.1 -0.1)">
       <defs>
        <path id="DejaVuSans-6d" d="M 3328 2828 
Q 3544 3216 3844 3400 
Q 4144 3584 4550 3584 
Q 5097 3584 5394 3201 
Q 5691 2819 5691 2113 
L 5691 0 
L 5113 0 
L 5113 2094 
Q 5113 2597 4934 2840 
Q 4756 3084 4391 3084 
Q 3944 3084 3684 2787 
Q 3425 2491 3425 1978 
L 3425 0 
L 2847 0 
L 2847 2094 
Q 2847 2600 2669 2842 
Q 2491 3084 2119 3084 
Q 1678 3084 1418 2786 
Q 1159 2488 1159 1978 
L 1159 0 
L 581 0 
L 581 3500 
L 1159 3500 
L 1159 2956 
Q 1356 3278 1631 3431 
Q 1906 3584 2284 3584 
Q 2666 3584 2933 3390 
Q 3200 3197 3328 2828 
z
" transform="scale(0.015625)"/>
        <path id="DejaVuSans-68" d="M 3513 2113 
L 3513 0 
L 2938 0 
L 2938 2094 
Q 2938 2591 2744 2837 
Q 2550 3084 2163 3084 
Q 1697 3084 1428 2787 
Q 1159 2491 1159 1978 
L 1159 0 
L 581 0 
L 581 4863 
L 1159 4863 
L 1159 2956 
Q 1366 3272 1645 3428 
Q 1925 3584 2291 3584 
Q 2894 3584 3203 3211 
Q 3513 2838 3513 2113 
z
" transform="scale(0.015625)"/>
       </defs>
       <use xlink:href="#DejaVuSans-6d"/>
       <use xlink:href="#DejaVuSans-6f" x="97.412109"/>
       <use xlink:href="#DejaVuSans-75" x="158.59375"/>
       <use xlink:href="#DejaVuSans-74" x="221.972656"/>
       <use xlink:href="#DejaVuSans-68" x="261.181641"/>
       <use xlink:href="#DejaVuSans-5f" x="324.560547"/>
       <use xlink:href="#DejaVuSans-70" x="374.560547"/>
       <use xlink:href="#DejaVuSans-6f" x="438.037109"/>
       <use xlink:href="#DejaVuSans-73" x="499.21875"/>
       <use xlink:href="#DejaVuSans-69" x="551.318359"/>
       <use xlink:href="#DejaVuSans-74" x="579.101562"/>
       <use xlink:href="#DejaVuSans-69" x="618.310547"/>
       <use xlink:href="#DejaVuSans-6f" x="646.09375"/>
       <use xlink:href="#DejaVuSans-6e" x="707.275391"/>
      </g>
     </g>
    </g>
    <g id="xtick_6">
     <g id="line2d_6">
      <path d="M 144.386406 176.04 
L 187.846406 251.314928 
" clip-path="url(#pc0c493fddd)" style="fill: none; stroke: #b0b0b0; stroke-width: 0.8; stroke-linecap: square"/>
     </g>
     <g id="text_6">
      <!-- face_inclination -->
      <g transform="translate(155.801094 266.059596) scale(0.1 -0.1)">
       <defs>
        <path id="DejaVuSans-66" d="M 2375 4863 
L 2375 4384 
L 1825 4384 
Q 1516 4384 1395 4259 
Q 1275 4134 1275 3809 
L 1275 3500 
L 2222 3500 
L 2222 3053 
L 1275 3053 
L 1275 0 
L 697 0 
L 697 3053 
L 147 3053 
L 147 3500 
L 697 3500 
L 697 3744 
Q 697 4328 969 4595 
Q 1241 4863 1831 4863 
L 2375 4863 
z
" transform="scale(0.015625)"/>
        <path id="DejaVuSans-63" d="M 3122 3366 
L 3122 2828 
Q 2878 2963 2633 3030 
Q 2388 3097 2138 3097 
Q 1578 3097 1268 2742 
Q 959 2388 959 1747 
Q 959 1106 1268 751 
Q 1578 397 2138 397 
Q 2388 397 2633 464 
Q 2878 531 3122 666 
L 3122 134 
Q 2881 22 2623 -34 
Q 2366 -91 2075 -91 
Q 1284 -91 818 406 
Q 353 903 353 1747 
Q 353 2603 823 3093 
Q 1294 3584 2113 3584 
Q 2378 3584 2631 3529 
Q 2884 3475 3122 3366 
z
" transform="scale(0.015625)"/>
        <path id="DejaVuSans-6c" d="M 603 4863 
L 1178 4863 
L 1178 0 
L 603 0 
L 603 4863 
z
" transform="scale(0.015625)"/>
       </defs>
       <use xlink:href="#DejaVuSans-66"/>
       <use xlink:href="#DejaVuSans-61" x="35.205078"/>
       <use xlink:href="#DejaVuSans-63" x="96.484375"/>
       <use xlink:href="#DejaVuSans-65" x="151.464844"/>
       <use xlink:href="#DejaVuSans-5f" x="212.988281"/>
       <use xlink:href="#DejaVuSans-69" x="262.988281"/>
       <use xlink:href="#DejaVuSans-6e" x="290.771484"/>
       <use xlink:href="#DejaVuSans-63" x="354.150391"/>
       <use xlink:href="#DejaVuSans-6c" x="409.130859"/>
       <use xlink:href="#DejaVuSans-69" x="436.914062"/>
       <use xlink:href="#DejaVuSans-6e" x="464.697266"/>
       <use xlink:href="#DejaVuSans-61" x="528.076172"/>
       <use xlink:href="#DejaVuSans-74" x="589.355469"/>
       <use xlink:href="#DejaVuSans-69" x="628.564453"/>
       <use xlink:href="#DejaVuSans-6f" x="656.347656"/>
       <use xlink:href="#DejaVuSans-6e" x="717.529297"/>
      </g>
     </g>
    </g>
   </g>
   <g id="matplotlib.axis_2">
    <g id="ytick_1">
     <g id="line2d_7">
      <path d="M 153.136351 176.04 
C 153.136351 174.890968 152.910016 173.753109 152.470301 172.691541 
C 152.030585 171.629974 151.38604 170.665343 150.573551 169.852855 
C 149.761063 169.040366 148.796432 168.395821 147.734865 167.956105 
C 146.673298 167.51639 145.535438 167.290056 144.386406 167.290056 
C 143.237374 167.290056 142.099515 167.51639 141.037947 167.956105 
C 139.97638 168.395821 139.01175 169.040366 138.199261 169.852855 
C 137.386773 170.665343 136.742227 171.629974 136.302512 172.691541 
C 135.862796 173.753109 135.636462 174.890968 135.636462 176.04 
C 135.636462 177.189032 135.862796 178.326891 136.302512 179.388459 
C 136.742227 180.450026 137.386773 181.414657 138.199261 182.227145 
C 139.01175 183.039634 139.97638 183.684179 141.037947 184.123895 
C 142.099515 184.56361 143.237374 184.789944 144.386406 184.789944 
C 145.535438 184.789944 146.673298 184.56361 147.734865 184.123895 
C 148.796432 183.684179 149.761063 183.039634 150.573551 182.227145 
C 151.38604 181.414657 152.030585 180.450026 152.470301 179.388459 
C 152.910016 178.326891 153.136351 177.189032 153.136351 176.04 
" clip-path="url(#pc0c493fddd)" style="fill: none; stroke: #b0b0b0; stroke-width: 0.8; stroke-linecap: square"/>
     </g>
     <g id="text_7">
      <!-- −0.6 -->
      <g transform="translate(152.470301 170.611854) scale(0.1 -0.1)">
       <defs>
        <path id="DejaVuSans-2212" d="M 678 2272 
L 4684 2272 
L 4684 1741 
L 678 1741 
L 678 2272 
z
" transform="scale(0.015625)"/>
        <path id="DejaVuSans-30" d="M 2034 4250 
Q 1547 4250 1301 3770 
Q 1056 3291 1056 2328 
Q 1056 1369 1301 889 
Q 1547 409 2034 409 
Q 2525 409 2770 889 
Q 3016 1369 3016 2328 
Q 3016 3291 2770 3770 
Q 2525 4250 2034 4250 
z
M 2034 4750 
Q 2819 4750 3233 4129 
Q 3647 3509 3647 2328 
Q 3647 1150 3233 529 
Q 2819 -91 2034 -91 
Q 1250 -91 836 529 
Q 422 1150 422 2328 
Q 422 3509 836 4129 
Q 1250 4750 2034 4750 
z
" transform="scale(0.015625)"/>
        <path id="DejaVuSans-2e" d="M 684 794 
L 1344 794 
L 1344 0 
L 684 0 
L 684 794 
z
" transform="scale(0.015625)"/>
        <path id="DejaVuSans-36" d="M 2113 2584 
Q 1688 2584 1439 2293 
Q 1191 2003 1191 1497 
Q 1191 994 1439 701 
Q 1688 409 2113 409 
Q 2538 409 2786 701 
Q 3034 994 3034 1497 
Q 3034 2003 2786 2293 
Q 2538 2584 2113 2584 
z
M 3366 4563 
L 3366 3988 
Q 3128 4100 2886 4159 
Q 2644 4219 2406 4219 
Q 1781 4219 1451 3797 
Q 1122 3375 1075 2522 
Q 1259 2794 1537 2939 
Q 1816 3084 2150 3084 
Q 2853 3084 3261 2657 
Q 3669 2231 3669 1497 
Q 3669 778 3244 343 
Q 2819 -91 2113 -91 
Q 1303 -91 875 529 
Q 447 1150 447 2328 
Q 447 3434 972 4092 
Q 1497 4750 2381 4750 
Q 2619 4750 2861 4703 
Q 3103 4656 3366 4563 
z
" transform="scale(0.015625)"/>
       </defs>
       <use xlink:href="#DejaVuSans-2212"/>
       <use xlink:href="#DejaVuSans-30" x="83.789062"/>
       <use xlink:href="#DejaVuSans-2e" x="147.412109"/>
       <use xlink:href="#DejaVuSans-36" x="179.199219"/>
      </g>
     </g>
    </g>
    <g id="ytick_2">
     <g id="line2d_8">
      <path d="M 169.993993 176.04 
C 169.993993 172.677243 169.331603 169.347184 168.044731 166.240401 
C 166.75786 163.133618 164.871533 160.31053 162.493704 157.932702 
C 160.115876 155.554873 157.292788 153.668546 154.186005 152.381675 
C 151.079223 151.094803 147.749164 150.432413 144.386406 150.432413 
C 141.023649 150.432413 137.69359 151.094803 134.586807 152.381675 
C 131.480024 153.668546 128.656937 155.554873 126.279108 157.932702 
C 123.90128 160.31053 122.014953 163.133618 120.728081 166.240401 
C 119.44121 169.347184 118.77882 172.677243 118.77882 176.04 
C 118.77882 179.402757 119.44121 182.732816 120.728081 185.839599 
C 122.014953 188.946382 123.90128 191.76947 126.279108 194.147298 
C 128.656937 196.525127 131.480024 198.411454 134.586807 199.698325 
C 137.69359 200.985197 141.023649 201.647587 144.386406 201.647587 
C 147.749164 201.647587 151.079223 200.985197 154.186005 199.698325 
C 157.292788 198.411454 160.115876 196.525127 162.493704 194.147298 
C 164.871533 191.76947 166.75786 188.946382 168.044731 185.839599 
C 169.331603 182.732816 169.993993 179.402757 169.993993 176.04 
" clip-path="url(#pc0c493fddd)" style="fill: none; stroke: #b0b0b0; stroke-width: 0.8; stroke-linecap: square"/>
     </g>
     <g id="text_8">
      <!-- −0.4 -->
      <g transform="translate(168.044731 164.160713) scale(0.1 -0.1)">
       <defs>
        <path id="DejaVuSans-34" d="M 2419 4116 
L 825 1625 
L 2419 1625 
L 2419 4116 
z
M 2253 4666 
L 3047 4666 
L 3047 1625 
L 3713 1625 
L 3713 1100 
L 3047 1100 
L 3047 0 
L 2419 0 
L 2419 1100 
L 313 1100 
L 313 1709 
L 2253 4666 
z
" transform="scale(0.015625)"/>
       </defs>
       <use xlink:href="#DejaVuSans-2212"/>
       <use xlink:href="#DejaVuSans-30" x="83.789062"/>
       <use xlink:href="#DejaVuSans-2e" x="147.412109"/>
       <use xlink:href="#DejaVuSans-34" x="179.199219"/>
      </g>
     </g>
    </g>
    <g id="ytick_3">
     <g id="line2d_9">
      <path d="M 186.851635 176.04 
C 186.851635 170.463517 185.753189 164.941259 183.619162 159.789261 
C 181.485134 154.637262 178.357026 149.955718 174.413857 146.012549 
C 170.470689 142.06938 165.789144 138.941272 160.637146 136.807244 
C 155.485147 134.673217 149.962889 133.574771 144.386406 133.574771 
C 138.809924 133.574771 133.287665 134.673217 128.135667 136.807244 
C 122.983669 138.941272 118.302124 142.06938 114.358955 146.012549 
C 110.415786 149.955718 107.287678 154.637262 105.153651 159.789261 
C 103.019623 164.941259 101.921178 170.463517 101.921178 176.04 
C 101.921178 181.616483 103.019623 187.138741 105.153651 192.290739 
C 107.287678 197.442738 110.415786 202.124282 114.358955 206.067451 
C 118.302124 210.01062 122.983669 213.138728 128.135667 215.272756 
C 133.287665 217.406783 138.809924 218.505229 144.386406 218.505229 
C 149.962889 218.505229 155.485147 217.406783 160.637146 215.272756 
C 165.789144 213.138728 170.470689 210.01062 174.413857 206.067451 
C 178.357026 202.124282 181.485134 197.442738 183.619162 192.290739 
C 185.753189 187.138741 186.851635 181.616483 186.851635 176.04 
" clip-path="url(#pc0c493fddd)" style="fill: none; stroke: #b0b0b0; stroke-width: 0.8; stroke-linecap: square"/>
     </g>
     <g id="text_9">
      <!-- −0.2 -->
      <g transform="translate(183.619162 157.709573) scale(0.1 -0.1)">
       <defs>
        <path id="DejaVuSans-32" d="M 1228 531 
L 3431 531 
L 3431 0 
L 469 0 
L 469 531 
Q 828 903 1448 1529 
Q 2069 2156 2228 2338 
Q 2531 2678 2651 2914 
Q 2772 3150 2772 3378 
Q 2772 3750 2511 3984 
Q 2250 4219 1831 4219 
Q 1534 4219 1204 4116 
Q 875 4013 500 3803 
L 500 4441 
Q 881 4594 1212 4672 
Q 1544 4750 1819 4750 
Q 2544 4750 2975 4387 
Q 3406 4025 3406 3419 
Q 3406 3131 3298 2873 
Q 3191 2616 2906 2266 
Q 2828 2175 2409 1742 
Q 1991 1309 1228 531 
z
" transform="scale(0.015625)"/>
       </defs>
       <use xlink:href="#DejaVuSans-2212"/>
       <use xlink:href="#DejaVuSans-30" x="83.789062"/>
       <use xlink:href="#DejaVuSans-2e" x="147.412109"/>
       <use xlink:href="#DejaVuSans-32" x="179.199219"/>
      </g>
     </g>
    </g>
    <g id="ytick_4">
     <g id="line2d_10">
      <path d="M 203.709277 176.04 
C 203.709277 168.249792 202.174776 160.535334 199.193592 153.33812 
C 196.212409 146.140906 191.842519 139.600905 186.33401 134.092396 
C 180.825502 128.583887 174.2855 124.213997 167.088286 121.232814 
C 159.891072 118.25163 152.176614 116.717129 144.386406 116.717129 
C 136.596198 116.717129 128.88174 118.25163 121.684526 121.232814 
C 114.487313 124.213997 107.947311 128.583887 102.438802 134.092396 
C 96.930293 139.600905 92.560404 146.140906 89.57922 153.33812 
C 86.598037 160.535334 85.063535 168.249792 85.063535 176.04 
C 85.063535 183.830208 86.598037 191.544666 89.57922 198.74188 
C 92.560404 205.939094 96.930293 212.479095 102.438802 217.987604 
C 107.947311 223.496113 114.487313 227.866003 121.684526 230.847186 
C 128.88174 233.82837 136.596198 235.362871 144.386406 235.362871 
C 152.176614 235.362871 159.891072 233.82837 167.088286 230.847186 
C 174.2855 227.866003 180.825502 223.496113 186.33401 217.987604 
C 191.842519 212.479095 196.212409 205.939094 199.193592 198.74188 
C 202.174776 191.544666 203.709277 183.830208 203.709277 176.04 
" clip-path="url(#pc0c493fddd)" style="fill: none; stroke: #b0b0b0; stroke-width: 0.8; stroke-linecap: square"/>
     </g>
     <g id="text_10">
      <!-- 0.0 -->
      <g transform="translate(199.193592 151.258433) scale(0.1 -0.1)">
       <use xlink:href="#DejaVuSans-30"/>
       <use xlink:href="#DejaVuSans-2e" x="63.623047"/>
       <use xlink:href="#DejaVuSans-30" x="95.410156"/>
      </g>
     </g>
    </g>
    <g id="ytick_5">
     <g id="line2d_11">
      <path d="M 220.566919 176.04 
C 220.566919 166.036067 218.596362 156.129409 214.768023 146.88698 
C 210.939683 137.644551 205.328013 129.246092 198.254164 122.172243 
C 191.180314 115.098394 182.781856 109.486723 173.539426 105.658383 
C 164.296997 101.830044 154.39034 99.859487 144.386406 99.859487 
C 134.382473 99.859487 124.475815 101.830044 115.233386 105.658383 
C 105.990957 109.486723 97.592498 115.098394 90.518649 122.172243 
C 83.4448 129.246092 77.833129 137.644551 74.00479 146.88698 
C 70.17645 156.129409 68.205893 166.036067 68.205893 176.04 
C 68.205893 186.043933 70.17645 195.950591 74.00479 205.19302 
C 77.833129 214.435449 83.4448 222.833908 90.518649 229.907757 
C 97.592498 236.981606 105.990957 242.593277 115.233386 246.421617 
C 124.475815 250.249956 134.382473 252.220513 144.386406 252.220513 
C 154.39034 252.220513 164.296997 250.249956 173.539426 246.421617 
C 182.781856 242.593277 191.180314 236.981606 198.254164 229.907757 
C 205.328013 222.833908 210.939683 214.435449 214.768023 205.19302 
C 218.596362 195.950591 220.566919 186.043933 220.566919 176.04 
" clip-path="url(#pc0c493fddd)" style="fill: none; stroke: #b0b0b0; stroke-width: 0.8; stroke-linecap: square"/>
     </g>
     <g id="text_11">
      <!-- 0.2 -->
      <g transform="translate(214.768023 144.807292) scale(0.1 -0.1)">
       <use xlink:href="#DejaVuSans-30"/>
       <use xlink:href="#DejaVuSans-2e" x="63.623047"/>
       <use xlink:href="#DejaVuSans-32" x="95.410156"/>
      </g>
     </g>
    </g>
   </g>
   <g id="line2d_12">
    <path d="M 203.077436 176.04 
L 173.792975 125.106329 
L 118.493694 131.192507 
L 65.763483 176.04 
L 135.316444 191.749636 
L 163.962407 209.946628 
L 203.077436 176.04 
" clip-path="url(#pc0c493fddd)" style="fill: none; stroke: #f1605d; stroke-width: 2; stroke-linecap: square"/>
   </g>
   <g id="line2d_13">
    <path d="M 202.793431 176.04 
L 172.069629 128.091252 
L 105.988626 109.533094 
L 80.147404 176.04 
L 142.220253 179.791888 
L 160.827973 204.517629 
L 202.793431 176.04 
" clip-path="url(#pc0c493fddd)" style="fill: none; stroke: #440f76; stroke-width: 2; stroke-linecap: square"/>
   </g>
   <g id="line2d_14">
    <path d="M 203.354648 176.04 
L 174.29014 124.245214 
L 107.462874 112.086566 
L 61.711887 176.04 
L 124.012555 211.328546 
L 153.426009 191.697051 
L 203.354648 176.04 
" clip-path="url(#pc0c493fddd)" style="fill: none; stroke: #feca8d; stroke-width: 2; stroke-linecap: square"/>
   </g>
   <g id="patch_3">
    <path d="M 231.306406 176.04 
C 231.306406 164.62577 229.058052 153.322529 224.690015 142.777156 
C 220.321979 132.231783 213.919207 122.649358 205.848128 114.578279 
C 197.777048 106.507199 188.194623 100.104428 177.64925 95.736391 
C 167.103877 91.368354 155.800636 89.12 144.386406 89.12 
C 132.972176 89.12 121.668936 91.368354 111.123562 95.736391 
C 100.578189 100.104428 90.995764 106.507199 82.924685 114.578279 
C 74.853606 122.649358 68.450834 132.231783 64.082797 142.777156 
C 59.714761 153.322529 57.466406 164.62577 57.466406 176.04 
C 57.466406 187.45423 59.714761 198.757471 64.082797 209.302844 
C 68.450834 219.848217 74.853606 229.430642 82.924685 237.501721 
C 90.995764 245.572801 100.578189 251.975572 111.123562 256.343609 
C 121.668936 260.711646 132.972176 262.96 144.386406 262.96 
C 155.800636 262.96 167.103877 260.711646 177.64925 256.343609 
C 188.194623 251.975572 197.777048 245.572801 205.848128 237.501721 
C 213.919207 229.430642 220.321979 219.848217 224.690015 209.302844 
C 229.058052 198.757471 231.306406 187.45423 231.306406 176.04 
" style="fill: none; stroke: #000000; stroke-width: 0.8; stroke-linejoin: miter; stroke-linecap: square"/>
   </g>
   <g id="text_12">
    <!-- neutral -->
    <g transform="translate(122.927031 77.662591) scale(0.12 -0.12)">
     <use xlink:href="#DejaVuSans-6e"/>
     <use xlink:href="#DejaVuSans-65" x="63.378906"/>
     <use xlink:href="#DejaVuSans-75" x="124.902344"/>
     <use xlink:href="#DejaVuSans-74" x="188.28125"/>
     <use xlink:href="#DejaVuSans-72" x="227.490234"/>
     <use xlink:href="#DejaVuSans-61" x="268.603516"/>
     <use xlink:href="#DejaVuSans-6c" x="329.882812"/>
    </g>
   </g>
   <g id="legend_1">
    <g id="patch_4">
     <path d="M 182.109969 54.234375 
L 276.458406 54.234375 
Q 278.458406 54.234375 278.458406 52.234375 
L 278.458406 9.2 
Q 278.458406 7.2 276.458406 7.2 
L 182.109969 7.2 
Q 180.109969 7.2 180.109969 9.2 
L 180.109969 52.234375 
Q 180.109969 54.234375 182.109969 54.234375 
z
" style="fill: #ffffff; opacity: 0.8; stroke: #cccccc; stroke-linejoin: miter"/>
    </g>
    <g id="line2d_15">
     <path d="M 184.109969 15.298438 
L 194.109969 15.298438 
L 204.109969 15.298438 
" style="fill: none; stroke: #f1605d; stroke-width: 2; stroke-linecap: square"/>
    </g>
    <g id="text_13">
     <!-- 1st week -->
     <g transform="translate(212.109969 18.798438) scale(0.1 -0.1)">
      <defs>
       <path id="DejaVuSans-31" d="M 794 531 
L 1825 531 
L 1825 4091 
L 703 3866 
L 703 4441 
L 1819 4666 
L 2450 4666 
L 2450 531 
L 3481 531 
L 3481 0 
L 794 0 
L 794 531 
z
" transform="scale(0.015625)"/>
       <path id="DejaVuSans-20" transform="scale(0.015625)"/>
       <path id="DejaVuSans-77" d="M 269 3500 
L 844 3500 
L 1563 769 
L 2278 3500 
L 2956 3500 
L 3675 769 
L 4391 3500 
L 4966 3500 
L 4050 0 
L 3372 0 
L 2619 2869 
L 1863 0 
L 1184 0 
L 269 3500 
z
" transform="scale(0.015625)"/>
       <path id="DejaVuSans-6b" d="M 581 4863 
L 1159 4863 
L 1159 1991 
L 2875 3500 
L 3609 3500 
L 1753 1863 
L 3688 0 
L 2938 0 
L 1159 1709 
L 1159 0 
L 581 0 
L 581 4863 
z
" transform="scale(0.015625)"/>
      </defs>
      <use xlink:href="#DejaVuSans-31"/>
      <use xlink:href="#DejaVuSans-73" x="63.623047"/>
      <use xlink:href="#DejaVuSans-74" x="115.722656"/>
      <use xlink:href="#DejaVuSans-20" x="154.931641"/>
      <use xlink:href="#DejaVuSans-77" x="186.71875"/>
      <use xlink:href="#DejaVuSans-65" x="268.505859"/>
      <use xlink:href="#DejaVuSans-65" x="330.029297"/>
      <use xlink:href="#DejaVuSans-6b" x="391.552734"/>
     </g>
    </g>
    <g id="line2d_16">
     <path d="M 184.109969 29.976563 
L 194.109969 29.976563 
L 204.109969 29.976563 
" style="fill: none; stroke: #440f76; stroke-width: 2; stroke-linecap: square"/>
    </g>
    <g id="text_14">
     <!-- 2nd week -->
     <g transform="translate(212.109969 33.476563) scale(0.1 -0.1)">
      <defs>
       <path id="DejaVuSans-64" d="M 2906 2969 
L 2906 4863 
L 3481 4863 
L 3481 0 
L 2906 0 
L 2906 525 
Q 2725 213 2448 61 
Q 2172 -91 1784 -91 
Q 1150 -91 751 415 
Q 353 922 353 1747 
Q 353 2572 751 3078 
Q 1150 3584 1784 3584 
Q 2172 3584 2448 3432 
Q 2725 3281 2906 2969 
z
M 947 1747 
Q 947 1113 1208 752 
Q 1469 391 1925 391 
Q 2381 391 2643 752 
Q 2906 1113 2906 1747 
Q 2906 2381 2643 2742 
Q 2381 3103 1925 3103 
Q 1469 3103 1208 2742 
Q 947 2381 947 1747 
z
" transform="scale(0.015625)"/>
      </defs>
      <use xlink:href="#DejaVuSans-32"/>
      <use xlink:href="#DejaVuSans-6e" x="63.623047"/>
      <use xlink:href="#DejaVuSans-64" x="127.001953"/>
      <use xlink:href="#DejaVuSans-20" x="190.478516"/>
      <use xlink:href="#DejaVuSans-77" x="222.265625"/>
      <use xlink:href="#DejaVuSans-65" x="304.052734"/>
      <use xlink:href="#DejaVuSans-65" x="365.576172"/>
      <use xlink:href="#DejaVuSans-6b" x="427.099609"/>
     </g>
    </g>
    <g id="line2d_17">
     <path d="M 184.109969 44.654688 
L 194.109969 44.654688 
L 204.109969 44.654688 
" style="fill: none; stroke: #feca8d; stroke-width: 2; stroke-linecap: square"/>
    </g>
    <g id="text_15">
     <!-- Preinduction -->
     <g transform="translate(212.109969 48.154688) scale(0.1 -0.1)">
      <defs>
       <path id="DejaVuSans-50" d="M 1259 4147 
L 1259 2394 
L 2053 2394 
Q 2494 2394 2734 2622 
Q 2975 2850 2975 3272 
Q 2975 3691 2734 3919 
Q 2494 4147 2053 4147 
L 1259 4147 
z
M 628 4666 
L 2053 4666 
Q 2838 4666 3239 4311 
Q 3641 3956 3641 3272 
Q 3641 2581 3239 2228 
Q 2838 1875 2053 1875 
L 1259 1875 
L 1259 0 
L 628 0 
L 628 4666 
z
" transform="scale(0.015625)"/>
      </defs>
      <use xlink:href="#DejaVuSans-50"/>
      <use xlink:href="#DejaVuSans-72" x="58.552734"/>
      <use xlink:href="#DejaVuSans-65" x="97.416016"/>
      <use xlink:href="#DejaVuSans-69" x="158.939453"/>
      <use xlink:href="#DejaVuSans-6e" x="186.722656"/>
      <use xlink:href="#DejaVuSans-64" x="250.101562"/>
      <use xlink:href="#DejaVuSans-75" x="313.578125"/>
      <use xlink:href="#DejaVuSans-63" x="376.957031"/>
      <use xlink:href="#DejaVuSans-74" x="431.9375"/>
      <use xlink:href="#DejaVuSans-69" x="471.146484"/>
      <use xlink:href="#DejaVuSans-6f" x="498.929688"/>
      <use xlink:href="#DejaVuSans-6e" x="560.111328"/>
     </g>
    </g>
   </g>
  </g>
  <g id="text_16">
   <!-- TDP43 - neutral -->
   <g transform="translate(80.061719 288.956875) scale(0.2 -0.2)">
    <defs>
     <path id="DejaVuSans-54" d="M -19 4666 
L 3928 4666 
L 3928 4134 
L 2272 4134 
L 2272 0 
L 1638 0 
L 1638 4134 
L -19 4134 
L -19 4666 
z
" transform="scale(0.015625)"/>
     <path id="DejaVuSans-44" d="M 1259 4147 
L 1259 519 
L 2022 519 
Q 2988 519 3436 956 
Q 3884 1394 3884 2338 
Q 3884 3275 3436 3711 
Q 2988 4147 2022 4147 
L 1259 4147 
z
M 628 4666 
L 1925 4666 
Q 3281 4666 3915 4102 
Q 4550 3538 4550 2338 
Q 4550 1131 3912 565 
Q 3275 0 1925 0 
L 628 0 
L 628 4666 
z
" transform="scale(0.015625)"/>
     <path id="DejaVuSans-33" d="M 2597 2516 
Q 3050 2419 3304 2112 
Q 3559 1806 3559 1356 
Q 3559 666 3084 287 
Q 2609 -91 1734 -91 
Q 1441 -91 1130 -33 
Q 819 25 488 141 
L 488 750 
Q 750 597 1062 519 
Q 1375 441 1716 441 
Q 2309 441 2620 675 
Q 2931 909 2931 1356 
Q 2931 1769 2642 2001 
Q 2353 2234 1838 2234 
L 1294 2234 
L 1294 2753 
L 1863 2753 
Q 2328 2753 2575 2939 
Q 2822 3125 2822 3475 
Q 2822 3834 2567 4026 
Q 2313 4219 1838 4219 
Q 1578 4219 1281 4162 
Q 984 4106 628 3988 
L 628 4550 
Q 988 4650 1302 4700 
Q 1616 4750 1894 4750 
Q 2613 4750 3031 4423 
Q 3450 4097 3450 3541 
Q 3450 3153 3228 2886 
Q 3006 2619 2597 2516 
z
" transform="scale(0.015625)"/>
     <path id="DejaVuSans-2d" d="M 313 2009 
L 1997 2009 
L 1997 1497 
L 313 1497 
L 313 2009 
z
" transform="scale(0.015625)"/>
    </defs>
    <use xlink:href="#DejaVuSans-54"/>
    <use xlink:href="#DejaVuSans-44" x="61.083984"/>
    <use xlink:href="#DejaVuSans-50" x="138.085938"/>
    <use xlink:href="#DejaVuSans-34" x="198.388672"/>
    <use xlink:href="#DejaVuSans-33" x="262.011719"/>
    <use xlink:href="#DejaVuSans-20" x="325.634766"/>
    <use xlink:href="#DejaVuSans-2d" x="357.421875"/>
    <use xlink:href="#DejaVuSans-20" x="393.505859"/>
    <use xlink:href="#DejaVuSans-6e" x="425.292969"/>
    <use xlink:href="#DejaVuSans-65" x="488.671875"/>
    <use xlink:href="#DejaVuSans-75" x="550.195312"/>
    <use xlink:href="#DejaVuSans-74" x="613.574219"/>
    <use xlink:href="#DejaVuSans-72" x="652.783203"/>
    <use xlink:href="#DejaVuSans-61" x="693.896484"/>
    <use xlink:href="#DejaVuSans-6c" x="755.175781"/>
   </g>
  </g>
 </g>
 <defs>
  <clipPath id="pc0c493fddd">
   <path d="M 231.306406 176.04 
C 231.306406 164.62577 229.058052 153.322529 224.690015 142.777156 
C 220.321979 132.231783 213.919207 122.649358 205.848128 114.578279 
C 197.777048 106.507199 188.194623 100.104428 177.64925 95.736391 
C 167.103877 91.368354 155.800636 89.12 144.386406 89.12 
C 132.972176 89.12 121.668936 91.368354 111.123562 95.736391 
C 100.578189 100.104428 90.995764 106.507199 82.924685 114.578279 
C 74.853606 122.649358 68.450834 132.231783 64.082797 142.777156 
C 59.714761 153.322529 57.466406 164.62577 57.466406 176.04 
C 57.466406 187.45423 59.714761 198.757471 64.082797 209.302844 
C 68.450834 219.848217 74.853606 229.430642 82.924685 237.501721 
C 90.995764 245.572801 100.578189 251.975572 111.123562 256.343609 
C 121.668936 260.711646 132.972176 262.96 144.386406 262.96 
C 155.800636 262.96 167.103877 260.711646 177.64925 256.343609 
C 188.194623 251.975572 197.777048 245.572801 205.848128 237.501721 
C 213.919207 229.430642 220.321979 219.848217 224.690015 209.302844 
C 229.058052 198.757471 231.306406 187.45423 231.306406 176.04 
M 144.386406 176.04 
C 144.386406 176.04 144.386406 176.04 144.386406 176.04 
C 144.386406 176.04 144.386406 176.04 144.386406 176.04 
C 144.386406 176.04 144.386406 176.04 144.386406 176.04 
C 144.386406 176.04 144.386406 176.04 144.386406 176.04 
C 144.386406 176.04 144.386406 176.04 144.386406 176.04 
C 144.386406 176.04 144.386406 176.04 144.386406 176.04 
C 144.386406 176.04 144.386406 176.04 144.386406 176.04 
C 144.386406 176.04 144.386406 176.04 144.386406 176.04 
C 144.386406 176.04 144.386406 176.04 144.386406 176.04 
C 144.386406 176.04 144.386406 176.04 144.386406 176.04 
C 144.386406 176.04 144.386406 176.04 144.386406 176.04 
C 144.386406 176.04 144.386406 176.04 144.386406 176.04 
C 144.386406 176.04 144.386406 176.04 144.386406 176.04 
C 144.386406 176.04 144.386406 176.04 144.386406 176.04 
C 144.386406 176.04 144.386406 176.04 144.386406 176.04 
C 144.386406 176.04 144.386406 176.04 144.386406 176.04 
z
"/>
  </clipPath>
 </defs>
</svg>
