<?xml version="1.0" encoding="utf-8" standalone="no"?>
<!DOCTYPE svg PUBLIC "-//W3C//DTD SVG 1.1//EN"
  "http://www.w3.org/Graphics/SVG/1.1/DTD/svg11.dtd">
<svg xmlns:xlink="http://www.w3.org/1999/xlink" width="285.658406pt" height="300.31625pt" viewBox="0 0 285.658406 300.31625" xmlns="http://www.w3.org/2000/svg" version="1.1">
 <metadata>
  <rdf:RDF xmlns:dc="http://purl.org/dc/elements/1.1/" xmlns:cc="http://creativecommons.org/ns#" xmlns:rdf="http://www.w3.org/1999/02/22-rdf-syntax-ns#">
   <cc:Work>
    <dc:type rdf:resource="http://purl.org/dc/dcmitype/StillImage"/>
    <dc:date>2026-06-29T23:13:53.093588</dc:date>
    <dc:format>image/svg+xml</dc:format>
    <dc:creator>
     <cc:Agent>
      <dc:title>Matplotlib v3.9.2, https://matplotlib.org/</dc:title>
     </cc:Agent>
    </dc:creator>
   </cc:Work>
  </rdf:RDF>
 </metadata>
 <defs>
  <style type="text/css">*{stroke-linejoin: round; stroke-linecap: butt}</style>
 </defs>
 <g id="figure_1">
  <g id="patch_1">
   <path d="M 0 300.31625 
L 285.658406 300.31625 
L 285.658406 0 
L 0 0 
z
" style="fill: #ffffff"/>
  </g>
  <g id="axes_1">
   <g id="patch_2">
    <path d="M 231.306406 176.04 
C 231.306406 164.62577 229.058052 153.322529 224.690015 142.777156 
C 220.321979 132.231783 213.919207 122.649358 205.848128 114.578279 
C 197.777048 106.507199 188.194623 100.104428 177.64925 95.736391 
C 167.103877 91.368354 155.800636 89.12 144.386406 89.12 
C 132.972176 89.12 121.668936 91.368354 111.123562 95.736391 
C 100.578189 100.104428 90.995764 106.507199 82.924685 114.578279 
C 74.853606 122.649358 68.450834 132.231783 64.082797 142.777156 
C 59.714761 153.322529 57.466406 164.62577 57.466406 176.04 
C 57.466406 187.45423 59.714761 198.757471 64.082797 209.302844 
C 68.450834 219.848217 74.853606 229.430642 82.924685 237.501721 
C 90.995764 245.572801 100.578189 251.975572 111.123562 256.343609 
C 121.668936 260.711646 132.972176 262.96 144.386406 262.96 
C 155.800636 262.96 167.103877 260.711646 177.64925 256.343609 
C 188.194623 251.975572 197.777048 245.572801 205.848128 237.501721 
C 213.919207 229.430642 220.321979 219.848217 224.690015 209.302844 
C 229.058052 198.757471 231.306406 187.45423 231.306406 176.04 
M 144.386406 176.04 
C 144.386406 176.04 144.386406 176.04 144.386406 176.04 
C 144.386406 176.04 144.386406 176.04 144.386406 176.04 
C 144.386406 176.04 144.386406 176.04 144.386406 176.04 
C 144.386406 176.04 144.386406 176.04 144.386406 176.04 
C 144.386406 176.04 144.386406 176.04 144.386406 176.04 
C 144.386406 176.04 144.386406 176.04 144.386406 176.04 
C 144.386406 176.04 144.386406 176.04 144.386406 176.04 
C 144.386406 176.04 144.386406 176.04 144.386406 176.04 
C 144.386406 176.04 144.386406 176.04 144.386406 176.04 
C 144.386406 176.04 144.386406 176.04 144.386406 176.04 
C 144.386406 176.04 144.386406 176.04 144.386406 176.04 
C 144.386406 176.04 144.386406 176.04 144.386406 176.04 
C 144.386406 176.04 144.386406 176.04 144.386406 176.04 
C 144.386406 176.04 144.386406 176.04 144.386406 176.04 
C 144.386406 176.04 144.386406 176.04 144.386406 176.04 
C 144.386406 176.04 144.386406 176.04 144.386406 176.04 
z
" style="fill: #ffffff"/>
   </g>
   <g id="PolyCollection_1">
    <defs>
     <path id="m1f1a75879e" d="M 151.874781 -124.27625 
L 151.506343 -124.27625 
L 152.233937 -137.868572 
L 121.70178 -163.567175 
L 99.199904 -124.27625 
L 108.551421 -62.208236 
L 162.439224 -93.007853 
L 151.506343 -124.27625 
L 151.874781 -124.27625 
L 151.874781 -124.27625 
L 164.017293 -90.274557 
L 107.432818 -60.270758 
L 93.632734 -124.27625 
L 119.643038 -167.133022 
L 154.97959 -142.624182 
L 151.874781 -124.27625 
z
" style="stroke: #f1605d; stroke-opacity: 0.15"/>
    </defs>
    <g clip-path="url(#pe14f77967d)">
     <use xlink:href="#m1f1a75879e" x="0" y="300.31625" style="fill: #f1605d; fill-opacity: 0.15; stroke: #f1605d; stroke-opacity: 0.15"/>
    </g>
   </g>
   <g id="PolyCollection_2">
    <defs>
     <path id="md4da7013d0" d="M 151.568629 -124.27625 
L 150.792615 -124.27625 
L 151.213471 -136.101073 
L 142.410952 -127.697838 
L 65.58449 -124.27625 
L 108.265565 -61.713117 
L 155.713933 -104.656398 
L 150.792615 -124.27625 
L 151.568629 -124.27625 
L 151.568629 -124.27625 
L 157.921042 -100.833574 
L 106.592813 -58.815826 
L 61.417315 -124.27625 
L 140.339904 -131.284997 
L 151.624397 -136.812817 
L 151.568629 -124.27625 
z
" style="stroke: #440f76; stroke-opacity: 0.15"/>
    </defs>
    <g clip-path="url(#pe14f77967d)">
     <use xlink:href="#md4da7013d0" x="0" y="300.31625" style="fill: #440f76; fill-opacity: 0.15; stroke: #440f76; stroke-opacity: 0.15"/>
    </g>
   </g>
   <g id="PolyCollection_3">
    <defs>
     <path id="mdfea138b9b" d="M 196.366209 -124.27625 
L 175.989656 -124.27625 
L 164.285727 -158.742885 
L 126.803575 -154.730607 
L 93.244238 -124.27625 
L 135.978822 -109.713887 
L 152.954016 -109.436715 
L 175.989656 -124.27625 
L 196.366209 -124.27625 
L 196.366209 -124.27625 
L 153.856642 -107.873321 
L 134.504075 -107.15955 
L 90.558189 -124.27625 
L 125.083765 -157.709405 
L 167.280525 -163.930026 
L 196.366209 -124.27625 
z
" style="stroke: #feca8d; stroke-opacity: 0.15"/>
    </defs>
    <g clip-path="url(#pe14f77967d)">
     <use xlink:href="#mdfea138b9b" x="0" y="300.31625" style="fill: #feca8d; fill-opacity: 0.15; stroke: #feca8d; stroke-opacity: 0.15"/>
    </g>
   </g>
   <g id="matplotlib.axis_1">
    <g id="xtick_1">
     <g id="line2d_1">
      <path d="M 144.386406 176.04 
L 231.306406 176.04 
" clip-path="url(#pe14f77967d)" style="fill: none; stroke: #b0b0b0; stroke-width: 0.8; stroke-linecap: square"/>
     </g>
     <g id="text_1">
      <!-- eye_opening -->
      <g transform="translate(213.482969 178.660313) scale(0.1 -0.1)">
       <defs>
        <path id="DejaVuSans-65" d="M 3597 1894 
L 3597 1613 
L 953 1613 
Q 991 1019 1311 708 
Q 1631 397 2203 397 
Q 2534 397 2845 478 
Q 3156 559 3463 722 
L 3463 178 
Q 3153 47 2828 -22 
Q 2503 -91 2169 -91 
Q 1331 -91 842 396 
Q 353 884 353 1716 
Q 353 2575 817 3079 
Q 1281 3584 2069 3584 
Q 2775 3584 3186 3129 
Q 3597 2675 3597 1894 
z
M 3022 2063 
Q 3016 2534 2758 2815 
Q 2500 3097 2075 3097 
Q 1594 3097 1305 2825 
Q 1016 2553 972 2059 
L 3022 2063 
z
" transform="scale(0.015625)"/>
        <path id="DejaVuSans-79" d="M 2059 -325 
Q 1816 -950 1584 -1140 
Q 1353 -1331 966 -1331 
L 506 -1331 
L 506 -850 
L 844 -850 
Q 1081 -850 1212 -737 
Q 1344 -625 1503 -206 
L 1606 56 
L 191 3500 
L 800 3500 
L 1894 763 
L 2988 3500 
L 3597 3500 
L 2059 -325 
z
" transform="scale(0.015625)"/>
        <path id="DejaVuSans-5f" d="M 3263 -1063 
L 3263 -1509 
L -63 -1509 
L -63 -1063 
L 3263 -1063 
z
" transform="scale(0.015625)"/>
        <path id="DejaVuSans-6f" d="M 1959 3097 
Q 1497 3097 1228 2736 
Q 959 2375 959 1747 
Q 959 1119 1226 758 
Q 1494 397 1959 397 
Q 2419 397 2687 759 
Q 2956 1122 2956 1747 
Q 2956 2369 2687 2733 
Q 2419 3097 1959 3097 
z
M 1959 3584 
Q 2709 3584 3137 3096 
Q 3566 2609 3566 1747 
Q 3566 888 3137 398 
Q 2709 -91 1959 -91 
Q 1206 -91 779 398 
Q 353 888 353 1747 
Q 353 2609 779 3096 
Q 1206 3584 1959 3584 
z
" transform="scale(0.015625)"/>
        <path id="DejaVuSans-70" d="M 1159 525 
L 1159 -1331 
L 581 -1331 
L 581 3500 
L 1159 3500 
L 1159 2969 
Q 1341 3281 1617 3432 
Q 1894 3584 2278 3584 
Q 2916 3584 3314 3078 
Q 3713 2572 3713 1747 
Q 3713 922 3314 415 
Q 2916 -91 2278 -91 
Q 1894 -91 1617 61 
Q 1341 213 1159 525 
z
M 3116 1747 
Q 3116 2381 2855 2742 
Q 2594 3103 2138 3103 
Q 1681 3103 1420 2742 
Q 1159 2381 1159 1747 
Q 1159 1113 1420 752 
Q 1681 391 2138 391 
Q 2594 391 2855 752 
Q 3116 1113 3116 1747 
z
" transform="scale(0.015625)"/>
        <path id="DejaVuSans-6e" d="M 3513 2113 
L 3513 0 
L 2938 0 
L 2938 2094 
Q 2938 2591 2744 2837 
Q 2550 3084 2163 3084 
Q 1697 3084 1428 2787 
Q 1159 2491 1159 1978 
L 1159 0 
L 581 0 
L 581 3500 
L 1159 3500 
L 1159 2956 
Q 1366 3272 1645 3428 
Q 1925 3584 2291 3584 
Q 2894 3584 3203 3211 
Q 3513 2838 3513 2113 
z
" transform="scale(0.015625)"/>
        <path id="DejaVuSans-69" d="M 603 3500 
L 1178 3500 
L 1178 0 
L 603 0 
L 603 3500 
z
M 603 4863 
L 1178 4863 
L 1178 4134 
L 603 4134 
L 603 4863 
z
" transform="scale(0.015625)"/>
        <path id="DejaVuSans-67" d="M 2906 1791 
Q 2906 2416 2648 2759 
Q 2391 3103 1925 3103 
Q 1463 3103 1205 2759 
Q 947 2416 947 1791 
Q 947 1169 1205 825 
Q 1463 481 1925 481 
Q 2391 481 2648 825 
Q 2906 1169 2906 1791 
z
M 3481 434 
Q 3481 -459 3084 -895 
Q 2688 -1331 1869 -1331 
Q 1566 -1331 1297 -1286 
Q 1028 -1241 775 -1147 
L 775 -588 
Q 1028 -725 1275 -790 
Q 1522 -856 1778 -856 
Q 2344 -856 2625 -561 
Q 2906 -266 2906 331 
L 2906 616 
Q 2728 306 2450 153 
Q 2172 0 1784 0 
Q 1141 0 747 490 
Q 353 981 353 1791 
Q 353 2603 747 3093 
Q 1141 3584 1784 3584 
Q 2172 3584 2450 3431 
Q 2728 3278 2906 2969 
L 2906 3500 
L 3481 3500 
L 3481 434 
z
" transform="scale(0.015625)"/>
       </defs>
       <use xlink:href="#DejaVuSans-65"/>
       <use xlink:href="#DejaVuSans-79" x="61.523438"/>
       <use xlink:href="#DejaVuSans-65" x="120.703125"/>
       <use xlink:href="#DejaVuSans-5f" x="182.226562"/>
       <use xlink:href="#DejaVuSans-6f" x="232.226562"/>
       <use xlink:href="#DejaVuSans-70" x="293.408203"/>
       <use xlink:href="#DejaVuSans-65" x="356.884766"/>
       <use xlink:href="#DejaVuSans-6e" x="418.408203"/>
       <use xlink:href="#DejaVuSans-69" x="481.787109"/>
       <use xlink:href="#DejaVuSans-6e" x="509.570312"/>
       <use xlink:href="#DejaVuSans-67" x="572.949219"/>
      </g>
     </g>
    </g>
    <g id="xtick_2">
     <g id="line2d_2">
      <path d="M 144.386406 176.04 
L 187.846406 100.765072 
" clip-path="url(#pe14f77967d)" style="fill: none; stroke: #b0b0b0; stroke-width: 0.8; stroke-linecap: square"/>
     </g>
     <g id="text_2">
      <!-- ear_opening -->
      <g transform="translate(163.939375 91.261029) scale(0.1 -0.1)">
       <defs>
        <path id="DejaVuSans-61" d="M 2194 1759 
Q 1497 1759 1228 1600 
Q 959 1441 959 1056 
Q 959 750 1161 570 
Q 1363 391 1709 391 
Q 2188 391 2477 730 
Q 2766 1069 2766 1631 
L 2766 1759 
L 2194 1759 
z
M 3341 1997 
L 3341 0 
L 2766 0 
L 2766 531 
Q 2569 213 2275 61 
Q 1981 -91 1556 -91 
Q 1019 -91 701 211 
Q 384 513 384 1019 
Q 384 1609 779 1909 
Q 1175 2209 1959 2209 
L 2766 2209 
L 2766 2266 
Q 2766 2663 2505 2880 
Q 2244 3097 1772 3097 
Q 1472 3097 1187 3025 
Q 903 2953 641 2809 
L 641 3341 
Q 956 3463 1253 3523 
Q 1550 3584 1831 3584 
Q 2591 3584 2966 3190 
Q 3341 2797 3341 1997 
z
" transform="scale(0.015625)"/>
        <path id="DejaVuSans-72" d="M 2631 2963 
Q 2534 3019 2420 3045 
Q 2306 3072 2169 3072 
Q 1681 3072 1420 2755 
Q 1159 2438 1159 1844 
L 1159 0 
L 581 0 
L 581 3500 
L 1159 3500 
L 1159 2956 
Q 1341 3275 1631 3429 
Q 1922 3584 2338 3584 
Q 2397 3584 2469 3576 
Q 2541 3569 2628 3553 
L 2631 2963 
z
" transform="scale(0.015625)"/>
       </defs>
       <use xlink:href="#DejaVuSans-65"/>
       <use xlink:href="#DejaVuSans-61" x="61.523438"/>
       <use xlink:href="#DejaVuSans-72" x="122.802734"/>
       <use xlink:href="#DejaVuSans-5f" x="163.916016"/>
       <use xlink:href="#DejaVuSans-6f" x="213.916016"/>
       <use xlink:href="#DejaVuSans-70" x="275.097656"/>
       <use xlink:href="#DejaVuSans-65" x="338.574219"/>
       <use xlink:href="#DejaVuSans-6e" x="400.097656"/>
       <use xlink:href="#DejaVuSans-69" x="463.476562"/>
       <use xlink:href="#DejaVuSans-6e" x="491.259766"/>
       <use xlink:href="#DejaVuSans-67" x="554.638672"/>
      </g>
     </g>
    </g>
    <g id="xtick_3">
     <g id="line2d_3">
      <path d="M 144.386406 176.04 
L 100.926406 100.765072 
" clip-path="url(#pe14f77967d)" style="fill: none; stroke: #b0b0b0; stroke-width: 0.8; stroke-linecap: square"/>
     </g>
     <g id="text_3">
      <!-- ear_position -->
      <g transform="translate(63.425625 91.261029) scale(0.1 -0.1)">
       <defs>
        <path id="DejaVuSans-73" d="M 2834 3397 
L 2834 2853 
Q 2591 2978 2328 3040 
Q 2066 3103 1784 3103 
Q 1356 3103 1142 2972 
Q 928 2841 928 2578 
Q 928 2378 1081 2264 
Q 1234 2150 1697 2047 
L 1894 2003 
Q 2506 1872 2764 1633 
Q 3022 1394 3022 966 
Q 3022 478 2636 193 
Q 2250 -91 1575 -91 
Q 1294 -91 989 -36 
Q 684 19 347 128 
L 347 722 
Q 666 556 975 473 
Q 1284 391 1588 391 
Q 1994 391 2212 530 
Q 2431 669 2431 922 
Q 2431 1156 2273 1281 
Q 2116 1406 1581 1522 
L 1381 1569 
Q 847 1681 609 1914 
Q 372 2147 372 2553 
Q 372 3047 722 3315 
Q 1072 3584 1716 3584 
Q 2034 3584 2315 3537 
Q 2597 3491 2834 3397 
z
" transform="scale(0.015625)"/>
        <path id="DejaVuSans-74" d="M 1172 4494 
L 1172 3500 
L 2356 3500 
L 2356 3053 
L 1172 3053 
L 1172 1153 
Q 1172 725 1289 603 
Q 1406 481 1766 481 
L 2356 481 
L 2356 0 
L 1766 0 
Q 1100 0 847 248 
Q 594 497 594 1153 
L 594 3053 
L 172 3053 
L 172 3500 
L 594 3500 
L 594 4494 
L 1172 4494 
z
" transform="scale(0.015625)"/>
       </defs>
       <use xlink:href="#DejaVuSans-65"/>
       <use xlink:href="#DejaVuSans-61" x="61.523438"/>
       <use xlink:href="#DejaVuSans-72" x="122.802734"/>
       <use xlink:href="#DejaVuSans-5f" x="163.916016"/>
       <use xlink:href="#DejaVuSans-70" x="213.916016"/>
       <use xlink:href="#DejaVuSans-6f" x="277.392578"/>
       <use xlink:href="#DejaVuSans-73" x="338.574219"/>
       <use xlink:href="#DejaVuSans-69" x="390.673828"/>
       <use xlink:href="#DejaVuSans-74" x="418.457031"/>
       <use xlink:href="#DejaVuSans-69" x="457.666016"/>
       <use xlink:href="#DejaVuSans-6f" x="485.449219"/>
       <use xlink:href="#DejaVuSans-6e" x="546.630859"/>
      </g>
     </g>
    </g>
    <g id="xtick_4">
     <g id="line2d_4">
      <path d="M 144.386406 176.04 
L 57.466406 176.04 
" clip-path="url(#pe14f77967d)" style="fill: none; stroke: #b0b0b0; stroke-width: 0.8; stroke-linecap: square"/>
     </g>
     <g id="text_4">
      <!-- snout_position -->
      <g transform="translate(7.2 178.660313) scale(0.1 -0.1)">
       <defs>
        <path id="DejaVuSans-75" d="M 544 1381 
L 544 3500 
L 1119 3500 
L 1119 1403 
Q 1119 906 1312 657 
Q 1506 409 1894 409 
Q 2359 409 2629 706 
Q 2900 1003 2900 1516 
L 2900 3500 
L 3475 3500 
L 3475 0 
L 2900 0 
L 2900 538 
Q 2691 219 2414 64 
Q 2138 -91 1772 -91 
Q 1169 -91 856 284 
Q 544 659 544 1381 
z
M 1991 3584 
L 1991 3584 
z
" transform="scale(0.015625)"/>
       </defs>
       <use xlink:href="#DejaVuSans-73"/>
       <use xlink:href="#DejaVuSans-6e" x="52.099609"/>
       <use xlink:href="#DejaVuSans-6f" x="115.478516"/>
       <use xlink:href="#DejaVuSans-75" x="176.660156"/>
       <use xlink:href="#DejaVuSans-74" x="240.039062"/>
       <use xlink:href="#DejaVuSans-5f" x="279.248047"/>
       <use xlink:href="#DejaVuSans-70" x="329.248047"/>
       <use xlink:href="#DejaVuSans-6f" x="392.724609"/>
       <use xlink:href="#DejaVuSans-73" x="453.90625"/>
       <use xlink:href="#DejaVuSans-69" x="506.005859"/>
       <use xlink:href="#DejaVuSans-74" x="533.789062"/>
       <use xlink:href="#DejaVuSans-69" x="572.998047"/>
       <use xlink:href="#DejaVuSans-6f" x="600.78125"/>
       <use xlink:href="#DejaVuSans-6e" x="661.962891"/>
      </g>
     </g>
    </g>
    <g id="xtick_5">
     <g id="line2d_5">
      <path d="M 144.386406 176.04 
L 100.926406 251.314928 
" clip-path="url(#pe14f77967d)" style="fill: none; stroke: #b0b0b0; stroke-width: 0.8; stroke-linecap: square"/>
     </g>
     <g id="text_5">
      <!-- mouth_position -->
      <g transform="translate(55.394375 266.059596) scale(0.1 -0.1)">
       <defs>
        <path id="DejaVuSans-6d" d="M 3328 2828 
Q 3544 3216 3844 3400 
Q 4144 3584 4550 3584 
Q 5097 3584 5394 3201 
Q 5691 2819 5691 2113 
L 5691 0 
L 5113 0 
L 5113 2094 
Q 5113 2597 4934 2840 
Q 4756 3084 4391 3084 
Q 3944 3084 3684 2787 
Q 3425 2491 3425 1978 
L 3425 0 
L 2847 0 
L 2847 2094 
Q 2847 2600 2669 2842 
Q 2491 3084 2119 3084 
Q 1678 3084 1418 2786 
Q 1159 2488 1159 1978 
L 1159 0 
L 581 0 
L 581 3500 
L 1159 3500 
L 1159 2956 
Q 1356 3278 1631 3431 
Q 1906 3584 2284 3584 
Q 2666 3584 2933 3390 
Q 3200 3197 3328 2828 
z
" transform="scale(0.015625)"/>
        <path id="DejaVuSans-68" d="M 3513 2113 
L 3513 0 
L 2938 0 
L 2938 2094 
Q 2938 2591 2744 2837 
Q 2550 3084 2163 3084 
Q 1697 3084 1428 2787 
Q 1159 2491 1159 1978 
L 1159 0 
L 581 0 
L 581 4863 
L 1159 4863 
L 1159 2956 
Q 1366 3272 1645 3428 
Q 1925 3584 2291 3584 
Q 2894 3584 3203 3211 
Q 3513 2838 3513 2113 
z
" transform="scale(0.015625)"/>
       </defs>
       <use xlink:href="#DejaVuSans-6d"/>
       <use xlink:href="#DejaVuSans-6f" x="97.412109"/>
       <use xlink:href="#DejaVuSans-75" x="158.59375"/>
       <use xlink:href="#DejaVuSans-74" x="221.972656"/>
       <use xlink:href="#DejaVuSans-68" x="261.181641"/>
       <use xlink:href="#DejaVuSans-5f" x="324.560547"/>
       <use xlink:href="#DejaVuSans-70" x="374.560547"/>
       <use xlink:href="#DejaVuSans-6f" x="438.037109"/>
       <use xlink:href="#DejaVuSans-73" x="499.21875"/>
       <use xlink:href="#DejaVuSans-69" x="551.318359"/>
       <use xlink:href="#DejaVuSans-74" x="579.101562"/>
       <use xlink:href="#DejaVuSans-69" x="618.310547"/>
       <use xlink:href="#DejaVuSans-6f" x="646.09375"/>
       <use xlink:href="#DejaVuSans-6e" x="707.275391"/>
      </g>
     </g>
    </g>
    <g id="xtick_6">
     <g id="line2d_6">
      <path d="M 144.386406 176.04 
L 187.846406 251.314928 
" clip-path="url(#pe14f77967d)" style="fill: none; stroke: #b0b0b0; stroke-width: 0.8; stroke-linecap: square"/>
     </g>
     <g id="text_6">
      <!-- face_inclination -->
      <g transform="translate(155.801094 266.059596) scale(0.1 -0.1)">
       <defs>
        <path id="DejaVuSans-66" d="M 2375 4863 
L 2375 4384 
L 1825 4384 
Q 1516 4384 1395 4259 
Q 1275 4134 1275 3809 
L 1275 3500 
L 2222 3500 
L 2222 3053 
L 1275 3053 
L 1275 0 
L 697 0 
L 697 3053 
L 147 3053 
L 147 3500 
L 697 3500 
L 697 3744 
Q 697 4328 969 4595 
Q 1241 4863 1831 4863 
L 2375 4863 
z
" transform="scale(0.015625)"/>
        <path id="DejaVuSans-63" d="M 3122 3366 
L 3122 2828 
Q 2878 2963 2633 3030 
Q 2388 3097 2138 3097 
Q 1578 3097 1268 2742 
Q 959 2388 959 1747 
Q 959 1106 1268 751 
Q 1578 397 2138 397 
Q 2388 397 2633 464 
Q 2878 531 3122 666 
L 3122 134 
Q 2881 22 2623 -34 
Q 2366 -91 2075 -91 
Q 1284 -91 818 406 
Q 353 903 353 1747 
Q 353 2603 823 3093 
Q 1294 3584 2113 3584 
Q 2378 3584 2631 3529 
Q 2884 3475 3122 3366 
z
" transform="scale(0.015625)"/>
        <path id="DejaVuSans-6c" d="M 603 4863 
L 1178 4863 
L 1178 0 
L 603 0 
L 603 4863 
z
" transform="scale(0.015625)"/>
       </defs>
       <use xlink:href="#DejaVuSans-66"/>
       <use xlink:href="#DejaVuSans-61" x="35.205078"/>
       <use xlink:href="#DejaVuSans-63" x="96.484375"/>
       <use xlink:href="#DejaVuSans-65" x="151.464844"/>
       <use xlink:href="#DejaVuSans-5f" x="212.988281"/>
       <use xlink:href="#DejaVuSans-69" x="262.988281"/>
       <use xlink:href="#DejaVuSans-6e" x="290.771484"/>
       <use xlink:href="#DejaVuSans-63" x="354.150391"/>
       <use xlink:href="#DejaVuSans-6c" x="409.130859"/>
       <use xlink:href="#DejaVuSans-69" x="436.914062"/>
       <use xlink:href="#DejaVuSans-6e" x="464.697266"/>
       <use xlink:href="#DejaVuSans-61" x="528.076172"/>
       <use xlink:href="#DejaVuSans-74" x="589.355469"/>
       <use xlink:href="#DejaVuSans-69" x="628.564453"/>
       <use xlink:href="#DejaVuSans-6f" x="656.347656"/>
       <use xlink:href="#DejaVuSans-6e" x="717.529297"/>
      </g>
     </g>
    </g>
   </g>
   <g id="matplotlib.axis_2">
    <g id="ytick_1">
     <g id="line2d_7">
      <path d="M 153.193376 176.04 
C 153.193376 174.883479 152.965567 173.738204 152.522985 172.669719 
C 152.080404 171.601233 151.431658 170.630316 150.613874 169.812532 
C 149.796091 168.994748 148.825173 168.346002 147.756688 167.903421 
C 146.688202 167.46084 145.542927 167.23303 144.386406 167.23303 
C 143.229886 167.23303 142.084611 167.46084 141.016125 167.903421 
C 139.947639 168.346002 138.976722 168.994748 138.158938 169.812532 
C 137.341155 170.630316 136.692409 171.601233 136.249827 172.669719 
C 135.807246 173.738204 135.579437 174.883479 135.579437 176.04 
C 135.579437 177.196521 135.807246 178.341796 136.249827 179.410281 
C 136.692409 180.478767 137.341155 181.449684 138.158938 182.267468 
C 138.976722 183.085252 139.947639 183.733998 141.016125 184.176579 
C 142.084611 184.61916 143.229886 184.84697 144.386406 184.84697 
C 145.542927 184.84697 146.688202 184.61916 147.756688 184.176579 
C 148.825173 183.733998 149.796091 183.085252 150.613874 182.267468 
C 151.431658 181.449684 152.080404 180.478767 152.522985 179.410281 
C 152.965567 178.341796 153.193376 177.196521 153.193376 176.04 
" clip-path="url(#pe14f77967d)" style="fill: none; stroke: #b0b0b0; stroke-width: 0.8; stroke-linecap: square"/>
     </g>
     <g id="text_7">
      <!-- 0.0 -->
      <g transform="translate(152.522985 170.590031) scale(0.1 -0.1)">
       <defs>
        <path id="DejaVuSans-30" d="M 2034 4250 
Q 1547 4250 1301 3770 
Q 1056 3291 1056 2328 
Q 1056 1369 1301 889 
Q 1547 409 2034 409 
Q 2525 409 2770 889 
Q 3016 1369 3016 2328 
Q 3016 3291 2770 3770 
Q 2525 4250 2034 4250 
z
M 2034 4750 
Q 2819 4750 3233 4129 
Q 3647 3509 3647 2328 
Q 3647 1150 3233 529 
Q 2819 -91 2034 -91 
Q 1250 -91 836 529 
Q 422 1150 422 2328 
Q 422 3509 836 4129 
Q 1250 4750 2034 4750 
z
" transform="scale(0.015625)"/>
        <path id="DejaVuSans-2e" d="M 684 794 
L 1344 794 
L 1344 0 
L 684 0 
L 684 794 
z
" transform="scale(0.015625)"/>
       </defs>
       <use xlink:href="#DejaVuSans-30"/>
       <use xlink:href="#DejaVuSans-2e" x="63.623047"/>
       <use xlink:href="#DejaVuSans-30" x="95.410156"/>
      </g>
     </g>
    </g>
    <g id="ytick_2">
     <g id="line2d_8">
      <path d="M 168.633782 176.04 
C 168.633782 172.855864 168.006577 169.702689 166.78806 166.760931 
C 165.569544 163.819173 163.783414 161.146041 161.53189 158.894516 
C 159.280366 156.642992 156.607233 154.856862 153.665475 153.638346 
C 150.723717 152.41983 147.570542 151.792624 144.386406 151.792624 
C 141.20227 151.792624 138.049096 152.41983 135.107337 153.638346 
C 132.165579 154.856862 129.492447 156.642992 127.240922 158.894516 
C 124.989398 161.146041 123.203268 163.819173 121.984752 166.760931 
C 120.766236 169.702689 120.139031 172.855864 120.139031 176.04 
C 120.139031 179.224136 120.766236 182.377311 121.984752 185.319069 
C 123.203268 188.260827 124.989398 190.933959 127.240922 193.185484 
C 129.492447 195.437008 132.165579 197.223138 135.107337 198.441654 
C 138.049096 199.66017 141.20227 200.287376 144.386406 200.287376 
C 147.570542 200.287376 150.723717 199.66017 153.665475 198.441654 
C 156.607233 197.223138 159.280366 195.437008 161.53189 193.185484 
C 163.783414 190.933959 165.569544 188.260827 166.78806 185.319069 
C 168.006577 182.377311 168.633782 179.224136 168.633782 176.04 
" clip-path="url(#pe14f77967d)" style="fill: none; stroke: #b0b0b0; stroke-width: 0.8; stroke-linecap: square"/>
     </g>
     <g id="text_8">
      <!-- 0.2 -->
      <g transform="translate(166.78806 164.681244) scale(0.1 -0.1)">
       <defs>
        <path id="DejaVuSans-32" d="M 1228 531 
L 3431 531 
L 3431 0 
L 469 0 
L 469 531 
Q 828 903 1448 1529 
Q 2069 2156 2228 2338 
Q 2531 2678 2651 2914 
Q 2772 3150 2772 3378 
Q 2772 3750 2511 3984 
Q 2250 4219 1831 4219 
Q 1534 4219 1204 4116 
Q 875 4013 500 3803 
L 500 4441 
Q 881 4594 1212 4672 
Q 1544 4750 1819 4750 
Q 2544 4750 2975 4387 
Q 3406 4025 3406 3419 
Q 3406 3131 3298 2873 
Q 3191 2616 2906 2266 
Q 2828 2175 2409 1742 
Q 1991 1309 1228 531 
z
" transform="scale(0.015625)"/>
       </defs>
       <use xlink:href="#DejaVuSans-30"/>
       <use xlink:href="#DejaVuSans-2e" x="63.623047"/>
       <use xlink:href="#DejaVuSans-32" x="95.410156"/>
      </g>
     </g>
    </g>
    <g id="ytick_3">
     <g id="line2d_9">
      <path d="M 184.074188 176.04 
C 184.074188 170.828248 183.047587 165.667174 181.053136 160.852143 
C 179.058684 156.037113 176.135171 151.661765 172.449906 147.9765 
C 168.764641 144.291235 164.389294 141.367722 159.574263 139.373271 
C 154.759232 137.37882 149.598158 136.352218 144.386406 136.352218 
C 139.174655 136.352218 134.01358 137.37882 129.19855 139.373271 
C 124.383519 141.367722 120.008172 144.291235 116.322907 147.9765 
C 112.637642 151.661765 109.714128 156.037113 107.719677 160.852143 
C 105.725226 165.667174 104.698624 170.828248 104.698624 176.04 
C 104.698624 181.251752 105.725226 186.412826 107.719677 191.227857 
C 109.714128 196.042887 112.637642 200.418235 116.322907 204.1035 
C 120.008172 207.788765 124.383519 210.712278 129.19855 212.706729 
C 134.01358 214.70118 139.174655 215.727782 144.386406 215.727782 
C 149.598158 215.727782 154.759232 214.70118 159.574263 212.706729 
C 164.389294 210.712278 168.764641 207.788765 172.449906 204.1035 
C 176.135171 200.418235 179.058684 196.042887 181.053136 191.227857 
C 183.047587 186.412826 184.074188 181.251752 184.074188 176.04 
" clip-path="url(#pe14f77967d)" style="fill: none; stroke: #b0b0b0; stroke-width: 0.8; stroke-linecap: square"/>
     </g>
     <g id="text_9">
      <!-- 0.4 -->
      <g transform="translate(181.053136 158.772456) scale(0.1 -0.1)">
       <defs>
        <path id="DejaVuSans-34" d="M 2419 4116 
L 825 1625 
L 2419 1625 
L 2419 4116 
z
M 2253 4666 
L 3047 4666 
L 3047 1625 
L 3713 1625 
L 3713 1100 
L 3047 1100 
L 3047 0 
L 2419 0 
L 2419 1100 
L 313 1100 
L 313 1709 
L 2253 4666 
z
" transform="scale(0.015625)"/>
       </defs>
       <use xlink:href="#DejaVuSans-30"/>
       <use xlink:href="#DejaVuSans-2e" x="63.623047"/>
       <use xlink:href="#DejaVuSans-34" x="95.410156"/>
      </g>
     </g>
    </g>
    <g id="ytick_4">
     <g id="line2d_10">
      <path d="M 199.514594 176.04 
C 199.514594 168.800633 198.088597 161.631659 195.318211 154.943356 
C 192.547825 148.255053 188.486927 142.17749 183.367922 137.058485 
C 178.248916 131.939479 172.171354 127.878582 165.48305 125.108196 
C 158.794747 122.33781 151.625774 120.911812 144.386406 120.911812 
C 137.147039 120.911812 129.978065 122.33781 123.289762 125.108196 
C 116.601459 127.878582 110.523897 131.939479 105.404891 137.058485 
C 100.285885 142.17749 96.224988 148.255053 93.454602 154.943356 
C 90.684216 161.631659 89.258218 168.800633 89.258218 176.04 
C 89.258218 183.279367 90.684216 190.448341 93.454602 197.136644 
C 96.224988 203.824947 100.285885 209.90251 105.404891 215.021515 
C 110.523897 220.140521 116.601459 224.201418 123.289762 226.971804 
C 129.978065 229.74219 137.147039 231.168188 144.386406 231.168188 
C 151.625774 231.168188 158.794747 229.74219 165.48305 226.971804 
C 172.171354 224.201418 178.248916 220.140521 183.367922 215.021515 
C 188.486927 209.90251 192.547825 203.824947 195.318211 197.136644 
C 198.088597 190.448341 199.514594 183.279367 199.514594 176.04 
" clip-path="url(#pe14f77967d)" style="fill: none; stroke: #b0b0b0; stroke-width: 0.8; stroke-linecap: square"/>
     </g>
     <g id="text_10">
      <!-- 0.6 -->
      <g transform="translate(195.318211 152.863668) scale(0.1 -0.1)">
       <defs>
        <path id="DejaVuSans-36" d="M 2113 2584 
Q 1688 2584 1439 2293 
Q 1191 2003 1191 1497 
Q 1191 994 1439 701 
Q 1688 409 2113 409 
Q 2538 409 2786 701 
Q 3034 994 3034 1497 
Q 3034 2003 2786 2293 
Q 2538 2584 2113 2584 
z
M 3366 4563 
L 3366 3988 
Q 3128 4100 2886 4159 
Q 2644 4219 2406 4219 
Q 1781 4219 1451 3797 
Q 1122 3375 1075 2522 
Q 1259 2794 1537 2939 
Q 1816 3084 2150 3084 
Q 2853 3084 3261 2657 
Q 3669 2231 3669 1497 
Q 3669 778 3244 343 
Q 2819 -91 2113 -91 
Q 1303 -91 875 529 
Q 447 1150 447 2328 
Q 447 3434 972 4092 
Q 1497 4750 2381 4750 
Q 2619 4750 2861 4703 
Q 3103 4656 3366 4563 
z
" transform="scale(0.015625)"/>
       </defs>
       <use xlink:href="#DejaVuSans-30"/>
       <use xlink:href="#DejaVuSans-2e" x="63.623047"/>
       <use xlink:href="#DejaVuSans-36" x="95.410156"/>
      </g>
     </g>
    </g>
    <g id="ytick_5">
     <g id="line2d_11">
      <path d="M 214.955 176.04 
C 214.955 166.773017 213.129607 157.596144 209.583286 149.034568 
C 206.036965 140.472992 200.838684 132.693215 194.285938 126.140469 
C 187.733191 119.587722 179.953414 114.389441 171.391838 110.84312 
C 162.830262 107.2968 153.653389 105.471406 144.386406 105.471406 
C 135.119423 105.471406 125.94255 107.2968 117.380975 110.84312 
C 108.819399 114.389441 101.039621 119.587722 94.486875 126.140469 
C 87.934129 132.693215 82.735848 140.472992 79.189527 149.034568 
C 75.643206 157.596144 73.817812 166.773017 73.817812 176.04 
C 73.817812 185.306983 75.643206 194.483856 79.189527 203.045432 
C 82.735848 211.607008 87.934129 219.386785 94.486875 225.939531 
C 101.039621 232.492278 108.819399 237.690559 117.380975 241.23688 
C 125.94255 244.7832 135.119423 246.608594 144.386406 246.608594 
C 153.653389 246.608594 162.830262 244.7832 171.391838 241.23688 
C 179.953414 237.690559 187.733191 232.492278 194.285938 225.939531 
C 200.838684 219.386785 206.036965 211.607008 209.583286 203.045432 
C 213.129607 194.483856 214.955 185.306983 214.955 176.04 
" clip-path="url(#pe14f77967d)" style="fill: none; stroke: #b0b0b0; stroke-width: 0.8; stroke-linecap: square"/>
     </g>
     <g id="text_11">
      <!-- 0.8 -->
      <g transform="translate(209.583286 146.954881) scale(0.1 -0.1)">
       <defs>
        <path id="DejaVuSans-38" d="M 2034 2216 
Q 1584 2216 1326 1975 
Q 1069 1734 1069 1313 
Q 1069 891 1326 650 
Q 1584 409 2034 409 
Q 2484 409 2743 651 
Q 3003 894 3003 1313 
Q 3003 1734 2745 1975 
Q 2488 2216 2034 2216 
z
M 1403 2484 
Q 997 2584 770 2862 
Q 544 3141 544 3541 
Q 544 4100 942 4425 
Q 1341 4750 2034 4750 
Q 2731 4750 3128 4425 
Q 3525 4100 3525 3541 
Q 3525 3141 3298 2862 
Q 3072 2584 2669 2484 
Q 3125 2378 3379 2068 
Q 3634 1759 3634 1313 
Q 3634 634 3220 271 
Q 2806 -91 2034 -91 
Q 1263 -91 848 271 
Q 434 634 434 1313 
Q 434 1759 690 2068 
Q 947 2378 1403 2484 
z
M 1172 3481 
Q 1172 3119 1398 2916 
Q 1625 2713 2034 2713 
Q 2441 2713 2670 2916 
Q 2900 3119 2900 3481 
Q 2900 3844 2670 4047 
Q 2441 4250 2034 4250 
Q 1625 4250 1398 4047 
Q 1172 3844 1172 3481 
z
" transform="scale(0.015625)"/>
       </defs>
       <use xlink:href="#DejaVuSans-30"/>
       <use xlink:href="#DejaVuSans-2e" x="63.623047"/>
       <use xlink:href="#DejaVuSans-38" x="95.410156"/>
      </g>
     </g>
    </g>
    <g id="ytick_6">
     <g id="line2d_12">
      <path d="M 230.395406 176.04 
C 230.395406 164.745402 228.170617 153.560629 223.848361 143.125781 
C 219.526105 132.690932 213.19044 123.20894 205.203953 115.222453 
C 197.217466 107.235966 187.735474 100.900301 177.300626 96.578045 
C 166.865777 92.25579 155.681005 90.031 144.386406 90.031 
C 133.091808 90.031 121.907035 92.25579 111.472187 96.578045 
C 101.037339 100.900301 91.555346 107.235966 83.568859 115.222453 
C 75.582372 123.20894 69.246707 132.690932 64.924452 143.125781 
C 60.602196 153.560629 58.377406 164.745402 58.377406 176.04 
C 58.377406 187.334598 60.602196 198.519371 64.924452 208.954219 
C 69.246707 219.389068 75.582372 228.87106 83.568859 236.857547 
C 91.555346 244.844034 101.037339 251.179699 111.472187 255.501955 
C 121.907035 259.82421 133.091808 262.049 144.386406 262.049 
C 155.681005 262.049 166.865777 259.82421 177.300626 255.501955 
C 187.735474 251.179699 197.217466 244.844034 205.203953 236.857547 
C 213.19044 228.87106 219.526105 219.389068 223.848361 208.954219 
C 228.170617 198.519371 230.395406 187.334598 230.395406 176.04 
" clip-path="url(#pe14f77967d)" style="fill: none; stroke: #b0b0b0; stroke-width: 0.8; stroke-linecap: square"/>
     </g>
     <g id="text_12">
      <!-- 1.0 -->
      <g transform="translate(223.848361 141.046093) scale(0.1 -0.1)">
       <defs>
        <path id="DejaVuSans-31" d="M 794 531 
L 1825 531 
L 1825 4091 
L 703 3866 
L 703 4441 
L 1819 4666 
L 2450 4666 
L 2450 531 
L 3481 531 
L 3481 0 
L 794 0 
L 794 531 
z
" transform="scale(0.015625)"/>
       </defs>
       <use xlink:href="#DejaVuSans-31"/>
       <use xlink:href="#DejaVuSans-2e" x="63.623047"/>
       <use xlink:href="#DejaVuSans-30" x="95.410156"/>
      </g>
     </g>
    </g>
   </g>
   <g id="line2d_13">
    <path d="M 151.690562 176.04 
L 153.606763 160.069873 
L 120.672409 134.966152 
L 96.416319 176.04 
L 107.99212 239.076753 
L 163.228258 208.675045 
L 151.690562 176.04 
" clip-path="url(#pe14f77967d)" style="fill: none; stroke: #f1605d; stroke-width: 2; stroke-linecap: square"/>
   </g>
   <g id="line2d_14">
    <path d="M 151.180622 176.04 
L 151.418934 163.859305 
L 141.375428 170.824833 
L 63.500903 176.04 
L 107.429189 240.051778 
L 156.817487 197.571264 
L 151.180622 176.04 
" clip-path="url(#pe14f77967d)" style="fill: none; stroke: #440f76; stroke-width: 2; stroke-linecap: square"/>
   </g>
   <g id="line2d_15">
    <path d="M 186.177932 176.04 
L 165.783126 138.979794 
L 125.94367 144.096244 
L 91.901213 176.04 
L 135.241448 191.879532 
L 153.405329 191.661232 
L 186.177932 176.04 
" clip-path="url(#pe14f77967d)" style="fill: none; stroke: #feca8d; stroke-width: 2; stroke-linecap: square"/>
   </g>
   <g id="patch_3">
    <path d="M 231.306406 176.04 
C 231.306406 164.62577 229.058052 153.322529 224.690015 142.777156 
C 220.321979 132.231783 213.919207 122.649358 205.848128 114.578279 
C 197.777048 106.507199 188.194623 100.104428 177.64925 95.736391 
C 167.103877 91.368354 155.800636 89.12 144.386406 89.12 
C 132.972176 89.12 121.668936 91.368354 111.123562 95.736391 
C 100.578189 100.104428 90.995764 106.507199 82.924685 114.578279 
C 74.853606 122.649358 68.450834 132.231783 64.082797 142.777156 
C 59.714761 153.322529 57.466406 164.62577 57.466406 176.04 
C 57.466406 187.45423 59.714761 198.757471 64.082797 209.302844 
C 68.450834 219.848217 74.853606 229.430642 82.924685 237.501721 
C 90.995764 245.572801 100.578189 251.975572 111.123562 256.343609 
C 121.668936 260.711646 132.972176 262.96 144.386406 262.96 
C 155.800636 262.96 167.103877 260.711646 177.64925 256.343609 
C 188.194623 251.975572 197.777048 245.572801 205.848128 237.501721 
C 213.919207 229.430642 220.321979 219.848217 224.690015 209.302844 
C 229.058052 198.757471 231.306406 187.45423 231.306406 176.04 
" style="fill: none; stroke: #000000; stroke-width: 0.8; stroke-linejoin: miter; stroke-linecap: square"/>
   </g>
   <g id="text_13">
    <!-- airpuf -->
    <g transform="translate(126.852344 77.662591) scale(0.12 -0.12)">
     <use xlink:href="#DejaVuSans-61"/>
     <use xlink:href="#DejaVuSans-69" x="61.279297"/>
     <use xlink:href="#DejaVuSans-72" x="89.0625"/>
     <use xlink:href="#DejaVuSans-70" x="130.175781"/>
     <use xlink:href="#DejaVuSans-75" x="193.652344"/>
     <use xlink:href="#DejaVuSans-66" x="257.03125"/>
    </g>
   </g>
   <g id="legend_1">
    <g id="patch_4">
     <path d="M 182.109969 54.234375 
L 276.458406 54.234375 
Q 278.458406 54.234375 278.458406 52.234375 
L 278.458406 9.2 
Q 278.458406 7.2 276.458406 7.2 
L 182.109969 7.2 
Q 180.109969 7.2 180.109969 9.2 
L 180.109969 52.234375 
Q 180.109969 54.234375 182.109969 54.234375 
z
" style="fill: #ffffff; opacity: 0.8; stroke: #cccccc; stroke-linejoin: miter"/>
    </g>
    <g id="line2d_16">
     <path d="M 184.109969 15.298438 
L 194.109969 15.298438 
L 204.109969 15.298438 
" style="fill: none; stroke: #f1605d; stroke-width: 2; stroke-linecap: square"/>
    </g>
    <g id="text_14">
     <!-- 1st week -->
     <g transform="translate(212.109969 18.798438) scale(0.1 -0.1)">
      <defs>
       <path id="DejaVuSans-20" transform="scale(0.015625)"/>
       <path id="DejaVuSans-77" d="M 269 3500 
L 844 3500 
L 1563 769 
L 2278 3500 
L 2956 3500 
L 3675 769 
L 4391 3500 
L 4966 3500 
L 4050 0 
L 3372 0 
L 2619 2869 
L 1863 0 
L 1184 0 
L 269 3500 
z
" transform="scale(0.015625)"/>
       <path id="DejaVuSans-6b" d="M 581 4863 
L 1159 4863 
L 1159 1991 
L 2875 3500 
L 3609 3500 
L 1753 1863 
L 3688 0 
L 2938 0 
L 1159 1709 
L 1159 0 
L 581 0 
L 581 4863 
z
" transform="scale(0.015625)"/>
      </defs>
      <use xlink:href="#DejaVuSans-31"/>
      <use xlink:href="#DejaVuSans-73" x="63.623047"/>
      <use xlink:href="#DejaVuSans-74" x="115.722656"/>
      <use xlink:href="#DejaVuSans-20" x="154.931641"/>
      <use xlink:href="#DejaVuSans-77" x="186.71875"/>
      <use xlink:href="#DejaVuSans-65" x="268.505859"/>
      <use xlink:href="#DejaVuSans-65" x="330.029297"/>
      <use xlink:href="#DejaVuSans-6b" x="391.552734"/>
     </g>
    </g>
    <g id="line2d_17">
     <path d="M 184.109969 29.976563 
L 194.109969 29.976563 
L 204.109969 29.976563 
" style="fill: none; stroke: #440f76; stroke-width: 2; stroke-linecap: square"/>
    </g>
    <g id="text_15">
     <!-- 2nd week -->
     <g transform="translate(212.109969 33.476563) scale(0.1 -0.1)">
      <defs>
       <path id="DejaVuSans-64" d="M 2906 2969 
L 2906 4863 
L 3481 4863 
L 3481 0 
L 2906 0 
L 2906 525 
Q 2725 213 2448 61 
Q 2172 -91 1784 -91 
Q 1150 -91 751 415 
Q 353 922 353 1747 
Q 353 2572 751 3078 
Q 1150 3584 1784 3584 
Q 2172 3584 2448 3432 
Q 2725 3281 2906 2969 
z
M 947 1747 
Q 947 1113 1208 752 
Q 1469 391 1925 391 
Q 2381 391 2643 752 
Q 2906 1113 2906 1747 
Q 2906 2381 2643 2742 
Q 2381 3103 1925 3103 
Q 1469 3103 1208 2742 
Q 947 2381 947 1747 
z
" transform="scale(0.015625)"/>
      </defs>
      <use xlink:href="#DejaVuSans-32"/>
      <use xlink:href="#DejaVuSans-6e" x="63.623047"/>
      <use xlink:href="#DejaVuSans-64" x="127.001953"/>
      <use xlink:href="#DejaVuSans-20" x="190.478516"/>
      <use xlink:href="#DejaVuSans-77" x="222.265625"/>
      <use xlink:href="#DejaVuSans-65" x="304.052734"/>
      <use xlink:href="#DejaVuSans-65" x="365.576172"/>
      <use xlink:href="#DejaVuSans-6b" x="427.099609"/>
     </g>
    </g>
    <g id="line2d_18">
     <path d="M 184.109969 44.654688 
L 194.109969 44.654688 
L 204.109969 44.654688 
" style="fill: none; stroke: #feca8d; stroke-width: 2; stroke-linecap: square"/>
    </g>
    <g id="text_16">
     <!-- Preinduction -->
     <g transform="translate(212.109969 48.154688) scale(0.1 -0.1)">
      <defs>
       <path id="DejaVuSans-50" d="M 1259 4147 
L 1259 2394 
L 2053 2394 
Q 2494 2394 2734 2622 
Q 2975 2850 2975 3272 
Q 2975 3691 2734 3919 
Q 2494 4147 2053 4147 
L 1259 4147 
z
M 628 4666 
L 2053 4666 
Q 2838 4666 3239 4311 
Q 3641 3956 3641 3272 
Q 3641 2581 3239 2228 
Q 2838 1875 2053 1875 
L 1259 1875 
L 1259 0 
L 628 0 
L 628 4666 
z
" transform="scale(0.015625)"/>
      </defs>
      <use xlink:href="#DejaVuSans-50"/>
      <use xlink:href="#DejaVuSans-72" x="58.552734"/>
      <use xlink:href="#DejaVuSans-65" x="97.416016"/>
      <use xlink:href="#DejaVuSans-69" x="158.939453"/>
      <use xlink:href="#DejaVuSans-6e" x="186.722656"/>
      <use xlink:href="#DejaVuSans-64" x="250.101562"/>
      <use xlink:href="#DejaVuSans-75" x="313.578125"/>
      <use xlink:href="#DejaVuSans-63" x="376.957031"/>
      <use xlink:href="#DejaVuSans-74" x="431.9375"/>
      <use xlink:href="#DejaVuSans-69" x="471.146484"/>
      <use xlink:href="#DejaVuSans-6f" x="498.929688"/>
      <use xlink:href="#DejaVuSans-6e" x="560.111328"/>
     </g>
    </g>
   </g>
  </g>
  <g id="text_17">
   <!-- WT - airpuf -->
   <g transform="translate(103.171094 288.956875) scale(0.2 -0.2)">
    <defs>
     <path id="DejaVuSans-57" d="M 213 4666 
L 850 4666 
L 1831 722 
L 2809 4666 
L 3519 4666 
L 4500 722 
L 5478 4666 
L 6119 4666 
L 4947 0 
L 4153 0 
L 3169 4050 
L 2175 0 
L 1381 0 
L 213 4666 
z
" transform="scale(0.015625)"/>
     <path id="DejaVuSans-54" d="M -19 4666 
L 3928 4666 
L 3928 4134 
L 2272 4134 
L 2272 0 
L 1638 0 
L 1638 4134 
L -19 4134 
L -19 4666 
z
" transform="scale(0.015625)"/>
     <path id="DejaVuSans-2d" d="M 313 2009 
L 1997 2009 
L 1997 1497 
L 313 1497 
L 313 2009 
z
" transform="scale(0.015625)"/>
    </defs>
    <use xlink:href="#DejaVuSans-57"/>
    <use xlink:href="#DejaVuSans-54" x="98.876953"/>
    <use xlink:href="#DejaVuSans-20" x="159.960938"/>
    <use xlink:href="#DejaVuSans-2d" x="191.748047"/>
    <use xlink:href="#DejaVuSans-20" x="227.832031"/>
    <use xlink:href="#DejaVuSans-61" x="259.619141"/>
    <use xlink:href="#DejaVuSans-69" x="320.898438"/>
    <use xlink:href="#DejaVuSans-72" x="348.681641"/>
    <use xlink:href="#DejaVuSans-70" x="389.794922"/>
    <use xlink:href="#DejaVuSans-75" x="453.271484"/>
    <use xlink:href="#DejaVuSans-66" x="516.650391"/>
   </g>
  </g>
 </g>
 <defs>
  <clipPath id="pe14f77967d">
   <path d="M 231.306406 176.04 
C 231.306406 164.62577 229.058052 153.322529 224.690015 142.777156 
C 220.321979 132.231783 213.919207 122.649358 205.848128 114.578279 
C 197.777048 106.507199 188.194623 100.104428 177.64925 95.736391 
C 167.103877 91.368354 155.800636 89.12 144.386406 89.12 
C 132.972176 89.12 121.668936 91.368354 111.123562 95.736391 
C 100.578189 100.104428 90.995764 106.507199 82.924685 114.578279 
C 74.853606 122.649358 68.450834 132.231783 64.082797 142.777156 
C 59.714761 153.322529 57.466406 164.62577 57.466406 176.04 
C 57.466406 187.45423 59.714761 198.757471 64.082797 209.302844 
C 68.450834 219.848217 74.853606 229.430642 82.924685 237.501721 
C 90.995764 245.572801 100.578189 251.975572 111.123562 256.343609 
C 121.668936 260.711646 132.972176 262.96 144.386406 262.96 
C 155.800636 262.96 167.103877 260.711646 177.64925 256.343609 
C 188.194623 251.975572 197.777048 245.572801 205.848128 237.501721 
C 213.919207 229.430642 220.321979 219.848217 224.690015 209.302844 
C 229.058052 198.757471 231.306406 187.45423 231.306406 176.04 
M 144.386406 176.04 
C 144.386406 176.04 144.386406 176.04 144.386406 176.04 
C 144.386406 176.04 144.386406 176.04 144.386406 176.04 
C 144.386406 176.04 144.386406 176.04 144.386406 176.04 
C 144.386406 176.04 144.386406 176.04 144.386406 176.04 
C 144.386406 176.04 144.386406 176.04 144.386406 176.04 
C 144.386406 176.04 144.386406 176.04 144.386406 176.04 
C 144.386406 176.04 144.386406 176.04 144.386406 176.04 
C 144.386406 176.04 144.386406 176.04 144.386406 176.04 
C 144.386406 176.04 144.386406 176.04 144.386406 176.04 
C 144.386406 176.04 144.386406 176.04 144.386406 176.04 
C 144.386406 176.04 144.386406 176.04 144.386406 176.04 
C 144.386406 176.04 144.386406 176.04 144.386406 176.04 
C 144.386406 176.04 144.386406 176.04 144.386406 176.04 
C 144.386406 176.04 144.386406 176.04 144.386406 176.04 
C 144.386406 176.04 144.386406 176.04 144.386406 176.04 
C 144.386406 176.04 144.386406 176.04 144.386406 176.04 
z
"/>
  </clipPath>
 </defs>
</svg>
