<?xml version="1.0" encoding="utf-8" standalone="no"?>
<!DOCTYPE svg PUBLIC "-//W3C//DTD SVG 1.1//EN"
  "http://www.w3.org/Graphics/SVG/1.1/DTD/svg11.dtd">
<svg xmlns:xlink="http://www.w3.org/1999/xlink" width="285.658406pt" height="300.31625pt" viewBox="0 0 285.658406 300.31625" xmlns="http://www.w3.org/2000/svg" version="1.1">
 <metadata>
  <rdf:RDF xmlns:dc="http://purl.org/dc/elements/1.1/" xmlns:cc="http://creativecommons.org/ns#" xmlns:rdf="http://www.w3.org/1999/02/22-rdf-syntax-ns#">
   <cc:Work>
    <dc:type rdf:resource="http://purl.org/dc/dcmitype/StillImage"/>
    <dc:date>2026-06-29T23:13:54.743075</dc:date>
    <dc:format>image/svg+xml</dc:format>
    <dc:creator>
     <cc:Agent>
      <dc:title>Matplotlib v3.9.2, https://matplotlib.org/</dc:title>
     </cc:Agent>
    </dc:creator>
   </cc:Work>
  </rdf:RDF>
 </metadata>
 <defs>
  <style type="text/css">*{stroke-linejoin: round; stroke-linecap: butt}</style>
 </defs>
 <g id="figure_1">
  <g id="patch_1">
   <path d="M 0 300.31625 
L 285.658406 300.31625 
L 285.658406 0 
L 0 0 
z
" style="fill: #ffffff"/>
  </g>
  <g id="axes_1">
   <g id="patch_2">
    <path d="M 231.306406 176.04 
C 231.306406 164.62577 229.058052 153.322529 224.690015 142.777156 
C 220.321979 132.231783 213.919207 122.649358 205.848128 114.578279 
C 197.777048 106.507199 188.194623 100.104428 177.64925 95.736391 
C 167.103877 91.368354 155.800636 89.12 144.386406 89.12 
C 132.972176 89.12 121.668936 91.368354 111.123562 95.736391 
C 100.578189 100.104428 90.995764 106.507199 82.924685 114.578279 
C 74.853606 122.649358 68.450834 132.231783 64.082797 142.777156 
C 59.714761 153.322529 57.466406 164.62577 57.466406 176.04 
C 57.466406 187.45423 59.714761 198.757471 64.082797 209.302844 
C 68.450834 219.848217 74.853606 229.430642 82.924685 237.501721 
C 90.995764 245.572801 100.578189 251.975572 111.123562 256.343609 
C 121.668936 260.711646 132.972176 262.96 144.386406 262.96 
C 155.800636 262.96 167.103877 260.711646 177.64925 256.343609 
C 188.194623 251.975572 197.777048 245.572801 205.848128 237.501721 
C 213.919207 229.430642 220.321979 219.848217 224.690015 209.302844 
C 229.058052 198.757471 231.306406 187.45423 231.306406 176.04 
M 144.386406 176.04 
C 144.386406 176.04 144.386406 176.04 144.386406 176.04 
C 144.386406 176.04 144.386406 176.04 144.386406 176.04 
C 144.386406 176.04 144.386406 176.04 144.386406 176.04 
C 144.386406 176.04 144.386406 176.04 144.386406 176.04 
C 144.386406 176.04 144.386406 176.04 144.386406 176.04 
C 144.386406 176.04 144.386406 176.04 144.386406 176.04 
C 144.386406 176.04 144.386406 176.04 144.386406 176.04 
C 144.386406 176.04 144.386406 176.04 144.386406 176.04 
C 144.386406 176.04 144.386406 176.04 144.386406 176.04 
C 144.386406 176.04 144.386406 176.04 144.386406 176.04 
C 144.386406 176.04 144.386406 176.04 144.386406 176.04 
C 144.386406 176.04 144.386406 176.04 144.386406 176.04 
C 144.386406 176.04 144.386406 176.04 144.386406 176.04 
C 144.386406 176.04 144.386406 176.04 144.386406 176.04 
C 144.386406 176.04 144.386406 176.04 144.386406 176.04 
C 144.386406 176.04 144.386406 176.04 144.386406 176.04 
z
" style="fill: #ffffff"/>
   </g>
   <g id="PolyCollection_1">
    <defs>
     <path id="m939c5d3040" d="M 200.788386 -124.27625 
L 200.676483 -124.27625 
L 168.842184 -166.6349 
L 113.98611 -176.931108 
L 140.435497 -124.27625 
L 124.299897 -89.485395 
L 184.514591 -54.772195 
L 200.676483 -124.27625 
L 200.788386 -124.27625 
L 200.788386 -124.27625 
L 185.54833 -52.981707 
L 123.576977 -88.233262 
L 137.996542 -124.27625 
L 113.038125 -178.573065 
L 169.692616 -168.107891 
L 200.788386 -124.27625 
z
" style="stroke: #f1605d; stroke-opacity: 0.15"/>
    </defs>
    <g clip-path="url(#pe3fe2c882b)">
     <use xlink:href="#m939c5d3040" x="0" y="300.31625" style="fill: #f1605d; fill-opacity: 0.15; stroke: #f1605d; stroke-opacity: 0.15"/>
    </g>
   </g>
   <g id="PolyCollection_2">
    <defs>
     <path id="m615ca6d8a0" d="M 200.896899 -124.27625 
L 200.780503 -124.27625 
L 167.591429 -164.468528 
L 112.729639 -179.107379 
L 107.386248 -124.27625 
L 136.036217 -109.813297 
L 184.30762 -55.13068 
L 200.780503 -124.27625 
L 200.896899 -124.27625 
L 200.896899 -124.27625 
L 185.870952 -52.42291 
L 135.160117 -108.295849 
L 104.991492 -124.27625 
L 111.306668 -181.572037 
L 168.061922 -165.283446 
L 200.896899 -124.27625 
z
" style="stroke: #440f76; stroke-opacity: 0.15"/>
    </defs>
    <g clip-path="url(#pe3fe2c882b)">
     <use xlink:href="#m615ca6d8a0" x="0" y="300.31625" style="fill: #440f76; fill-opacity: 0.15; stroke: #440f76; stroke-opacity: 0.15"/>
    </g>
   </g>
   <g id="PolyCollection_3">
    <defs>
     <path id="mff3c4224ff" d="M 202.003294 -124.27625 
L 201.352361 -124.27625 
L 170.340707 -169.230418 
L 119.040467 -168.176705 
L 109.599365 -124.27625 
L 113.24563 -70.338843 
L 182.190278 -58.798024 
L 201.352361 -124.27625 
L 202.003294 -124.27625 
L 202.003294 -124.27625 
L 183.203409 -57.043228 
L 112.449778 -68.960387 
L 108.012379 -124.27625 
L 118.380149 -169.320408 
L 170.734212 -169.911989 
L 202.003294 -124.27625 
z
" style="stroke: #feca8d; stroke-opacity: 0.15"/>
    </defs>
    <g clip-path="url(#pe3fe2c882b)">
     <use xlink:href="#mff3c4224ff" x="0" y="300.31625" style="fill: #feca8d; fill-opacity: 0.15; stroke: #feca8d; stroke-opacity: 0.15"/>
    </g>
   </g>
   <g id="matplotlib.axis_1">
    <g id="xtick_1">
     <g id="line2d_1">
      <path d="M 144.386406 176.04 
L 231.306406 176.04 
" clip-path="url(#pe3fe2c882b)" style="fill: none; stroke: #b0b0b0; stroke-width: 0.8; stroke-linecap: square"/>
     </g>
     <g id="text_1">
      <!-- eye_opening -->
      <g transform="translate(213.482969 178.660313) scale(0.1 -0.1)">
       <defs>
        <path id="DejaVuSans-65" d="M 3597 1894 
L 3597 1613 
L 953 1613 
Q 991 1019 1311 708 
Q 1631 397 2203 397 
Q 2534 397 2845 478 
Q 3156 559 3463 722 
L 3463 178 
Q 3153 47 2828 -22 
Q 2503 -91 2169 -91 
Q 1331 -91 842 396 
Q 353 884 353 1716 
Q 353 2575 817 3079 
Q 1281 3584 2069 3584 
Q 2775 3584 3186 3129 
Q 3597 2675 3597 1894 
z
M 3022 2063 
Q 3016 2534 2758 2815 
Q 2500 3097 2075 3097 
Q 1594 3097 1305 2825 
Q 1016 2553 972 2059 
L 3022 2063 
z
" transform="scale(0.015625)"/>
        <path id="DejaVuSans-79" d="M 2059 -325 
Q 1816 -950 1584 -1140 
Q 1353 -1331 966 -1331 
L 506 -1331 
L 506 -850 
L 844 -850 
Q 1081 -850 1212 -737 
Q 1344 -625 1503 -206 
L 1606 56 
L 191 3500 
L 800 3500 
L 1894 763 
L 2988 3500 
L 3597 3500 
L 2059 -325 
z
" transform="scale(0.015625)"/>
        <path id="DejaVuSans-5f" d="M 3263 -1063 
L 3263 -1509 
L -63 -1509 
L -63 -1063 
L 3263 -1063 
z
" transform="scale(0.015625)"/>
        <path id="DejaVuSans-6f" d="M 1959 3097 
Q 1497 3097 1228 2736 
Q 959 2375 959 1747 
Q 959 1119 1226 758 
Q 1494 397 1959 397 
Q 2419 397 2687 759 
Q 2956 1122 2956 1747 
Q 2956 2369 2687 2733 
Q 2419 3097 1959 3097 
z
M 1959 3584 
Q 2709 3584 3137 3096 
Q 3566 2609 3566 1747 
Q 3566 888 3137 398 
Q 2709 -91 1959 -91 
Q 1206 -91 779 398 
Q 353 888 353 1747 
Q 353 2609 779 3096 
Q 1206 3584 1959 3584 
z
" transform="scale(0.015625)"/>
        <path id="DejaVuSans-70" d="M 1159 525 
L 1159 -1331 
L 581 -1331 
L 581 3500 
L 1159 3500 
L 1159 2969 
Q 1341 3281 1617 3432 
Q 1894 3584 2278 3584 
Q 2916 3584 3314 3078 
Q 3713 2572 3713 1747 
Q 3713 922 3314 415 
Q 2916 -91 2278 -91 
Q 1894 -91 1617 61 
Q 1341 213 1159 525 
z
M 3116 1747 
Q 3116 2381 2855 2742 
Q 2594 3103 2138 3103 
Q 1681 3103 1420 2742 
Q 1159 2381 1159 1747 
Q 1159 1113 1420 752 
Q 1681 391 2138 391 
Q 2594 391 2855 752 
Q 3116 1113 3116 1747 
z
" transform="scale(0.015625)"/>
        <path id="DejaVuSans-6e" d="M 3513 2113 
L 3513 0 
L 2938 0 
L 2938 2094 
Q 2938 2591 2744 2837 
Q 2550 3084 2163 3084 
Q 1697 3084 1428 2787 
Q 1159 2491 1159 1978 
L 1159 0 
L 581 0 
L 581 3500 
L 1159 3500 
L 1159 2956 
Q 1366 3272 1645 3428 
Q 1925 3584 2291 3584 
Q 2894 3584 3203 3211 
Q 3513 2838 3513 2113 
z
" transform="scale(0.015625)"/>
        <path id="DejaVuSans-69" d="M 603 3500 
L 1178 3500 
L 1178 0 
L 603 0 
L 603 3500 
z
M 603 4863 
L 1178 4863 
L 1178 4134 
L 603 4134 
L 603 4863 
z
" transform="scale(0.015625)"/>
        <path id="DejaVuSans-67" d="M 2906 1791 
Q 2906 2416 2648 2759 
Q 2391 3103 1925 3103 
Q 1463 3103 1205 2759 
Q 947 2416 947 1791 
Q 947 1169 1205 825 
Q 1463 481 1925 481 
Q 2391 481 2648 825 
Q 2906 1169 2906 1791 
z
M 3481 434 
Q 3481 -459 3084 -895 
Q 2688 -1331 1869 -1331 
Q 1566 -1331 1297 -1286 
Q 1028 -1241 775 -1147 
L 775 -588 
Q 1028 -725 1275 -790 
Q 1522 -856 1778 -856 
Q 2344 -856 2625 -561 
Q 2906 -266 2906 331 
L 2906 616 
Q 2728 306 2450 153 
Q 2172 0 1784 0 
Q 1141 0 747 490 
Q 353 981 353 1791 
Q 353 2603 747 3093 
Q 1141 3584 1784 3584 
Q 2172 3584 2450 3431 
Q 2728 3278 2906 2969 
L 2906 3500 
L 3481 3500 
L 3481 434 
z
" transform="scale(0.015625)"/>
       </defs>
       <use xlink:href="#DejaVuSans-65"/>
       <use xlink:href="#DejaVuSans-79" x="61.523438"/>
       <use xlink:href="#DejaVuSans-65" x="120.703125"/>
       <use xlink:href="#DejaVuSans-5f" x="182.226562"/>
       <use xlink:href="#DejaVuSans-6f" x="232.226562"/>
       <use xlink:href="#DejaVuSans-70" x="293.408203"/>
       <use xlink:href="#DejaVuSans-65" x="356.884766"/>
       <use xlink:href="#DejaVuSans-6e" x="418.408203"/>
       <use xlink:href="#DejaVuSans-69" x="481.787109"/>
       <use xlink:href="#DejaVuSans-6e" x="509.570312"/>
       <use xlink:href="#DejaVuSans-67" x="572.949219"/>
      </g>
     </g>
    </g>
    <g id="xtick_2">
     <g id="line2d_2">
      <path d="M 144.386406 176.04 
L 187.846406 100.765072 
" clip-path="url(#pe3fe2c882b)" style="fill: none; stroke: #b0b0b0; stroke-width: 0.8; stroke-linecap: square"/>
     </g>
     <g id="text_2">
      <!-- ear_opening -->
      <g transform="translate(163.939375 91.261029) scale(0.1 -0.1)">
       <defs>
        <path id="DejaVuSans-61" d="M 2194 1759 
Q 1497 1759 1228 1600 
Q 959 1441 959 1056 
Q 959 750 1161 570 
Q 1363 391 1709 391 
Q 2188 391 2477 730 
Q 2766 1069 2766 1631 
L 2766 1759 
L 2194 1759 
z
M 3341 1997 
L 3341 0 
L 2766 0 
L 2766 531 
Q 2569 213 2275 61 
Q 1981 -91 1556 -91 
Q 1019 -91 701 211 
Q 384 513 384 1019 
Q 384 1609 779 1909 
Q 1175 2209 1959 2209 
L 2766 2209 
L 2766 2266 
Q 2766 2663 2505 2880 
Q 2244 3097 1772 3097 
Q 1472 3097 1187 3025 
Q 903 2953 641 2809 
L 641 3341 
Q 956 3463 1253 3523 
Q 1550 3584 1831 3584 
Q 2591 3584 2966 3190 
Q 3341 2797 3341 1997 
z
" transform="scale(0.015625)"/>
        <path id="DejaVuSans-72" d="M 2631 2963 
Q 2534 3019 2420 3045 
Q 2306 3072 2169 3072 
Q 1681 3072 1420 2755 
Q 1159 2438 1159 1844 
L 1159 0 
L 581 0 
L 581 3500 
L 1159 3500 
L 1159 2956 
Q 1341 3275 1631 3429 
Q 1922 3584 2338 3584 
Q 2397 3584 2469 3576 
Q 2541 3569 2628 3553 
L 2631 2963 
z
" transform="scale(0.015625)"/>
       </defs>
       <use xlink:href="#DejaVuSans-65"/>
       <use xlink:href="#DejaVuSans-61" x="61.523438"/>
       <use xlink:href="#DejaVuSans-72" x="122.802734"/>
       <use xlink:href="#DejaVuSans-5f" x="163.916016"/>
       <use xlink:href="#DejaVuSans-6f" x="213.916016"/>
       <use xlink:href="#DejaVuSans-70" x="275.097656"/>
       <use xlink:href="#DejaVuSans-65" x="338.574219"/>
       <use xlink:href="#DejaVuSans-6e" x="400.097656"/>
       <use xlink:href="#DejaVuSans-69" x="463.476562"/>
       <use xlink:href="#DejaVuSans-6e" x="491.259766"/>
       <use xlink:href="#DejaVuSans-67" x="554.638672"/>
      </g>
     </g>
    </g>
    <g id="xtick_3">
     <g id="line2d_3">
      <path d="M 144.386406 176.04 
L 100.926406 100.765072 
" clip-path="url(#pe3fe2c882b)" style="fill: none; stroke: #b0b0b0; stroke-width: 0.8; stroke-linecap: square"/>
     </g>
     <g id="text_3">
      <!-- ear_position -->
      <g transform="translate(63.425625 91.261029) scale(0.1 -0.1)">
       <defs>
        <path id="DejaVuSans-73" d="M 2834 3397 
L 2834 2853 
Q 2591 2978 2328 3040 
Q 2066 3103 1784 3103 
Q 1356 3103 1142 2972 
Q 928 2841 928 2578 
Q 928 2378 1081 2264 
Q 1234 2150 1697 2047 
L 1894 2003 
Q 2506 1872 2764 1633 
Q 3022 1394 3022 966 
Q 3022 478 2636 193 
Q 2250 -91 1575 -91 
Q 1294 -91 989 -36 
Q 684 19 347 128 
L 347 722 
Q 666 556 975 473 
Q 1284 391 1588 391 
Q 1994 391 2212 530 
Q 2431 669 2431 922 
Q 2431 1156 2273 1281 
Q 2116 1406 1581 1522 
L 1381 1569 
Q 847 1681 609 1914 
Q 372 2147 372 2553 
Q 372 3047 722 3315 
Q 1072 3584 1716 3584 
Q 2034 3584 2315 3537 
Q 2597 3491 2834 3397 
z
" transform="scale(0.015625)"/>
        <path id="DejaVuSans-74" d="M 1172 4494 
L 1172 3500 
L 2356 3500 
L 2356 3053 
L 1172 3053 
L 1172 1153 
Q 1172 725 1289 603 
Q 1406 481 1766 481 
L 2356 481 
L 2356 0 
L 1766 0 
Q 1100 0 847 248 
Q 594 497 594 1153 
L 594 3053 
L 172 3053 
L 172 3500 
L 594 3500 
L 594 4494 
L 1172 4494 
z
" transform="scale(0.015625)"/>
       </defs>
       <use xlink:href="#DejaVuSans-65"/>
       <use xlink:href="#DejaVuSans-61" x="61.523438"/>
       <use xlink:href="#DejaVuSans-72" x="122.802734"/>
       <use xlink:href="#DejaVuSans-5f" x="163.916016"/>
       <use xlink:href="#DejaVuSans-70" x="213.916016"/>
       <use xlink:href="#DejaVuSans-6f" x="277.392578"/>
       <use xlink:href="#DejaVuSans-73" x="338.574219"/>
       <use xlink:href="#DejaVuSans-69" x="390.673828"/>
       <use xlink:href="#DejaVuSans-74" x="418.457031"/>
       <use xlink:href="#DejaVuSans-69" x="457.666016"/>
       <use xlink:href="#DejaVuSans-6f" x="485.449219"/>
       <use xlink:href="#DejaVuSans-6e" x="546.630859"/>
      </g>
     </g>
    </g>
    <g id="xtick_4">
     <g id="line2d_4">
      <path d="M 144.386406 176.04 
L 57.466406 176.04 
" clip-path="url(#pe3fe2c882b)" style="fill: none; stroke: #b0b0b0; stroke-width: 0.8; stroke-linecap: square"/>
     </g>
     <g id="text_4">
      <!-- snout_position -->
      <g transform="translate(7.2 178.660313) scale(0.1 -0.1)">
       <defs>
        <path id="DejaVuSans-75" d="M 544 1381 
L 544 3500 
L 1119 3500 
L 1119 1403 
Q 1119 906 1312 657 
Q 1506 409 1894 409 
Q 2359 409 2629 706 
Q 2900 1003 2900 1516 
L 2900 3500 
L 3475 3500 
L 3475 0 
L 2900 0 
L 2900 538 
Q 2691 219 2414 64 
Q 2138 -91 1772 -91 
Q 1169 -91 856 284 
Q 544 659 544 1381 
z
M 1991 3584 
L 1991 3584 
z
" transform="scale(0.015625)"/>
       </defs>
       <use xlink:href="#DejaVuSans-73"/>
       <use xlink:href="#DejaVuSans-6e" x="52.099609"/>
       <use xlink:href="#DejaVuSans-6f" x="115.478516"/>
       <use xlink:href="#DejaVuSans-75" x="176.660156"/>
       <use xlink:href="#DejaVuSans-74" x="240.039062"/>
       <use xlink:href="#DejaVuSans-5f" x="279.248047"/>
       <use xlink:href="#DejaVuSans-70" x="329.248047"/>
       <use xlink:href="#DejaVuSans-6f" x="392.724609"/>
       <use xlink:href="#DejaVuSans-73" x="453.90625"/>
       <use xlink:href="#DejaVuSans-69" x="506.005859"/>
       <use xlink:href="#DejaVuSans-74" x="533.789062"/>
       <use xlink:href="#DejaVuSans-69" x="572.998047"/>
       <use xlink:href="#DejaVuSans-6f" x="600.78125"/>
       <use xlink:href="#DejaVuSans-6e" x="661.962891"/>
      </g>
     </g>
    </g>
    <g id="xtick_5">
     <g id="line2d_5">
      <path d="M 144.386406 176.04 
L 100.926406 251.314928 
" clip-path="url(#pe3fe2c882b)" style="fill: none; stroke: #b0b0b0; stroke-width: 0.8; stroke-linecap: square"/>
     </g>
     <g id="text_5">
      <!-- mouth_position -->
      <g transform="translate(55.394375 266.059596) scale(0.1 -0.1)">
       <defs>
        <path id="DejaVuSans-6d" d="M 3328 2828 
Q 3544 3216 3844 3400 
Q 4144 3584 4550 3584 
Q 5097 3584 5394 3201 
Q 5691 2819 5691 2113 
L 5691 0 
L 5113 0 
L 5113 2094 
Q 5113 2597 4934 2840 
Q 4756 3084 4391 3084 
Q 3944 3084 3684 2787 
Q 3425 2491 3425 1978 
L 3425 0 
L 2847 0 
L 2847 2094 
Q 2847 2600 2669 2842 
Q 2491 3084 2119 3084 
Q 1678 3084 1418 2786 
Q 1159 2488 1159 1978 
L 1159 0 
L 581 0 
L 581 3500 
L 1159 3500 
L 1159 2956 
Q 1356 3278 1631 3431 
Q 1906 3584 2284 3584 
Q 2666 3584 2933 3390 
Q 3200 3197 3328 2828 
z
" transform="scale(0.015625)"/>
        <path id="DejaVuSans-68" d="M 3513 2113 
L 3513 0 
L 2938 0 
L 2938 2094 
Q 2938 2591 2744 2837 
Q 2550 3084 2163 3084 
Q 1697 3084 1428 2787 
Q 1159 2491 1159 1978 
L 1159 0 
L 581 0 
L 581 4863 
L 1159 4863 
L 1159 2956 
Q 1366 3272 1645 3428 
Q 1925 3584 2291 3584 
Q 2894 3584 3203 3211 
Q 3513 2838 3513 2113 
z
" transform="scale(0.015625)"/>
       </defs>
       <use xlink:href="#DejaVuSans-6d"/>
       <use xlink:href="#DejaVuSans-6f" x="97.412109"/>
       <use xlink:href="#DejaVuSans-75" x="158.59375"/>
       <use xlink:href="#DejaVuSans-74" x="221.972656"/>
       <use xlink:href="#DejaVuSans-68" x="261.181641"/>
       <use xlink:href="#DejaVuSans-5f" x="324.560547"/>
       <use xlink:href="#DejaVuSans-70" x="374.560547"/>
       <use xlink:href="#DejaVuSans-6f" x="438.037109"/>
       <use xlink:href="#DejaVuSans-73" x="499.21875"/>
       <use xlink:href="#DejaVuSans-69" x="551.318359"/>
       <use xlink:href="#DejaVuSans-74" x="579.101562"/>
       <use xlink:href="#DejaVuSans-69" x="618.310547"/>
       <use xlink:href="#DejaVuSans-6f" x="646.09375"/>
       <use xlink:href="#DejaVuSans-6e" x="707.275391"/>
      </g>
     </g>
    </g>
    <g id="xtick_6">
     <g id="line2d_6">
      <path d="M 144.386406 176.04 
L 187.846406 251.314928 
" clip-path="url(#pe3fe2c882b)" style="fill: none; stroke: #b0b0b0; stroke-width: 0.8; stroke-linecap: square"/>
     </g>
     <g id="text_6">
      <!-- face_inclination -->
      <g transform="translate(155.801094 266.059596) scale(0.1 -0.1)">
       <defs>
        <path id="DejaVuSans-66" d="M 2375 4863 
L 2375 4384 
L 1825 4384 
Q 1516 4384 1395 4259 
Q 1275 4134 1275 3809 
L 1275 3500 
L 2222 3500 
L 2222 3053 
L 1275 3053 
L 1275 0 
L 697 0 
L 697 3053 
L 147 3053 
L 147 3500 
L 697 3500 
L 697 3744 
Q 697 4328 969 4595 
Q 1241 4863 1831 4863 
L 2375 4863 
z
" transform="scale(0.015625)"/>
        <path id="DejaVuSans-63" d="M 3122 3366 
L 3122 2828 
Q 2878 2963 2633 3030 
Q 2388 3097 2138 3097 
Q 1578 3097 1268 2742 
Q 959 2388 959 1747 
Q 959 1106 1268 751 
Q 1578 397 2138 397 
Q 2388 397 2633 464 
Q 2878 531 3122 666 
L 3122 134 
Q 2881 22 2623 -34 
Q 2366 -91 2075 -91 
Q 1284 -91 818 406 
Q 353 903 353 1747 
Q 353 2603 823 3093 
Q 1294 3584 2113 3584 
Q 2378 3584 2631 3529 
Q 2884 3475 3122 3366 
z
" transform="scale(0.015625)"/>
        <path id="DejaVuSans-6c" d="M 603 4863 
L 1178 4863 
L 1178 0 
L 603 0 
L 603 4863 
z
" transform="scale(0.015625)"/>
       </defs>
       <use xlink:href="#DejaVuSans-66"/>
       <use xlink:href="#DejaVuSans-61" x="35.205078"/>
       <use xlink:href="#DejaVuSans-63" x="96.484375"/>
       <use xlink:href="#DejaVuSans-65" x="151.464844"/>
       <use xlink:href="#DejaVuSans-5f" x="212.988281"/>
       <use xlink:href="#DejaVuSans-69" x="262.988281"/>
       <use xlink:href="#DejaVuSans-6e" x="290.771484"/>
       <use xlink:href="#DejaVuSans-63" x="354.150391"/>
       <use xlink:href="#DejaVuSans-6c" x="409.130859"/>
       <use xlink:href="#DejaVuSans-69" x="436.914062"/>
       <use xlink:href="#DejaVuSans-6e" x="464.697266"/>
       <use xlink:href="#DejaVuSans-61" x="528.076172"/>
       <use xlink:href="#DejaVuSans-74" x="589.355469"/>
       <use xlink:href="#DejaVuSans-69" x="628.564453"/>
       <use xlink:href="#DejaVuSans-6f" x="656.347656"/>
       <use xlink:href="#DejaVuSans-6e" x="717.529297"/>
      </g>
     </g>
    </g>
   </g>
   <g id="matplotlib.axis_2">
    <g id="ytick_1">
     <g id="line2d_7">
      <path d="M 155.62976 176.04 
C 155.62976 174.563536 155.338929 173.101429 154.773911 171.737355 
C 154.208893 170.37328 153.380676 169.133766 152.336658 168.089748 
C 151.292641 167.045731 150.053126 166.217513 148.689052 165.652495 
C 147.324977 165.087477 145.86287 164.796646 144.386406 164.796646 
C 142.909943 164.796646 141.447836 165.087477 140.083761 165.652495 
C 138.719686 166.217513 137.480172 167.045731 136.436154 168.089748 
C 135.392137 169.133766 134.56392 170.37328 133.998902 171.737355 
C 133.433883 173.101429 133.143052 174.563536 133.143052 176.04 
C 133.143052 177.516464 133.433883 178.978571 133.998902 180.342645 
C 134.56392 181.70672 135.392137 182.946234 136.436154 183.990252 
C 137.480172 185.034269 138.719686 185.862487 140.083761 186.427505 
C 141.447836 186.992523 142.909943 187.283354 144.386406 187.283354 
C 145.86287 187.283354 147.324977 186.992523 148.689052 186.427505 
C 150.053126 185.862487 151.292641 185.034269 152.336658 183.990252 
C 153.380676 182.946234 154.208893 181.70672 154.773911 180.342645 
C 155.338929 178.978571 155.62976 177.516464 155.62976 176.04 
" clip-path="url(#pe3fe2c882b)" style="fill: none; stroke: #b0b0b0; stroke-width: 0.8; stroke-linecap: square"/>
     </g>
     <g id="text_7">
      <!-- −0.6 -->
      <g transform="translate(154.773911 169.657667) scale(0.1 -0.1)">
       <defs>
        <path id="DejaVuSans-2212" d="M 678 2272 
L 4684 2272 
L 4684 1741 
L 678 1741 
L 678 2272 
z
" transform="scale(0.015625)"/>
        <path id="DejaVuSans-30" d="M 2034 4250 
Q 1547 4250 1301 3770 
Q 1056 3291 1056 2328 
Q 1056 1369 1301 889 
Q 1547 409 2034 409 
Q 2525 409 2770 889 
Q 3016 1369 3016 2328 
Q 3016 3291 2770 3770 
Q 2525 4250 2034 4250 
z
M 2034 4750 
Q 2819 4750 3233 4129 
Q 3647 3509 3647 2328 
Q 3647 1150 3233 529 
Q 2819 -91 2034 -91 
Q 1250 -91 836 529 
Q 422 1150 422 2328 
Q 422 3509 836 4129 
Q 1250 4750 2034 4750 
z
" transform="scale(0.015625)"/>
        <path id="DejaVuSans-2e" d="M 684 794 
L 1344 794 
L 1344 0 
L 684 0 
L 684 794 
z
" transform="scale(0.015625)"/>
        <path id="DejaVuSans-36" d="M 2113 2584 
Q 1688 2584 1439 2293 
Q 1191 2003 1191 1497 
Q 1191 994 1439 701 
Q 1688 409 2113 409 
Q 2538 409 2786 701 
Q 3034 994 3034 1497 
Q 3034 2003 2786 2293 
Q 2538 2584 2113 2584 
z
M 3366 4563 
L 3366 3988 
Q 3128 4100 2886 4159 
Q 2644 4219 2406 4219 
Q 1781 4219 1451 3797 
Q 1122 3375 1075 2522 
Q 1259 2794 1537 2939 
Q 1816 3084 2150 3084 
Q 2853 3084 3261 2657 
Q 3669 2231 3669 1497 
Q 3669 778 3244 343 
Q 2819 -91 2113 -91 
Q 1303 -91 875 529 
Q 447 1150 447 2328 
Q 447 3434 972 4092 
Q 1497 4750 2381 4750 
Q 2619 4750 2861 4703 
Q 3103 4656 3366 4563 
z
" transform="scale(0.015625)"/>
       </defs>
       <use xlink:href="#DejaVuSans-2212"/>
       <use xlink:href="#DejaVuSans-30" x="83.789062"/>
       <use xlink:href="#DejaVuSans-2e" x="147.412109"/>
       <use xlink:href="#DejaVuSans-36" x="179.199219"/>
      </g>
     </g>
    </g>
    <g id="ytick_2">
     <g id="line2d_8">
      <path d="M 170.917454 176.04 
C 170.917454 172.555975 170.231177 169.105827 168.897898 165.887007 
C 167.56462 162.668188 165.610268 159.743294 163.14669 157.279716 
C 160.683112 154.816138 157.758218 152.861787 154.539399 151.528508 
C 151.320579 150.195229 147.870432 149.508952 144.386406 149.508952 
C 140.902381 149.508952 137.452233 150.195229 134.233414 151.528508 
C 131.014594 152.861787 128.0897 154.816138 125.626122 157.279716 
C 123.162544 159.743294 121.208193 162.668188 119.874914 165.887007 
C 118.541635 169.105827 117.855358 172.555975 117.855358 176.04 
C 117.855358 179.524025 118.541635 182.974173 119.874914 186.192993 
C 121.208193 189.411812 123.162544 192.336706 125.626122 194.800284 
C 128.0897 197.263862 131.014594 199.218213 134.233414 200.551492 
C 137.452233 201.884771 140.902381 202.571048 144.386406 202.571048 
C 147.870432 202.571048 151.320579 201.884771 154.539399 200.551492 
C 157.758218 199.218213 160.683112 197.263862 163.14669 194.800284 
C 165.610268 192.336706 167.56462 189.411812 168.897898 186.192993 
C 170.231177 182.974173 170.917454 179.524025 170.917454 176.04 
" clip-path="url(#pe3fe2c882b)" style="fill: none; stroke: #b0b0b0; stroke-width: 0.8; stroke-linecap: square"/>
     </g>
     <g id="text_8">
      <!-- −0.4 -->
      <g transform="translate(168.897898 163.80732) scale(0.1 -0.1)">
       <defs>
        <path id="DejaVuSans-34" d="M 2419 4116 
L 825 1625 
L 2419 1625 
L 2419 4116 
z
M 2253 4666 
L 3047 4666 
L 3047 1625 
L 3713 1625 
L 3713 1100 
L 3047 1100 
L 3047 0 
L 2419 0 
L 2419 1100 
L 313 1100 
L 313 1709 
L 2253 4666 
z
" transform="scale(0.015625)"/>
       </defs>
       <use xlink:href="#DejaVuSans-2212"/>
       <use xlink:href="#DejaVuSans-30" x="83.789062"/>
       <use xlink:href="#DejaVuSans-2e" x="147.412109"/>
       <use xlink:href="#DejaVuSans-34" x="179.199219"/>
      </g>
     </g>
    </g>
    <g id="ytick_3">
     <g id="line2d_9">
      <path d="M 186.205148 176.04 
C 186.205148 170.548413 185.123425 165.110225 183.021886 160.03666 
C 180.920347 154.963096 177.839861 150.352822 173.956722 146.469684 
C 170.073584 142.586546 165.463311 139.50606 160.389746 137.40452 
C 155.316181 135.302981 149.877993 134.221258 144.386406 134.221258 
C 138.894819 134.221258 133.456631 135.302981 128.383067 137.40452 
C 123.309502 139.50606 118.699229 142.586546 114.81609 146.469684 
C 110.932952 150.352822 107.852466 154.963096 105.750927 160.03666 
C 103.649387 165.110225 102.567664 170.548413 102.567664 176.04 
C 102.567664 181.531587 103.649387 186.969775 105.750927 192.04334 
C 107.852466 197.116904 110.932952 201.727178 114.81609 205.610316 
C 118.699229 209.493454 123.309502 212.57394 128.383067 214.67548 
C 133.456631 216.777019 138.894819 217.858742 144.386406 217.858742 
C 149.877993 217.858742 155.316181 216.777019 160.389746 214.67548 
C 165.463311 212.57394 170.073584 209.493454 173.956722 205.610316 
C 177.839861 201.727178 180.920347 197.116904 183.021886 192.04334 
C 185.123425 186.969775 186.205148 181.531587 186.205148 176.04 
" clip-path="url(#pe3fe2c882b)" style="fill: none; stroke: #b0b0b0; stroke-width: 0.8; stroke-linecap: square"/>
     </g>
     <g id="text_9">
      <!-- −0.2 -->
      <g transform="translate(183.021886 157.956973) scale(0.1 -0.1)">
       <defs>
        <path id="DejaVuSans-32" d="M 1228 531 
L 3431 531 
L 3431 0 
L 469 0 
L 469 531 
Q 828 903 1448 1529 
Q 2069 2156 2228 2338 
Q 2531 2678 2651 2914 
Q 2772 3150 2772 3378 
Q 2772 3750 2511 3984 
Q 2250 4219 1831 4219 
Q 1534 4219 1204 4116 
Q 875 4013 500 3803 
L 500 4441 
Q 881 4594 1212 4672 
Q 1544 4750 1819 4750 
Q 2544 4750 2975 4387 
Q 3406 4025 3406 3419 
Q 3406 3131 3298 2873 
Q 3191 2616 2906 2266 
Q 2828 2175 2409 1742 
Q 1991 1309 1228 531 
z
" transform="scale(0.015625)"/>
       </defs>
       <use xlink:href="#DejaVuSans-2212"/>
       <use xlink:href="#DejaVuSans-30" x="83.789062"/>
       <use xlink:href="#DejaVuSans-2e" x="147.412109"/>
       <use xlink:href="#DejaVuSans-32" x="179.199219"/>
      </g>
     </g>
    </g>
    <g id="ytick_4">
     <g id="line2d_10">
      <path d="M 201.492842 176.04 
C 201.492842 168.540852 200.015673 161.114623 197.145873 154.186313 
C 194.276074 147.258003 190.069453 140.962351 184.766754 135.659652 
C 179.464056 130.356953 173.168403 126.150333 166.240093 123.280533 
C 159.311783 120.410733 151.885555 118.933564 144.386406 118.933564 
C 136.887258 118.933564 129.461029 120.410733 122.532719 123.280533 
C 115.60441 126.150333 109.308757 130.356953 104.006058 135.659652 
C 98.70336 140.962351 94.496739 147.258003 91.626939 154.186313 
C 88.757139 161.114623 87.27997 168.540852 87.27997 176.04 
C 87.27997 183.539148 88.757139 190.965377 91.626939 197.893687 
C 94.496739 204.821997 98.70336 211.117649 104.006058 216.420348 
C 109.308757 221.723047 115.60441 225.929667 122.532719 228.799467 
C 129.461029 231.669267 136.887258 233.146436 144.386406 233.146436 
C 151.885555 233.146436 159.311783 231.669267 166.240093 228.799467 
C 173.168403 225.929667 179.464056 221.723047 184.766754 216.420348 
C 190.069453 211.117649 194.276074 204.821997 197.145873 197.893687 
C 200.015673 190.965377 201.492842 183.539148 201.492842 176.04 
" clip-path="url(#pe3fe2c882b)" style="fill: none; stroke: #b0b0b0; stroke-width: 0.8; stroke-linecap: square"/>
     </g>
     <g id="text_10">
      <!-- 0.0 -->
      <g transform="translate(197.145873 152.106626) scale(0.1 -0.1)">
       <use xlink:href="#DejaVuSans-30"/>
       <use xlink:href="#DejaVuSans-2e" x="63.623047"/>
       <use xlink:href="#DejaVuSans-30" x="95.410156"/>
      </g>
     </g>
    </g>
    <g id="ytick_5">
     <g id="line2d_11">
      <path d="M 216.780536 176.04 
C 216.780536 166.53329 214.907921 157.119021 211.269861 148.335966 
C 207.6318 139.552911 202.299045 131.571879 195.576786 124.84962 
C 188.854527 118.127361 180.873495 112.794606 172.09044 109.156545 
C 163.307385 105.518485 153.893116 103.64587 144.386406 103.64587 
C 134.879696 103.64587 125.465427 105.518485 116.682372 109.156545 
C 107.899317 112.794606 99.918285 118.127361 93.196026 124.84962 
C 86.473767 131.571879 81.141012 139.552911 77.502952 148.335966 
C 73.864891 157.119021 71.992277 166.53329 71.992277 176.04 
C 71.992277 185.54671 73.864891 194.960979 77.502952 203.744034 
C 81.141012 212.527089 86.473767 220.508121 93.196026 227.23038 
C 99.918285 233.952639 107.899317 239.285394 116.682372 242.923455 
C 125.465427 246.561515 134.879696 248.43413 144.386406 248.43413 
C 153.893116 248.43413 163.307385 246.561515 172.09044 242.923455 
C 180.873495 239.285394 188.854527 233.952639 195.576786 227.23038 
C 202.299045 220.508121 207.6318 212.527089 211.269861 203.744034 
C 214.907921 194.960979 216.780536 185.54671 216.780536 176.04 
" clip-path="url(#pe3fe2c882b)" style="fill: none; stroke: #b0b0b0; stroke-width: 0.8; stroke-linecap: square"/>
     </g>
     <g id="text_11">
      <!-- 0.2 -->
      <g transform="translate(211.269861 146.256278) scale(0.1 -0.1)">
       <use xlink:href="#DejaVuSans-30"/>
       <use xlink:href="#DejaVuSans-2e" x="63.623047"/>
       <use xlink:href="#DejaVuSans-32" x="95.410156"/>
      </g>
     </g>
    </g>
   </g>
   <g id="line2d_12">
    <path d="M 200.732434 176.04 
L 169.2674 132.944855 
L 113.512118 122.564164 
L 139.21602 176.04 
L 123.938437 211.456921 
L 185.03146 246.439299 
L 200.732434 176.04 
" clip-path="url(#pe3fe2c882b)" style="fill: none; stroke: #f1605d; stroke-width: 2; stroke-linecap: square"/>
   </g>
   <g id="line2d_13">
    <path d="M 200.838701 176.04 
L 167.826675 135.440263 
L 112.018154 119.976542 
L 106.18887 176.04 
L 135.598167 191.261677 
L 185.089286 246.539455 
L 200.838701 176.04 
" clip-path="url(#pe3fe2c882b)" style="fill: none; stroke: #440f76; stroke-width: 2; stroke-linecap: square"/>
   </g>
   <g id="line2d_14">
    <path d="M 201.677828 176.04 
L 170.53746 130.745047 
L 118.710308 131.567693 
L 108.805872 176.04 
L 112.847704 230.666635 
L 182.696843 242.395624 
L 201.677828 176.04 
" clip-path="url(#pe3fe2c882b)" style="fill: none; stroke: #feca8d; stroke-width: 2; stroke-linecap: square"/>
   </g>
   <g id="patch_3">
    <path d="M 231.306406 176.04 
C 231.306406 164.62577 229.058052 153.322529 224.690015 142.777156 
C 220.321979 132.231783 213.919207 122.649358 205.848128 114.578279 
C 197.777048 106.507199 188.194623 100.104428 177.64925 95.736391 
C 167.103877 91.368354 155.800636 89.12 144.386406 89.12 
C 132.972176 89.12 121.668936 91.368354 111.123562 95.736391 
C 100.578189 100.104428 90.995764 106.507199 82.924685 114.578279 
C 74.853606 122.649358 68.450834 132.231783 64.082797 142.777156 
C 59.714761 153.322529 57.466406 164.62577 57.466406 176.04 
C 57.466406 187.45423 59.714761 198.757471 64.082797 209.302844 
C 68.450834 219.848217 74.853606 229.430642 82.924685 237.501721 
C 90.995764 245.572801 100.578189 251.975572 111.123562 256.343609 
C 121.668936 260.711646 132.972176 262.96 144.386406 262.96 
C 155.800636 262.96 167.103877 260.711646 177.64925 256.343609 
C 188.194623 251.975572 197.777048 245.572801 205.848128 237.501721 
C 213.919207 229.430642 220.321979 219.848217 224.690015 209.302844 
C 229.058052 198.757471 231.306406 187.45423 231.306406 176.04 
" style="fill: none; stroke: #000000; stroke-width: 0.8; stroke-linejoin: miter; stroke-linecap: square"/>
   </g>
   <g id="text_12">
    <!-- sucrose -->
    <g transform="translate(121.338906 77.662591) scale(0.12 -0.12)">
     <use xlink:href="#DejaVuSans-73"/>
     <use xlink:href="#DejaVuSans-75" x="52.099609"/>
     <use xlink:href="#DejaVuSans-63" x="115.478516"/>
     <use xlink:href="#DejaVuSans-72" x="170.458984"/>
     <use xlink:href="#DejaVuSans-6f" x="209.322266"/>
     <use xlink:href="#DejaVuSans-73" x="270.503906"/>
     <use xlink:href="#DejaVuSans-65" x="322.603516"/>
    </g>
   </g>
   <g id="legend_1">
    <g id="patch_4">
     <path d="M 182.109969 54.234375 
L 276.458406 54.234375 
Q 278.458406 54.234375 278.458406 52.234375 
L 278.458406 9.2 
Q 278.458406 7.2 276.458406 7.2 
L 182.109969 7.2 
Q 180.109969 7.2 180.109969 9.2 
L 180.109969 52.234375 
Q 180.109969 54.234375 182.109969 54.234375 
z
" style="fill: #ffffff; opacity: 0.8; stroke: #cccccc; stroke-linejoin: miter"/>
    </g>
    <g id="line2d_15">
     <path d="M 184.109969 15.298438 
L 194.109969 15.298438 
L 204.109969 15.298438 
" style="fill: none; stroke: #f1605d; stroke-width: 2; stroke-linecap: square"/>
    </g>
    <g id="text_13">
     <!-- 1st week -->
     <g transform="translate(212.109969 18.798438) scale(0.1 -0.1)">
      <defs>
       <path id="DejaVuSans-31" d="M 794 531 
L 1825 531 
L 1825 4091 
L 703 3866 
L 703 4441 
L 1819 4666 
L 2450 4666 
L 2450 531 
L 3481 531 
L 3481 0 
L 794 0 
L 794 531 
z
" transform="scale(0.015625)"/>
       <path id="DejaVuSans-20" transform="scale(0.015625)"/>
       <path id="DejaVuSans-77" d="M 269 3500 
L 844 3500 
L 1563 769 
L 2278 3500 
L 2956 3500 
L 3675 769 
L 4391 3500 
L 4966 3500 
L 4050 0 
L 3372 0 
L 2619 2869 
L 1863 0 
L 1184 0 
L 269 3500 
z
" transform="scale(0.015625)"/>
       <path id="DejaVuSans-6b" d="M 581 4863 
L 1159 4863 
L 1159 1991 
L 2875 3500 
L 3609 3500 
L 1753 1863 
L 3688 0 
L 2938 0 
L 1159 1709 
L 1159 0 
L 581 0 
L 581 4863 
z
" transform="scale(0.015625)"/>
      </defs>
      <use xlink:href="#DejaVuSans-31"/>
      <use xlink:href="#DejaVuSans-73" x="63.623047"/>
      <use xlink:href="#DejaVuSans-74" x="115.722656"/>
      <use xlink:href="#DejaVuSans-20" x="154.931641"/>
      <use xlink:href="#DejaVuSans-77" x="186.71875"/>
      <use xlink:href="#DejaVuSans-65" x="268.505859"/>
      <use xlink:href="#DejaVuSans-65" x="330.029297"/>
      <use xlink:href="#DejaVuSans-6b" x="391.552734"/>
     </g>
    </g>
    <g id="line2d_16">
     <path d="M 184.109969 29.976563 
L 194.109969 29.976563 
L 204.109969 29.976563 
" style="fill: none; stroke: #440f76; stroke-width: 2; stroke-linecap: square"/>
    </g>
    <g id="text_14">
     <!-- 2nd week -->
     <g transform="translate(212.109969 33.476563) scale(0.1 -0.1)">
      <defs>
       <path id="DejaVuSans-64" d="M 2906 2969 
L 2906 4863 
L 3481 4863 
L 3481 0 
L 2906 0 
L 2906 525 
Q 2725 213 2448 61 
Q 2172 -91 1784 -91 
Q 1150 -91 751 415 
Q 353 922 353 1747 
Q 353 2572 751 3078 
Q 1150 3584 1784 3584 
Q 2172 3584 2448 3432 
Q 2725 3281 2906 2969 
z
M 947 1747 
Q 947 1113 1208 752 
Q 1469 391 1925 391 
Q 2381 391 2643 752 
Q 2906 1113 2906 1747 
Q 2906 2381 2643 2742 
Q 2381 3103 1925 3103 
Q 1469 3103 1208 2742 
Q 947 2381 947 1747 
z
" transform="scale(0.015625)"/>
      </defs>
      <use xlink:href="#DejaVuSans-32"/>
      <use xlink:href="#DejaVuSans-6e" x="63.623047"/>
      <use xlink:href="#DejaVuSans-64" x="127.001953"/>
      <use xlink:href="#DejaVuSans-20" x="190.478516"/>
      <use xlink:href="#DejaVuSans-77" x="222.265625"/>
      <use xlink:href="#DejaVuSans-65" x="304.052734"/>
      <use xlink:href="#DejaVuSans-65" x="365.576172"/>
      <use xlink:href="#DejaVuSans-6b" x="427.099609"/>
     </g>
    </g>
    <g id="line2d_17">
     <path d="M 184.109969 44.654688 
L 194.109969 44.654688 
L 204.109969 44.654688 
" style="fill: none; stroke: #feca8d; stroke-width: 2; stroke-linecap: square"/>
    </g>
    <g id="text_15">
     <!-- Preinduction -->
     <g transform="translate(212.109969 48.154688) scale(0.1 -0.1)">
      <defs>
       <path id="DejaVuSans-50" d="M 1259 4147 
L 1259 2394 
L 2053 2394 
Q 2494 2394 2734 2622 
Q 2975 2850 2975 3272 
Q 2975 3691 2734 3919 
Q 2494 4147 2053 4147 
L 1259 4147 
z
M 628 4666 
L 2053 4666 
Q 2838 4666 3239 4311 
Q 3641 3956 3641 3272 
Q 3641 2581 3239 2228 
Q 2838 1875 2053 1875 
L 1259 1875 
L 1259 0 
L 628 0 
L 628 4666 
z
" transform="scale(0.015625)"/>
      </defs>
      <use xlink:href="#DejaVuSans-50"/>
      <use xlink:href="#DejaVuSans-72" x="58.552734"/>
      <use xlink:href="#DejaVuSans-65" x="97.416016"/>
      <use xlink:href="#DejaVuSans-69" x="158.939453"/>
      <use xlink:href="#DejaVuSans-6e" x="186.722656"/>
      <use xlink:href="#DejaVuSans-64" x="250.101562"/>
      <use xlink:href="#DejaVuSans-75" x="313.578125"/>
      <use xlink:href="#DejaVuSans-63" x="376.957031"/>
      <use xlink:href="#DejaVuSans-74" x="431.9375"/>
      <use xlink:href="#DejaVuSans-69" x="471.146484"/>
      <use xlink:href="#DejaVuSans-6f" x="498.929688"/>
      <use xlink:href="#DejaVuSans-6e" x="560.111328"/>
     </g>
    </g>
   </g>
  </g>
  <g id="text_16">
   <!-- WT - sucrose -->
   <g transform="translate(93.982031 288.956875) scale(0.2 -0.2)">
    <defs>
     <path id="DejaVuSans-57" d="M 213 4666 
L 850 4666 
L 1831 722 
L 2809 4666 
L 3519 4666 
L 4500 722 
L 5478 4666 
L 6119 4666 
L 4947 0 
L 4153 0 
L 3169 4050 
L 2175 0 
L 1381 0 
L 213 4666 
z
" transform="scale(0.015625)"/>
     <path id="DejaVuSans-54" d="M -19 4666 
L 3928 4666 
L 3928 4134 
L 2272 4134 
L 2272 0 
L 1638 0 
L 1638 4134 
L -19 4134 
L -19 4666 
z
" transform="scale(0.015625)"/>
     <path id="DejaVuSans-2d" d="M 313 2009 
L 1997 2009 
L 1997 1497 
L 313 1497 
L 313 2009 
z
" transform="scale(0.015625)"/>
    </defs>
    <use xlink:href="#DejaVuSans-57"/>
    <use xlink:href="#DejaVuSans-54" x="98.876953"/>
    <use xlink:href="#DejaVuSans-20" x="159.960938"/>
    <use xlink:href="#DejaVuSans-2d" x="191.748047"/>
    <use xlink:href="#DejaVuSans-20" x="227.832031"/>
    <use xlink:href="#DejaVuSans-73" x="259.619141"/>
    <use xlink:href="#DejaVuSans-75" x="311.71875"/>
    <use xlink:href="#DejaVuSans-63" x="375.097656"/>
    <use xlink:href="#DejaVuSans-72" x="430.078125"/>
    <use xlink:href="#DejaVuSans-6f" x="468.941406"/>
    <use xlink:href="#DejaVuSans-73" x="530.123047"/>
    <use xlink:href="#DejaVuSans-65" x="582.222656"/>
   </g>
  </g>
 </g>
 <defs>
  <clipPath id="pe3fe2c882b">
   <path d="M 231.306406 176.04 
C 231.306406 164.62577 229.058052 153.322529 224.690015 142.777156 
C 220.321979 132.231783 213.919207 122.649358 205.848128 114.578279 
C 197.777048 106.507199 188.194623 100.104428 177.64925 95.736391 
C 167.103877 91.368354 155.800636 89.12 144.386406 89.12 
C 132.972176 89.12 121.668936 91.368354 111.123562 95.736391 
C 100.578189 100.104428 90.995764 106.507199 82.924685 114.578279 
C 74.853606 122.649358 68.450834 132.231783 64.082797 142.777156 
C 59.714761 153.322529 57.466406 164.62577 57.466406 176.04 
C 57.466406 187.45423 59.714761 198.757471 64.082797 209.302844 
C 68.450834 219.848217 74.853606 229.430642 82.924685 237.501721 
C 90.995764 245.572801 100.578189 251.975572 111.123562 256.343609 
C 121.668936 260.711646 132.972176 262.96 144.386406 262.96 
C 155.800636 262.96 167.103877 260.711646 177.64925 256.343609 
C 188.194623 251.975572 197.777048 245.572801 205.848128 237.501721 
C 213.919207 229.430642 220.321979 219.848217 224.690015 209.302844 
C 229.058052 198.757471 231.306406 187.45423 231.306406 176.04 
M 144.386406 176.04 
C 144.386406 176.04 144.386406 176.04 144.386406 176.04 
C 144.386406 176.04 144.386406 176.04 144.386406 176.04 
C 144.386406 176.04 144.386406 176.04 144.386406 176.04 
C 144.386406 176.04 144.386406 176.04 144.386406 176.04 
C 144.386406 176.04 144.386406 176.04 144.386406 176.04 
C 144.386406 176.04 144.386406 176.04 144.386406 176.04 
C 144.386406 176.04 144.386406 176.04 144.386406 176.04 
C 144.386406 176.04 144.386406 176.04 144.386406 176.04 
C 144.386406 176.04 144.386406 176.04 144.386406 176.04 
C 144.386406 176.04 144.386406 176.04 144.386406 176.04 
C 144.386406 176.04 144.386406 176.04 144.386406 176.04 
C 144.386406 176.04 144.386406 176.04 144.386406 176.04 
C 144.386406 176.04 144.386406 176.04 144.386406 176.04 
C 144.386406 176.04 144.386406 176.04 144.386406 176.04 
C 144.386406 176.04 144.386406 176.04 144.386406 176.04 
C 144.386406 176.04 144.386406 176.04 144.386406 176.04 
z
"/>
  </clipPath>
 </defs>
</svg>
